%TF.GenerationSoftware,KiCad,Pcbnew,9.0.4*%
%TF.CreationDate,2025-09-22T08:36:52+02:00*%
%TF.ProjectId,SparrowCompass,53706172-726f-4774-936f-6d706173732e,rev?*%
%TF.SameCoordinates,Original*%
%TF.FileFunction,Profile,NP*%
%FSLAX46Y46*%
G04 Gerber Fmt 4.6, Leading zero omitted, Abs format (unit mm)*
G04 Created by KiCad (PCBNEW 9.0.4) date 2025-09-22 08:36:52*
%MOMM*%
%LPD*%
G01*
G04 APERTURE LIST*
%TA.AperFunction,Profile*%
%ADD10C,0.050000*%
%TD*%
%TA.AperFunction,Profile*%
%ADD11C,0.010000*%
%TD*%
G04 APERTURE END LIST*
D10*
X170146447Y-62853553D02*
X185853554Y-47146446D01*
X129853553Y-64146447D02*
G75*
G02*
X130207107Y-64000005I353547J-353553D01*
G01*
X153000000Y-100000000D02*
G75*
G02*
X147000000Y-100000000I-3000000J0D01*
G01*
X147000000Y-100000000D02*
G75*
G02*
X153000000Y-100000000I3000000J0D01*
G01*
X114000000Y-42500000D02*
X114000000Y-46792893D01*
X170146447Y-62853553D02*
G75*
G02*
X169792893Y-62999995I-353547J353553D01*
G01*
X169792893Y-64000000D02*
G75*
G02*
X170146449Y-64146443I7J-500000D01*
G01*
X171500000Y-68000000D02*
G75*
G02*
X168500000Y-68000000I-1500000J0D01*
G01*
X168500000Y-68000000D02*
G75*
G02*
X171500000Y-68000000I1500000J0D01*
G01*
X153500000Y-64000000D02*
G75*
G02*
X153000000Y-63500000I0J500000D01*
G01*
X134500000Y-100000000D02*
G75*
G02*
X131500000Y-100000000I-1500000J0D01*
G01*
X131500000Y-100000000D02*
G75*
G02*
X134500000Y-100000000I1500000J0D01*
G01*
X186000000Y-119792893D02*
X186000000Y-80207107D01*
X185853553Y-79853553D02*
G75*
G02*
X185999995Y-80207107I-353553J-353547D01*
G01*
X170146447Y-135853553D02*
G75*
G02*
X169792893Y-135999995I-353547J353553D01*
G01*
X114000000Y-42500000D02*
G75*
G02*
X114500000Y-42000000I500000J0D01*
G01*
X130207107Y-63000000D02*
X146500000Y-63000000D01*
X130207107Y-136000000D02*
G75*
G02*
X129853551Y-135853557I-7J500000D01*
G01*
X119500000Y-47000000D02*
G75*
G02*
X116500000Y-47000000I-1500000J0D01*
G01*
X116500000Y-47000000D02*
G75*
G02*
X119500000Y-47000000I1500000J0D01*
G01*
X129853553Y-64146447D02*
X114146446Y-79853554D01*
X131500000Y-68000000D02*
G75*
G02*
X128500000Y-68000000I-1500000J0D01*
G01*
X128500000Y-68000000D02*
G75*
G02*
X131500000Y-68000000I1500000J0D01*
G01*
X147000000Y-63500000D02*
G75*
G02*
X146500000Y-64000000I-500000J0D01*
G01*
X153500000Y-63000000D02*
X169792893Y-63000000D01*
X168500000Y-100000000D02*
G75*
G02*
X165500000Y-100000000I-1500000J0D01*
G01*
X165500000Y-100000000D02*
G75*
G02*
X168500000Y-100000000I1500000J0D01*
G01*
X131500000Y-132000000D02*
G75*
G02*
X128500000Y-132000000I-1500000J0D01*
G01*
X128500000Y-132000000D02*
G75*
G02*
X131500000Y-132000000I1500000J0D01*
G01*
X114000000Y-80207107D02*
G75*
G02*
X114146443Y-79853551I500000J7D01*
G01*
X136000000Y-64000000D02*
X130207107Y-64000000D01*
X114146447Y-120146447D02*
X129853554Y-135853554D01*
X130207107Y-63000000D02*
G75*
G02*
X129853551Y-62853557I-7J500000D01*
G01*
X183500000Y-47000000D02*
G75*
G02*
X180500000Y-47000000I-1500000J0D01*
G01*
X180500000Y-47000000D02*
G75*
G02*
X183500000Y-47000000I1500000J0D01*
G01*
X153000000Y-63500000D02*
G75*
G02*
X153500000Y-63000000I500000J0D01*
G01*
X114146447Y-120146447D02*
G75*
G02*
X114000005Y-119792893I353553J353547D01*
G01*
X146500000Y-64000000D02*
X136000000Y-64000000D01*
X114000000Y-80207107D02*
X114000000Y-119792893D01*
X185853553Y-79853553D02*
X170146446Y-64146446D01*
X185500000Y-42000000D02*
G75*
G02*
X186000000Y-42500000I0J-500000D01*
G01*
X114146447Y-47146447D02*
X129853554Y-62853554D01*
X186000000Y-119792893D02*
G75*
G02*
X185853557Y-120146449I-500000J-7D01*
G01*
X171500000Y-132000000D02*
G75*
G02*
X168500000Y-132000000I-1500000J0D01*
G01*
X168500000Y-132000000D02*
G75*
G02*
X171500000Y-132000000I1500000J0D01*
G01*
X186000000Y-46792893D02*
X186000000Y-42500000D01*
X169792893Y-64000000D02*
X153500000Y-64000000D01*
X186000000Y-46792893D02*
G75*
G02*
X185853557Y-47146449I-500000J-7D01*
G01*
X146500000Y-63000000D02*
G75*
G02*
X147000000Y-63500000I0J-500000D01*
G01*
X170146447Y-135853553D02*
X185853554Y-120146446D01*
X130207107Y-136000000D02*
X169792893Y-136000000D01*
X185500000Y-42000000D02*
X114500000Y-42000000D01*
X114146447Y-47146447D02*
G75*
G02*
X114000005Y-46792893I353553J353547D01*
G01*
D11*
%TO.C,J3*%
X145380000Y-133900000D02*
X145380000Y-133100000D01*
X145980000Y-133100000D02*
X145980000Y-133900000D01*
X154020000Y-133900000D02*
X154020000Y-133100000D01*
X154620000Y-133100000D02*
X154620000Y-133900000D01*
X145380000Y-133100000D02*
G75*
G02*
X145680000Y-132800000I300000J0D01*
G01*
X145680000Y-132800000D02*
G75*
G02*
X145980000Y-133100000I0J-300000D01*
G01*
X145680000Y-134200000D02*
G75*
G02*
X145380000Y-133900000I0J300000D01*
G01*
X145980000Y-133900000D02*
G75*
G02*
X145680000Y-134200000I-300000J0D01*
G01*
X154020000Y-133100000D02*
G75*
G02*
X154320000Y-132800000I300000J0D01*
G01*
X154320000Y-132800000D02*
G75*
G02*
X154620000Y-133100000I0J-300000D01*
G01*
X154320000Y-134200000D02*
G75*
G02*
X154020000Y-133900000I0J300000D01*
G01*
X154620000Y-133900000D02*
G75*
G02*
X154320000Y-134200000I-300000J0D01*
G01*
%TD*%
M02*
