M48
; DRILL file KiCad 10.0.1 date 2026-05-20T22:49:58
; FORMAT={-:-/ absolute / metric / decimal}
; #@! TF.CreationDate,2026-05-20T22:49:58+02:00
; #@! TF.GenerationSoftware,Kicad,Pcbnew,10.0.1
; #@! TF.FileFunction,Plated,1,4,PTH
FMAT,2
METRIC
; #@! TA.AperFunction,Plated,PTH,ViaDrill
T1C0.300
; #@! TA.AperFunction,Plated,PTH,ComponentDrill
T2C0.500
; #@! TA.AperFunction,Plated,PTH,ComponentDrill
T3C0.600
; #@! TA.AperFunction,Plated,PTH,ComponentDrill
T4C0.650
; #@! TA.AperFunction,Plated,PTH,ComponentDrill
T5C1.000
%
G90
G05
T1
X123.1Y-54.4
X123.1Y-92.4
X123.3Y-88.2
X123.3Y-96.8
X123.3Y-102.4
X123.6Y-110.1
X125.3Y-83.5
X126.7Y-117.2
X126.8Y-92.6
X126.8Y-99.1
X126.9Y-102.3
X127.1Y-61.2
X127.3Y-88.6
X127.4Y-54.3
X127.5Y-84.5
X128.0Y-93.1
X128.25Y-58.825
X128.8Y-95.0
X129.2Y-54.7
X129.5Y-57.55
X129.7Y-93.1
X130.0Y-64.4
X130.1Y-84.5
X130.1Y-86.3
X130.272Y-54.65
X130.3Y-99.4
X130.7Y-61.3
X130.8Y-57.6
X131.1Y-82.5
X131.2Y-106.9
X131.2Y-117.4
X131.7Y-54.7
X131.8Y-56.2
X131.805Y-56.955
X132.3Y-65.2
X132.5Y-87.4
X132.5Y-88.2
X132.6Y-96.8
X132.75Y-58.625
X132.8Y-57.925
X132.922Y-94.8
X133.025Y-91.703
X133.2Y-81.1
X133.4Y-60.9
X133.4Y-67.8
X133.489Y-89.811
X133.6Y-92.3
X133.7Y-84.5
X133.8Y-55.2
X133.999Y-95.399
X134.1Y-102.6
X134.1Y-107.0
X134.2Y-92.9
X134.3Y-90.5
X134.7Y-68.8
X134.9Y-89.8
X134.9Y-95.35
X135.2Y-58.5
X135.2Y-78.7
X135.2Y-112.4
X135.3Y-86.9
X135.3Y-119.0
X135.7Y-83.0
X135.75Y-91.1
X135.9Y-126.2
X136.0Y-56.4
X136.0Y-58.5
X136.1Y-94.25
X136.3Y-95.4
X136.5Y-93.5
X136.6Y-65.0
X136.6Y-86.2
X136.761Y-58.539
X136.8Y-116.03
X136.9Y-67.25
X137.0Y-63.6
X137.0Y-75.4
X137.0Y-83.0
X137.0Y-98.5
X137.2Y-110.6
X137.3Y-66.6
X137.5Y-73.5
X137.6Y-68.8
X137.7Y-116.03
X137.9Y-107.4
X138.0Y-59.6
X138.369Y-55.6
X138.4Y-98.0
X138.5Y-61.0
X138.5Y-102.0
X138.7Y-90.9
X139.1Y-70.1
X139.2Y-112.4
X139.5Y-60.1
X139.5Y-64.7
X139.5Y-74.9
X139.6Y-53.9
X139.6Y-56.6
X139.8Y-87.4
X139.8Y-102.3
X140.1Y-104.4
X140.2Y-109.7
X140.3Y-60.5
X140.3Y-83.4
X140.4Y-100.0
X141.0Y-61.4
X141.0Y-88.7
X141.4Y-73.5
X141.5Y-101.0
X141.6Y-92.9
X142.3Y-75.0
X142.3Y-92.25
X142.4Y-59.4
X142.4Y-85.4
X142.4Y-121.2
X142.5Y-67.9
X142.8Y-60.7
X142.9Y-73.0
X142.9Y-105.9
X142.9Y-117.3
X143.0Y-56.7
X143.0Y-97.3
X143.0Y-99.0
X143.0Y-126.6
X143.1Y-91.3
X143.2Y-80.8
X143.4Y-60.1
X143.545Y-57.3
X143.7Y-62.0
X144.0Y-53.9
X144.2Y-57.85
X144.8Y-54.6
X144.8Y-108.0
X144.8Y-112.9
X144.8Y-115.6
X145.0Y-63.2
X145.0Y-64.7
X145.0Y-66.2
X145.0Y-89.7
X145.1Y-119.5
X145.2Y-91.3
X145.6Y-78.5
X145.8Y-54.0
X145.8Y-55.6
X145.8Y-100.5
X145.9Y-102.7
X146.0Y-113.9
X146.1Y-94.2
X146.3Y-58.0
X146.3Y-59.6
X146.4Y-97.6
X146.5Y-87.9
X147.0Y-83.1
X147.099Y-105.65
X147.099Y-107.425
X147.25Y-77.75
X147.9Y-66.1
X148.0Y-54.4
X148.0Y-126.7
X148.1Y-57.9
X148.1Y-58.8
X148.1Y-60.3
X148.1Y-61.9
X148.2Y-118.0
X149.0Y-105.4
X149.1Y-119.4
X149.15Y-108.5
X149.2Y-107.5
X149.3Y-75.7
X149.769Y-122.717
X150.3Y-61.2
X150.383Y-107.5
X150.4Y-115.4
X150.6Y-58.4
X150.9Y-119.4
X150.9Y-122.723
X151.0Y-64.4
X151.1Y-84.4
X151.1Y-89.5
X152.1Y-104.5
X152.1Y-126.8
X152.2Y-94.0
X153.0Y-81.9
X153.1Y-59.2
X153.2Y-105.5
X153.4Y-118.6
X153.5Y-97.5
X153.8Y-61.65
X153.8Y-63.2
X153.9Y-84.9
X154.0Y-112.2
X154.0Y-115.7
X154.1Y-101.6
X154.3Y-57.3
X154.7Y-83.4
X154.8Y-103.5
X155.2Y-77.3
X155.2Y-90.9
X155.2Y-92.4
X155.2Y-93.9
X155.4Y-56.7
X155.5Y-103.8
X155.8Y-104.5
X156.05Y-64.65
X156.2Y-87.6
X156.4Y-109.6
X156.4Y-117.9
X156.5Y-81.4
X156.5Y-85.5
X156.7Y-73.2
X156.7Y-126.8
X156.8Y-53.8
X157.5Y-115.4
X157.9Y-69.7
X158.0Y-100.0
X158.8Y-55.9
X158.8Y-85.8
X158.9Y-58.9
X159.0Y-77.8
X159.1Y-62.0
X159.2Y-113.5
X160.0Y-97.0
X160.4Y-119.0
X160.6Y-64.8
X160.6Y-93.1
X160.7Y-85.8
X160.9Y-81.9
X160.96Y-87.94
X161.0Y-111.6
X161.1Y-115.8
X161.4Y-106.9
X161.5Y-81.9
X161.5Y-93.1
X161.6Y-77.8
X161.8Y-61.0
X161.9Y-74.0
X162.1Y-81.9
X162.6Y-103.2
X162.8Y-68.1
X163.1Y-126.9
X163.5Y-58.9
X163.9Y-54.4
X163.9Y-69.7
X163.9Y-77.8
X163.9Y-91.8
X164.0Y-56.7
X164.0Y-90.9
X164.0Y-94.2
X164.2Y-85.8
X164.2Y-99.8
X164.2Y-108.7
X164.4Y-61.1
X164.7Y-55.6
X165.1Y-109.6
X165.2Y-120.7
X165.6Y-116.375
X165.8Y-64.4
X165.8Y-105.7
X166.1Y-67.1
X166.2Y-116.375
X166.3Y-90.7
X166.3Y-125.1
X166.4Y-95.7
X166.7Y-118.5
X166.8Y-116.375
X167.3Y-58.3
X167.5Y-79.8
X167.525Y-60.6
X167.7Y-113.5
X168.1Y-92.4
X168.1Y-94.0
X168.8Y-89.6
X169.1Y-102.0
X169.7Y-97.1
X170.2Y-118.5
X170.3Y-64.0
X170.4Y-84.6
X170.7Y-55.4
X170.7Y-57.0
X171.1Y-105.4
X172.2Y-81.2
X172.3Y-101.9
X172.7Y-93.3
X172.825Y-60.6
X172.9Y-98.4
X173.3Y-108.1
X173.7Y-116.7
X174.5Y-111.5
X176.2Y-89.8
X176.3Y-110.0
X176.4Y-100.5
X176.4Y-102.5
X176.6Y-54.5
X176.8Y-97.3
X176.9Y-106.9
T2
X132.0Y-115.3
X134.1Y-115.3
X140.6Y-126.5
X144.0Y-84.5
X146.1Y-84.5
X157.0Y-101.5
X159.0Y-101.5
X167.5Y-121.4
X169.5Y-121.4
X171.0Y-101.0
T4
X127.418Y-82.582
X128.316Y-81.684
X129.214Y-80.786
X130.112Y-79.888
X131.01Y-78.99
X131.908Y-78.092
X132.806Y-77.194
X133.704Y-76.296
X134.602Y-75.398
X135.5Y-74.5
X144.285Y-68.5
X144.285Y-74.5
X145.555Y-68.5
X145.555Y-74.5
X146.825Y-68.5
X146.825Y-74.5
X148.095Y-68.5
X148.095Y-74.5
X149.365Y-68.5
X149.365Y-74.5
X150.635Y-68.5
X150.635Y-74.5
X151.905Y-68.5
X151.905Y-74.5
X153.175Y-68.5
X153.175Y-74.5
X154.445Y-68.5
X154.445Y-74.5
X155.715Y-68.5
X155.715Y-74.5
T5
X125.0Y-90.42
X125.0Y-92.96
X125.0Y-95.5
X125.0Y-98.04
X125.0Y-100.58
X129.1Y-105.62
X129.1Y-108.16
X129.1Y-110.7
X129.1Y-113.24
X129.1Y-115.78
X133.4Y-118.825
X133.4Y-121.365
X137.2Y-120.625
X137.2Y-123.165
X157.74Y-79.55
X160.28Y-79.55
X162.82Y-79.55
X165.36Y-79.55
T3
G00X145.68Y-121.77
M15
G01X145.68Y-122.87
M16
G05
G00X145.68Y-126.1
M15
G01X145.68Y-126.9
M16
G05
G00X154.32Y-121.77
M15
G01X154.32Y-122.87
M16
G05
G00X154.32Y-126.1
M15
G01X154.32Y-126.9
M16
G05
M30
