%TF.GenerationSoftware,KiCad,Pcbnew,10.0.1*%
%TF.CreationDate,2026-05-20T22:50:06+02:00*%
%TF.ProjectId,SparrowCompass,53706172-726f-4774-936f-6d706173732e,rev?*%
%TF.SameCoordinates,Original*%
%TF.FileFunction,Paste,Top*%
%TF.FilePolarity,Positive*%
%FSLAX46Y46*%
G04 Gerber Fmt 4.6, Leading zero omitted, Abs format (unit mm)*
G04 Created by KiCad (PCBNEW 10.0.1) date 2026-05-20 22:50:06*
%MOMM*%
%LPD*%
G01*
G04 APERTURE LIST*
G04 Aperture macros list*
%AMRoundRect*
0 Rectangle with rounded corners*
0 $1 Rounding radius*
0 $2 $3 $4 $5 $6 $7 $8 $9 X,Y pos of 4 corners*
0 Add a 4 corners polygon primitive as box body*
4,1,4,$2,$3,$4,$5,$6,$7,$8,$9,$2,$3,0*
0 Add four circle primitives for the rounded corners*
1,1,$1+$1,$2,$3*
1,1,$1+$1,$4,$5*
1,1,$1+$1,$6,$7*
1,1,$1+$1,$8,$9*
0 Add four rect primitives between the rounded corners*
20,1,$1+$1,$2,$3,$4,$5,0*
20,1,$1+$1,$4,$5,$6,$7,0*
20,1,$1+$1,$6,$7,$8,$9,0*
20,1,$1+$1,$8,$9,$2,$3,0*%
%AMRotRect*
0 Rectangle, with rotation*
0 The origin of the aperture is its center*
0 $1 length*
0 $2 width*
0 $3 Rotation angle, in degrees counterclockwise*
0 Add horizontal line*
21,1,$1,$2,0,0,$3*%
G04 Aperture macros list end*
%ADD10RoundRect,0.200000X0.200000X0.275000X-0.200000X0.275000X-0.200000X-0.275000X0.200000X-0.275000X0*%
%ADD11RoundRect,0.200000X-0.200000X-0.275000X0.200000X-0.275000X0.200000X0.275000X-0.200000X0.275000X0*%
%ADD12R,0.800000X1.800000*%
%ADD13RoundRect,0.200000X0.275000X-0.200000X0.275000X0.200000X-0.275000X0.200000X-0.275000X-0.200000X0*%
%ADD14RoundRect,0.225000X-0.225000X-0.250000X0.225000X-0.250000X0.225000X0.250000X-0.225000X0.250000X0*%
%ADD15RoundRect,0.225000X-0.250000X0.225000X-0.250000X-0.225000X0.250000X-0.225000X0.250000X0.225000X0*%
%ADD16R,0.400000X0.400000*%
%ADD17RoundRect,0.225000X0.250000X-0.225000X0.250000X0.225000X-0.250000X0.225000X-0.250000X-0.225000X0*%
%ADD18R,0.950000X2.750000*%
%ADD19R,3.250000X2.750000*%
%ADD20RoundRect,0.200000X-0.275000X0.200000X-0.275000X-0.200000X0.275000X-0.200000X0.275000X0.200000X0*%
%ADD21R,0.600000X0.300000*%
%ADD22RoundRect,0.250000X0.785000X0.945000X-0.785000X0.945000X-0.785000X-0.945000X0.785000X-0.945000X0*%
%ADD23RoundRect,0.250000X0.945000X-0.785000X0.945000X0.785000X-0.945000X0.785000X-0.945000X-0.785000X0*%
%ADD24RoundRect,0.100000X0.100000X-0.175000X0.100000X0.175000X-0.100000X0.175000X-0.100000X-0.175000X0*%
%ADD25RoundRect,0.100000X0.175000X-0.100000X0.175000X0.100000X-0.175000X0.100000X-0.175000X-0.100000X0*%
%ADD26R,1.200000X2.500000*%
%ADD27RoundRect,0.075000X-0.075000X-0.075000X0.075000X-0.075000X0.075000X0.075000X-0.075000X0.075000X0*%
%ADD28RoundRect,0.250000X-0.945000X0.785000X-0.945000X-0.785000X0.945000X-0.785000X0.945000X0.785000X0*%
%ADD29RoundRect,0.218750X-0.256250X0.218750X-0.256250X-0.218750X0.256250X-0.218750X0.256250X0.218750X0*%
%ADD30R,0.812800X0.254000*%
%ADD31R,0.254000X0.812800*%
%ADD32R,1.752600X1.752600*%
%ADD33R,0.500000X1.600000*%
%ADD34RoundRect,0.225000X0.225000X0.250000X-0.225000X0.250000X-0.225000X-0.250000X0.225000X-0.250000X0*%
%ADD35RotRect,0.700000X0.750000X45.000000*%
%ADD36RoundRect,0.250000X-0.785000X-0.945000X0.785000X-0.945000X0.785000X0.945000X-0.785000X0.945000X0*%
%ADD37R,0.600000X1.150000*%
%ADD38R,0.300000X1.150000*%
%ADD39RoundRect,0.250000X0.250000X-0.275000X0.250000X0.275000X-0.250000X0.275000X-0.250000X-0.275000X0*%
%ADD40RoundRect,0.250000X0.275000X-0.850000X0.275000X0.850000X-0.275000X0.850000X-0.275000X-0.850000X0*%
%ADD41R,0.350000X0.230000*%
%ADD42R,0.230000X0.350000*%
%ADD43RoundRect,0.075000X-0.075000X0.662500X-0.075000X-0.662500X0.075000X-0.662500X0.075000X0.662500X0*%
%ADD44RoundRect,0.075000X-0.662500X0.075000X-0.662500X-0.075000X0.662500X-0.075000X0.662500X0.075000X0*%
%ADD45RoundRect,0.218750X-0.218750X-0.256250X0.218750X-0.256250X0.218750X0.256250X-0.218750X0.256250X0*%
%ADD46R,1.450000X0.850000*%
%ADD47R,1.600000X2.000000*%
G04 APERTURE END LIST*
D10*
%TO.C,R54*%
X144025000Y-63200000D03*
X142375000Y-63200000D03*
%TD*%
%TO.C,R53*%
X142325000Y-63200000D03*
X140675000Y-63200000D03*
%TD*%
D11*
%TO.C,R52*%
X140675000Y-64700000D03*
X142325000Y-64700000D03*
%TD*%
%TO.C,R51*%
X142375000Y-64700000D03*
X144025000Y-64700000D03*
%TD*%
D10*
%TO.C,R50*%
X144025000Y-66200000D03*
X142375000Y-66200000D03*
%TD*%
%TO.C,R49*%
X142325000Y-66200000D03*
X140675000Y-66200000D03*
%TD*%
D12*
%TO.C,IC1*%
X148800000Y-54400000D03*
X149900000Y-54400000D03*
X151000000Y-54400000D03*
X152100000Y-54400000D03*
X153200000Y-54400000D03*
X154300000Y-54400000D03*
X155400000Y-54400000D03*
X158400000Y-54400000D03*
X159500000Y-54400000D03*
X160600000Y-54400000D03*
X161700000Y-54400000D03*
X162800000Y-54400000D03*
X162800000Y-66400000D03*
X161700000Y-66400000D03*
X160600000Y-66400000D03*
X159500000Y-66400000D03*
X158400000Y-66400000D03*
X155400000Y-66400000D03*
X154300000Y-66400000D03*
X153200000Y-66400000D03*
X152100000Y-66400000D03*
X151000000Y-66400000D03*
X149900000Y-66400000D03*
X148800000Y-66400000D03*
%TD*%
D13*
%TO.C,R12*%
X128250000Y-56100000D03*
X128250000Y-57750000D03*
%TD*%
D14*
%TO.C,C13*%
X131525000Y-58675000D03*
X129975000Y-58675000D03*
%TD*%
D15*
%TO.C,C14*%
X132800000Y-56700000D03*
X132800000Y-55150000D03*
%TD*%
D16*
%TO.C,IC2*%
X130050000Y-55425000D03*
X130550000Y-55425000D03*
X131100000Y-55425000D03*
X131100000Y-55925000D03*
X131100000Y-56425000D03*
X131100000Y-56925000D03*
X130550000Y-56925000D03*
X130050000Y-56925000D03*
X129500000Y-56925000D03*
X129500000Y-56425000D03*
X129500000Y-55925000D03*
X129500000Y-55425000D03*
%TD*%
D10*
%TO.C,R48*%
X169625000Y-55435000D03*
X167975000Y-55435000D03*
%TD*%
%TO.C,R47*%
X169625000Y-57000000D03*
X167975000Y-57000000D03*
%TD*%
D17*
%TO.C,C24*%
X129750000Y-95775000D03*
X129750000Y-94225000D03*
%TD*%
D15*
%TO.C,C16*%
X154800000Y-61625000D03*
X154800000Y-63175000D03*
%TD*%
D18*
%TO.C,IC9*%
X166200000Y-109600000D03*
X168500000Y-109600000D03*
X170800000Y-109600000D03*
D19*
X168500000Y-104400000D03*
%TD*%
D11*
%TO.C,R38*%
X165175000Y-94000000D03*
X166825000Y-94000000D03*
%TD*%
D20*
%TO.C,R39*%
X161500000Y-94175000D03*
X161500000Y-95825000D03*
%TD*%
D21*
%TO.C,IC4*%
X148400000Y-107000000D03*
X148400000Y-107500000D03*
X148400000Y-108000000D03*
X148400000Y-108500000D03*
X148400000Y-109000000D03*
X149800000Y-109000000D03*
X149800000Y-108500000D03*
X149800000Y-108000000D03*
X149800000Y-107500000D03*
X149800000Y-107000000D03*
%TD*%
D11*
%TO.C,R46*%
X138775000Y-58800000D03*
X140425000Y-58800000D03*
%TD*%
D22*
%TO.C,C39*%
X161470000Y-83400000D03*
X156530000Y-83400000D03*
%TD*%
D10*
%TO.C,R23*%
X162825000Y-101500000D03*
X161175000Y-101500000D03*
%TD*%
D14*
%TO.C,C17*%
X145525000Y-58800000D03*
X147075000Y-58800000D03*
%TD*%
D11*
%TO.C,R36*%
X156175000Y-93900000D03*
X157825000Y-93900000D03*
%TD*%
D22*
%TO.C,C34*%
X170970000Y-113500000D03*
X166030000Y-113500000D03*
%TD*%
D13*
%TO.C,R42*%
X140900000Y-55525000D03*
X140900000Y-53875000D03*
%TD*%
D20*
%TO.C,R16*%
X165150000Y-90725000D03*
X165150000Y-92375000D03*
%TD*%
D23*
%TO.C,C38*%
X142900000Y-107870000D03*
X142900000Y-102930000D03*
%TD*%
D24*
%TO.C,U1*%
X135925000Y-65700000D03*
X136575000Y-65700000D03*
X137225000Y-65700000D03*
X137875000Y-65700000D03*
D25*
X138600000Y-64975000D03*
X138600000Y-64325000D03*
X138600000Y-63675000D03*
X138600000Y-63025000D03*
D24*
X137875000Y-62300000D03*
X137225000Y-62300000D03*
X136575000Y-62300000D03*
X135925000Y-62300000D03*
D25*
X135200000Y-63025000D03*
X135200000Y-63675000D03*
X135200000Y-64325000D03*
X135200000Y-64975000D03*
%TD*%
D17*
%TO.C,C30*%
X133400000Y-63525000D03*
X133400000Y-61975000D03*
%TD*%
D13*
%TO.C,R17*%
X165200000Y-95675000D03*
X165200000Y-94025000D03*
%TD*%
D20*
%TO.C,R24*%
X138600000Y-67150000D03*
X138600000Y-68800000D03*
%TD*%
D26*
%TO.C,S1*%
X158500000Y-122725000D03*
X161000000Y-122725000D03*
X163500000Y-122725000D03*
%TD*%
D27*
%TO.C,U2*%
X149650000Y-119925000D03*
X150350000Y-119925000D03*
X150000000Y-119075000D03*
%TD*%
D13*
%TO.C,R44*%
X143200000Y-55522383D03*
X143200000Y-53872383D03*
%TD*%
D11*
%TO.C,R20*%
X143875000Y-87900000D03*
X145525000Y-87900000D03*
%TD*%
D28*
%TO.C,C32*%
X142900000Y-110630000D03*
X142900000Y-115570000D03*
%TD*%
D29*
%TO.C,D7*%
X141400000Y-122912500D03*
X141400000Y-124487500D03*
%TD*%
D20*
%TO.C,R35*%
X153000000Y-79175000D03*
X153000000Y-80825000D03*
%TD*%
D14*
%TO.C,C21*%
X140225000Y-97250000D03*
X141775000Y-97250000D03*
%TD*%
D30*
%TO.C,U4*%
X162973200Y-91250001D03*
X162973200Y-90750000D03*
X162973200Y-90250000D03*
X162973200Y-89749999D03*
D31*
X162250001Y-89026800D03*
X161750000Y-89026800D03*
X161250000Y-89026800D03*
X160749999Y-89026800D03*
D30*
X160026800Y-89749999D03*
X160026800Y-90250000D03*
X160026800Y-90750000D03*
X160026800Y-91250001D03*
D31*
X160749999Y-91973200D03*
X161250000Y-91973200D03*
X161750000Y-91973200D03*
X162250001Y-91973200D03*
D32*
X161500000Y-90500000D03*
%TD*%
D33*
%TO.C,D1*%
X140400000Y-73525000D03*
X139500000Y-73525000D03*
X138600000Y-73525000D03*
X138600000Y-76475000D03*
X139500000Y-76475000D03*
X140400000Y-76475000D03*
%TD*%
D11*
%TO.C,R41*%
X139275000Y-55600000D03*
X140925000Y-55600000D03*
%TD*%
D20*
%TO.C,R33*%
X149900000Y-111275000D03*
X149900000Y-112925000D03*
%TD*%
D17*
%TO.C,C15*%
X146700000Y-55600000D03*
X146700000Y-54050000D03*
%TD*%
D34*
%TO.C,C11*%
X154775000Y-106500000D03*
X153225000Y-106500000D03*
%TD*%
D20*
%TO.C,R31*%
X145900000Y-103575000D03*
X145900000Y-105225000D03*
%TD*%
D14*
%TO.C,C9*%
X173725000Y-100500000D03*
X175275000Y-100500000D03*
%TD*%
D28*
%TO.C,C7*%
X174500000Y-105030000D03*
X174500000Y-109970000D03*
%TD*%
D35*
%TO.C,Y1*%
X135669150Y-84376256D03*
X136623744Y-85330850D03*
X137330850Y-84623744D03*
X136376256Y-83669150D03*
%TD*%
D15*
%TO.C,C31*%
X133400000Y-65225000D03*
X133400000Y-66775000D03*
%TD*%
D14*
%TO.C,C22*%
X140225000Y-98980000D03*
X141775000Y-98980000D03*
%TD*%
D15*
%TO.C,C20*%
X142250000Y-89725000D03*
X142250000Y-91275000D03*
%TD*%
D17*
%TO.C,C23*%
X128000000Y-95775000D03*
X128000000Y-94225000D03*
%TD*%
D34*
%TO.C,C18*%
X132775000Y-84520000D03*
X131225000Y-84520000D03*
%TD*%
D18*
%TO.C,IC8*%
X157700000Y-109600000D03*
X160000000Y-109600000D03*
X162300000Y-109600000D03*
D19*
X160000000Y-104400000D03*
%TD*%
D14*
%TO.C,C27*%
X138725000Y-82500000D03*
X140275000Y-82500000D03*
%TD*%
%TO.C,C26*%
X132225000Y-82500000D03*
X133775000Y-82500000D03*
%TD*%
D23*
%TO.C,C44*%
X136000000Y-59900000D03*
X136000000Y-54960000D03*
%TD*%
D36*
%TO.C,C37*%
X163530000Y-118500000D03*
X168470000Y-118500000D03*
%TD*%
D34*
%TO.C,C25*%
X132775000Y-86250000D03*
X131225000Y-86250000D03*
%TD*%
D14*
%TO.C,C41*%
X156225000Y-90900000D03*
X157775000Y-90900000D03*
%TD*%
D10*
%TO.C,R27*%
X133425000Y-109000000D03*
X131775000Y-109000000D03*
%TD*%
D20*
%TO.C,R34*%
X130500000Y-119075000D03*
X130500000Y-120725000D03*
%TD*%
%TO.C,R40*%
X160000000Y-94175000D03*
X160000000Y-95825000D03*
%TD*%
D22*
%TO.C,C33*%
X162470000Y-113500000D03*
X157530000Y-113500000D03*
%TD*%
D29*
%TO.C,D8*%
X143400000Y-122912500D03*
X143400000Y-124487500D03*
%TD*%
D10*
%TO.C,R22*%
X159325000Y-119000000D03*
X157675000Y-119000000D03*
%TD*%
D15*
%TO.C,C29*%
X135900000Y-67225000D03*
X135900000Y-68775000D03*
%TD*%
D10*
%TO.C,R43*%
X144825000Y-55600000D03*
X143175000Y-55600000D03*
%TD*%
D13*
%TO.C,R32*%
X148300000Y-112925000D03*
X148300000Y-111275000D03*
%TD*%
%TO.C,R13*%
X147000000Y-66125000D03*
X147000000Y-64475000D03*
%TD*%
D15*
%TO.C,C19*%
X144000000Y-89725000D03*
X144000000Y-91275000D03*
%TD*%
D37*
%TO.C,J3*%
X146800000Y-121745000D03*
X147600000Y-121745000D03*
D38*
X148750000Y-121745000D03*
X149750000Y-121745000D03*
X150250000Y-121745000D03*
X151250000Y-121745000D03*
D37*
X153200000Y-121745000D03*
X152400000Y-121745000D03*
D38*
X151750000Y-121745000D03*
X150750000Y-121745000D03*
X149250000Y-121745000D03*
X148250000Y-121745000D03*
%TD*%
D10*
%TO.C,R29*%
X133425000Y-112400000D03*
X131775000Y-112400000D03*
%TD*%
D14*
%TO.C,C43*%
X145525000Y-61877617D03*
X147075000Y-61877617D03*
%TD*%
%TO.C,C28*%
X145525000Y-57300000D03*
X147075000Y-57300000D03*
%TD*%
D28*
%TO.C,C10*%
X154000000Y-109030000D03*
X154000000Y-113970000D03*
%TD*%
D13*
%TO.C,R14*%
X147000000Y-80825000D03*
X147000000Y-79175000D03*
%TD*%
D20*
%TO.C,R25*%
X139490000Y-78675000D03*
X139490000Y-80325000D03*
%TD*%
%TO.C,R26*%
X137500000Y-78675000D03*
X137500000Y-80325000D03*
%TD*%
D39*
%TO.C,J2*%
X170125000Y-62125000D03*
D40*
X168650000Y-60600000D03*
X171600000Y-60600000D03*
%TD*%
D11*
%TO.C,R1*%
X152175000Y-119500000D03*
X153825000Y-119500000D03*
%TD*%
D34*
%TO.C,C40*%
X162275000Y-86750000D03*
X160725000Y-86750000D03*
%TD*%
D13*
%TO.C,R15*%
X164200000Y-88375000D03*
X164200000Y-86725000D03*
%TD*%
%TO.C,R18*%
X158800000Y-88375000D03*
X158800000Y-86725000D03*
%TD*%
D10*
%TO.C,R19*%
X157825000Y-92400000D03*
X156175000Y-92400000D03*
%TD*%
D23*
%TO.C,C35*%
X137200000Y-117400000D03*
X137200000Y-112460000D03*
%TD*%
D34*
%TO.C,C12*%
X154775000Y-104500000D03*
X153225000Y-104500000D03*
%TD*%
D14*
%TO.C,C45*%
X145525000Y-60300000D03*
X147075000Y-60300000D03*
%TD*%
D13*
%TO.C,R11*%
X138500000Y-101075000D03*
X138500000Y-99425000D03*
%TD*%
D15*
%TO.C,C36*%
X146000000Y-111325000D03*
X146000000Y-112875000D03*
%TD*%
D41*
%TO.C,IC6*%
X144125000Y-58395000D03*
D42*
X143545000Y-58425000D03*
X143115000Y-58425000D03*
X142685000Y-58425000D03*
X142255000Y-58425000D03*
D41*
X141675000Y-58395000D03*
X141675000Y-58825000D03*
X141675000Y-59255000D03*
X141675000Y-59685000D03*
X141675000Y-60115000D03*
X141675000Y-60545000D03*
X141675000Y-60975000D03*
X141675000Y-61405000D03*
D42*
X142255000Y-61375000D03*
X142685000Y-61375000D03*
X143115000Y-61375000D03*
X143545000Y-61375000D03*
D41*
X144125000Y-61405000D03*
X144125000Y-60975000D03*
X144125000Y-60545000D03*
X144125000Y-60115000D03*
X144125000Y-59685000D03*
X144125000Y-59255000D03*
X144125000Y-58825000D03*
%TD*%
D43*
%TO.C,U3*%
X138750000Y-88337500D03*
X138250000Y-88337500D03*
X137750000Y-88337500D03*
X137250000Y-88337500D03*
X136750000Y-88337500D03*
X136250000Y-88337500D03*
X135750000Y-88337500D03*
X135250000Y-88337500D03*
X134750000Y-88337500D03*
X134250000Y-88337500D03*
X133750000Y-88337500D03*
X133250000Y-88337500D03*
D44*
X131837500Y-89750000D03*
X131837500Y-90250000D03*
X131837500Y-90750000D03*
X131837500Y-91250000D03*
X131837500Y-91750000D03*
X131837500Y-92250000D03*
X131837500Y-92750000D03*
X131837500Y-93250000D03*
X131837500Y-93750000D03*
X131837500Y-94250000D03*
X131837500Y-94750000D03*
X131837500Y-95250000D03*
D43*
X133250000Y-96662500D03*
X133750000Y-96662500D03*
X134250000Y-96662500D03*
X134750000Y-96662500D03*
X135250000Y-96662500D03*
X135750000Y-96662500D03*
X136250000Y-96662500D03*
X136750000Y-96662500D03*
X137250000Y-96662500D03*
X137750000Y-96662500D03*
X138250000Y-96662500D03*
X138750000Y-96662500D03*
D44*
X140162500Y-95250000D03*
X140162500Y-94750000D03*
X140162500Y-94250000D03*
X140162500Y-93750000D03*
X140162500Y-93250000D03*
X140162500Y-92750000D03*
X140162500Y-92250000D03*
X140162500Y-91750000D03*
X140162500Y-91250000D03*
X140162500Y-90750000D03*
X140162500Y-90250000D03*
X140162500Y-89750000D03*
%TD*%
D45*
%TO.C,D6*%
X157712500Y-117000000D03*
X159287500Y-117000000D03*
%TD*%
D11*
%TO.C,R37*%
X165175000Y-92350000D03*
X166825000Y-92350000D03*
%TD*%
D15*
%TO.C,C42*%
X163000000Y-94225000D03*
X163000000Y-95775000D03*
%TD*%
D13*
%TO.C,R30*%
X146000000Y-109625000D03*
X146000000Y-107975000D03*
%TD*%
D46*
%TO.C,IC5*%
X156800000Y-54500000D03*
X156800000Y-55600000D03*
X156800000Y-56700000D03*
X156800000Y-57800000D03*
X156800000Y-58900000D03*
X156800000Y-60000000D03*
X156800000Y-61100000D03*
X156800000Y-62200000D03*
X156800000Y-63300000D03*
X165800000Y-63300000D03*
X165800000Y-62200000D03*
X165800000Y-61100000D03*
X165800000Y-60000000D03*
X165800000Y-58900000D03*
X165800000Y-57800000D03*
X165800000Y-56700000D03*
X165800000Y-55600000D03*
X165800000Y-54500000D03*
%TD*%
D47*
%TO.C,IC7*%
X148900000Y-82550000D03*
X151100000Y-82550000D03*
X151100000Y-77450000D03*
X148900000Y-77450000D03*
%TD*%
D11*
%TO.C,R2*%
X146175000Y-119500000D03*
X147825000Y-119500000D03*
%TD*%
D20*
%TO.C,R21*%
X141500000Y-78675000D03*
X141500000Y-80325000D03*
%TD*%
D10*
%TO.C,R28*%
X133425000Y-110700000D03*
X131775000Y-110700000D03*
%TD*%
D14*
%TO.C,C8*%
X173725000Y-102500000D03*
X175275000Y-102500000D03*
%TD*%
D11*
%TO.C,R45*%
X140425000Y-57300000D03*
X138775000Y-57300000D03*
%TD*%
M02*
