%TF.GenerationSoftware,KiCad,Pcbnew,10.0.1*%
%TF.CreationDate,2026-05-20T22:50:06+02:00*%
%TF.ProjectId,SparrowCompass,53706172-726f-4774-936f-6d706173732e,rev?*%
%TF.SameCoordinates,Original*%
%TF.FileFunction,Profile,NP*%
%FSLAX46Y46*%
G04 Gerber Fmt 4.6, Leading zero omitted, Abs format (unit mm)*
G04 Created by KiCad (PCBNEW 10.0.1) date 2026-05-20 22:50:06*
%MOMM*%
%LPD*%
G01*
G04 APERTURE LIST*
%TA.AperFunction,Profile*%
%ADD10C,0.050000*%
%TD*%
%TA.AperFunction,Profile*%
%ADD11C,0.010000*%
%TD*%
G04 APERTURE END LIST*
D10*
X122000000Y-53000000D02*
X122000000Y-58000000D01*
X122000000Y-58000000D02*
X135000000Y-71000000D01*
X122000000Y-100000000D02*
X122000000Y-85000000D01*
X122000001Y-115000000D02*
X122000000Y-100000000D01*
X122000001Y-115000000D02*
X135000000Y-128000001D01*
X126500000Y-57000000D02*
G75*
G02*
X123500000Y-57000000I-1500000J0D01*
G01*
X123500000Y-57000000D02*
G75*
G02*
X126500000Y-57000000I1500000J0D01*
G01*
X126500000Y-86000000D02*
G75*
G02*
X123500000Y-86000000I-1500000J0D01*
G01*
X123500000Y-86000000D02*
G75*
G02*
X126500000Y-86000000I1500000J0D01*
G01*
X126500000Y-114000000D02*
G75*
G02*
X123500000Y-114000000I-1500000J0D01*
G01*
X123500000Y-114000000D02*
G75*
G02*
X126500000Y-114000000I1500000J0D01*
G01*
X134500000Y-100000000D02*
G75*
G02*
X131500000Y-100000000I-1500000J0D01*
G01*
X131500000Y-100000000D02*
G75*
G02*
X134500000Y-100000000I1500000J0D01*
G01*
X135000000Y-71000000D02*
X146500000Y-71000000D01*
X134999999Y-72000001D02*
X122000000Y-85000000D01*
X135000000Y-128000001D02*
X165000000Y-128000000D01*
X146500000Y-71000000D02*
G75*
G02*
X147000000Y-71500000I0J-500000D01*
G01*
X146500000Y-72000000D02*
X135000000Y-72000000D01*
X147000000Y-71500000D02*
G75*
G02*
X146500000Y-72000000I-500000J0D01*
G01*
X153000000Y-100000000D02*
G75*
G02*
X147000000Y-100000000I-3000000J0D01*
G01*
X147000000Y-100000000D02*
G75*
G02*
X153000000Y-100000000I3000000J0D01*
G01*
X153000000Y-71500000D02*
G75*
G02*
X153500000Y-71000000I500000J0D01*
G01*
X153500000Y-71000000D02*
X165000000Y-71000000D01*
X153500000Y-72000000D02*
G75*
G02*
X153000000Y-71500000I0J500000D01*
G01*
X165000000Y-71000000D02*
X178000000Y-58000000D01*
X165000000Y-72000000D02*
X153500000Y-72000000D01*
X165000000Y-128000000D02*
X178000000Y-115000000D01*
X168500000Y-100000000D02*
G75*
G02*
X165500000Y-100000000I-1500000J0D01*
G01*
X165500000Y-100000000D02*
G75*
G02*
X168500000Y-100000000I1500000J0D01*
G01*
X176500000Y-57000000D02*
G75*
G02*
X173500000Y-57000000I-1500000J0D01*
G01*
X173500000Y-57000000D02*
G75*
G02*
X176500000Y-57000000I1500000J0D01*
G01*
X176500000Y-86000000D02*
G75*
G02*
X173500000Y-86000000I-1500000J0D01*
G01*
X173500000Y-86000000D02*
G75*
G02*
X176500000Y-86000000I1500000J0D01*
G01*
X176500000Y-114000000D02*
G75*
G02*
X173500000Y-114000000I-1500000J0D01*
G01*
X173500000Y-114000000D02*
G75*
G02*
X176500000Y-114000000I1500000J0D01*
G01*
X178000000Y-53000000D02*
X122000000Y-53000000D01*
X178000000Y-58000000D02*
X178000000Y-53000000D01*
X178000000Y-85000000D02*
X165000000Y-72000000D01*
X178000000Y-85000000D02*
X178000000Y-115000000D01*
%TO.C,J3*%
D11*
X145380000Y-126900000D02*
X145380000Y-126100000D01*
X145980000Y-126100000D02*
X145980000Y-126900000D01*
X154020000Y-126900000D02*
X154020000Y-126100000D01*
X154620000Y-126100000D02*
X154620000Y-126900000D01*
X145380000Y-126100000D02*
G75*
G02*
X145680000Y-125800000I300000J0D01*
G01*
X145680000Y-125800000D02*
G75*
G02*
X145980000Y-126100000I0J-300000D01*
G01*
X145680000Y-127200000D02*
G75*
G02*
X145380000Y-126900000I0J300000D01*
G01*
X145980000Y-126900000D02*
G75*
G02*
X145680000Y-127200000I-300000J0D01*
G01*
X154020000Y-126100000D02*
G75*
G02*
X154320000Y-125800000I300000J0D01*
G01*
X154320000Y-125800000D02*
G75*
G02*
X154620000Y-126100000I0J-300000D01*
G01*
X154320000Y-127200000D02*
G75*
G02*
X154020000Y-126900000I0J300000D01*
G01*
X154620000Y-126900000D02*
G75*
G02*
X154320000Y-127200000I-300000J0D01*
G01*
%TD*%
M02*
