%TF.GenerationSoftware,KiCad,Pcbnew,10.0.1*%
%TF.CreationDate,2026-05-20T22:50:06+02:00*%
%TF.ProjectId,SparrowCompass,53706172-726f-4774-936f-6d706173732e,rev?*%
%TF.SameCoordinates,Original*%
%TF.FileFunction,Soldermask,Bot*%
%TF.FilePolarity,Negative*%
%FSLAX46Y46*%
G04 Gerber Fmt 4.6, Leading zero omitted, Abs format (unit mm)*
G04 Created by KiCad (PCBNEW 10.0.1) date 2026-05-20 22:50:06*
%MOMM*%
%LPD*%
G01*
G04 APERTURE LIST*
G04 Aperture macros list*
%AMRotRect*
0 Rectangle, with rotation*
0 The origin of the aperture is its center*
0 $1 length*
0 $2 width*
0 $3 Rotation angle, in degrees counterclockwise*
0 Add horizontal line*
21,1,$1,$2,0,0,$3*%
G04 Aperture macros list end*
%ADD10C,0.010000*%
%ADD11C,1.700000*%
%ADD12R,1.700000X1.700000*%
%ADD13C,1.000000*%
%ADD14R,1.000000X1.000000*%
%ADD15C,0.900000*%
%ADD16C,0.650000*%
%ADD17O,1.204000X2.304000*%
%ADD18RotRect,1.000000X1.000000X315.000000*%
G04 APERTURE END LIST*
D10*
%TO.C,J3*%
X145711000Y-125501000D02*
X145743000Y-125503000D01*
X145774000Y-125507000D01*
X145805000Y-125513000D01*
X145835000Y-125520000D01*
X145865000Y-125529000D01*
X145895000Y-125540000D01*
X145924000Y-125552000D01*
X145952000Y-125565000D01*
X145980000Y-125580000D01*
X146007000Y-125597000D01*
X146033000Y-125615000D01*
X146058000Y-125634000D01*
X146081000Y-125654000D01*
X146104000Y-125676000D01*
X146126000Y-125699000D01*
X146146000Y-125722000D01*
X146165000Y-125747000D01*
X146183000Y-125773000D01*
X146200000Y-125800000D01*
X146215000Y-125828000D01*
X146228000Y-125856000D01*
X146240000Y-125885000D01*
X146251000Y-125915000D01*
X146260000Y-125945000D01*
X146267000Y-125975000D01*
X146273000Y-126006000D01*
X146277000Y-126037000D01*
X146279000Y-126069000D01*
X146280000Y-126100000D01*
X146280000Y-126500000D01*
X146280000Y-126900000D01*
X146279000Y-126931000D01*
X146277000Y-126963000D01*
X146273000Y-126994000D01*
X146267000Y-127025000D01*
X146260000Y-127055000D01*
X146251000Y-127085000D01*
X146240000Y-127115000D01*
X146228000Y-127144000D01*
X146215000Y-127172000D01*
X146200000Y-127200000D01*
X146183000Y-127227000D01*
X146165000Y-127253000D01*
X146146000Y-127278000D01*
X146126000Y-127301000D01*
X146104000Y-127324000D01*
X146081000Y-127346000D01*
X146058000Y-127366000D01*
X146033000Y-127385000D01*
X146007000Y-127403000D01*
X145980000Y-127420000D01*
X145952000Y-127435000D01*
X145924000Y-127448000D01*
X145895000Y-127460000D01*
X145865000Y-127471000D01*
X145835000Y-127480000D01*
X145805000Y-127487000D01*
X145774000Y-127493000D01*
X145743000Y-127497000D01*
X145711000Y-127499000D01*
X145680000Y-127500000D01*
X145649000Y-127499000D01*
X145617000Y-127497000D01*
X145586000Y-127493000D01*
X145555000Y-127487000D01*
X145525000Y-127480000D01*
X145495000Y-127471000D01*
X145465000Y-127460000D01*
X145436000Y-127448000D01*
X145408000Y-127435000D01*
X145380000Y-127420000D01*
X145353000Y-127403000D01*
X145327000Y-127385000D01*
X145302000Y-127366000D01*
X145279000Y-127346000D01*
X145256000Y-127324000D01*
X145234000Y-127301000D01*
X145214000Y-127278000D01*
X145195000Y-127253000D01*
X145177000Y-127227000D01*
X145160000Y-127200000D01*
X145145000Y-127172000D01*
X145132000Y-127144000D01*
X145120000Y-127115000D01*
X145109000Y-127085000D01*
X145100000Y-127055000D01*
X145093000Y-127025000D01*
X145087000Y-126994000D01*
X145083000Y-126963000D01*
X145081000Y-126931000D01*
X145080000Y-126900000D01*
X145080000Y-126500000D01*
X145080000Y-126100000D01*
X145081000Y-126069000D01*
X145083000Y-126037000D01*
X145087000Y-126006000D01*
X145093000Y-125975000D01*
X145100000Y-125945000D01*
X145109000Y-125915000D01*
X145120000Y-125885000D01*
X145132000Y-125856000D01*
X145145000Y-125828000D01*
X145160000Y-125800000D01*
X145177000Y-125773000D01*
X145195000Y-125747000D01*
X145214000Y-125722000D01*
X145234000Y-125699000D01*
X145256000Y-125676000D01*
X145279000Y-125654000D01*
X145302000Y-125634000D01*
X145327000Y-125615000D01*
X145353000Y-125597000D01*
X145380000Y-125580000D01*
X145408000Y-125565000D01*
X145436000Y-125552000D01*
X145465000Y-125540000D01*
X145495000Y-125529000D01*
X145525000Y-125520000D01*
X145555000Y-125513000D01*
X145586000Y-125507000D01*
X145617000Y-125503000D01*
X145649000Y-125501000D01*
X145680000Y-125500000D01*
X145711000Y-125501000D01*
G36*
X145711000Y-125501000D02*
G01*
X145743000Y-125503000D01*
X145774000Y-125507000D01*
X145805000Y-125513000D01*
X145835000Y-125520000D01*
X145865000Y-125529000D01*
X145895000Y-125540000D01*
X145924000Y-125552000D01*
X145952000Y-125565000D01*
X145980000Y-125580000D01*
X146007000Y-125597000D01*
X146033000Y-125615000D01*
X146058000Y-125634000D01*
X146081000Y-125654000D01*
X146104000Y-125676000D01*
X146126000Y-125699000D01*
X146146000Y-125722000D01*
X146165000Y-125747000D01*
X146183000Y-125773000D01*
X146200000Y-125800000D01*
X146215000Y-125828000D01*
X146228000Y-125856000D01*
X146240000Y-125885000D01*
X146251000Y-125915000D01*
X146260000Y-125945000D01*
X146267000Y-125975000D01*
X146273000Y-126006000D01*
X146277000Y-126037000D01*
X146279000Y-126069000D01*
X146280000Y-126100000D01*
X146280000Y-126500000D01*
X146280000Y-126900000D01*
X146279000Y-126931000D01*
X146277000Y-126963000D01*
X146273000Y-126994000D01*
X146267000Y-127025000D01*
X146260000Y-127055000D01*
X146251000Y-127085000D01*
X146240000Y-127115000D01*
X146228000Y-127144000D01*
X146215000Y-127172000D01*
X146200000Y-127200000D01*
X146183000Y-127227000D01*
X146165000Y-127253000D01*
X146146000Y-127278000D01*
X146126000Y-127301000D01*
X146104000Y-127324000D01*
X146081000Y-127346000D01*
X146058000Y-127366000D01*
X146033000Y-127385000D01*
X146007000Y-127403000D01*
X145980000Y-127420000D01*
X145952000Y-127435000D01*
X145924000Y-127448000D01*
X145895000Y-127460000D01*
X145865000Y-127471000D01*
X145835000Y-127480000D01*
X145805000Y-127487000D01*
X145774000Y-127493000D01*
X145743000Y-127497000D01*
X145711000Y-127499000D01*
X145680000Y-127500000D01*
X145649000Y-127499000D01*
X145617000Y-127497000D01*
X145586000Y-127493000D01*
X145555000Y-127487000D01*
X145525000Y-127480000D01*
X145495000Y-127471000D01*
X145465000Y-127460000D01*
X145436000Y-127448000D01*
X145408000Y-127435000D01*
X145380000Y-127420000D01*
X145353000Y-127403000D01*
X145327000Y-127385000D01*
X145302000Y-127366000D01*
X145279000Y-127346000D01*
X145256000Y-127324000D01*
X145234000Y-127301000D01*
X145214000Y-127278000D01*
X145195000Y-127253000D01*
X145177000Y-127227000D01*
X145160000Y-127200000D01*
X145145000Y-127172000D01*
X145132000Y-127144000D01*
X145120000Y-127115000D01*
X145109000Y-127085000D01*
X145100000Y-127055000D01*
X145093000Y-127025000D01*
X145087000Y-126994000D01*
X145083000Y-126963000D01*
X145081000Y-126931000D01*
X145080000Y-126900000D01*
X145080000Y-126500000D01*
X145080000Y-126100000D01*
X145081000Y-126069000D01*
X145083000Y-126037000D01*
X145087000Y-126006000D01*
X145093000Y-125975000D01*
X145100000Y-125945000D01*
X145109000Y-125915000D01*
X145120000Y-125885000D01*
X145132000Y-125856000D01*
X145145000Y-125828000D01*
X145160000Y-125800000D01*
X145177000Y-125773000D01*
X145195000Y-125747000D01*
X145214000Y-125722000D01*
X145234000Y-125699000D01*
X145256000Y-125676000D01*
X145279000Y-125654000D01*
X145302000Y-125634000D01*
X145327000Y-125615000D01*
X145353000Y-125597000D01*
X145380000Y-125580000D01*
X145408000Y-125565000D01*
X145436000Y-125552000D01*
X145465000Y-125540000D01*
X145495000Y-125529000D01*
X145525000Y-125520000D01*
X145555000Y-125513000D01*
X145586000Y-125507000D01*
X145617000Y-125503000D01*
X145649000Y-125501000D01*
X145680000Y-125500000D01*
X145711000Y-125501000D01*
G37*
X154351000Y-125501000D02*
X154383000Y-125503000D01*
X154414000Y-125507000D01*
X154445000Y-125513000D01*
X154475000Y-125520000D01*
X154505000Y-125529000D01*
X154535000Y-125540000D01*
X154564000Y-125552000D01*
X154592000Y-125565000D01*
X154620000Y-125580000D01*
X154647000Y-125597000D01*
X154673000Y-125615000D01*
X154698000Y-125634000D01*
X154721000Y-125654000D01*
X154744000Y-125676000D01*
X154766000Y-125699000D01*
X154786000Y-125722000D01*
X154805000Y-125747000D01*
X154823000Y-125773000D01*
X154840000Y-125800000D01*
X154855000Y-125828000D01*
X154868000Y-125856000D01*
X154880000Y-125885000D01*
X154891000Y-125915000D01*
X154900000Y-125945000D01*
X154907000Y-125975000D01*
X154913000Y-126006000D01*
X154917000Y-126037000D01*
X154919000Y-126069000D01*
X154920000Y-126100000D01*
X154920000Y-126500000D01*
X154920000Y-126900000D01*
X154919000Y-126931000D01*
X154917000Y-126963000D01*
X154913000Y-126994000D01*
X154907000Y-127025000D01*
X154900000Y-127055000D01*
X154891000Y-127085000D01*
X154880000Y-127115000D01*
X154868000Y-127144000D01*
X154855000Y-127172000D01*
X154840000Y-127200000D01*
X154823000Y-127227000D01*
X154805000Y-127253000D01*
X154786000Y-127278000D01*
X154766000Y-127301000D01*
X154744000Y-127324000D01*
X154721000Y-127346000D01*
X154698000Y-127366000D01*
X154673000Y-127385000D01*
X154647000Y-127403000D01*
X154620000Y-127420000D01*
X154592000Y-127435000D01*
X154564000Y-127448000D01*
X154535000Y-127460000D01*
X154505000Y-127471000D01*
X154475000Y-127480000D01*
X154445000Y-127487000D01*
X154414000Y-127493000D01*
X154383000Y-127497000D01*
X154351000Y-127499000D01*
X154320000Y-127500000D01*
X154289000Y-127499000D01*
X154257000Y-127497000D01*
X154226000Y-127493000D01*
X154195000Y-127487000D01*
X154165000Y-127480000D01*
X154135000Y-127471000D01*
X154105000Y-127460000D01*
X154076000Y-127448000D01*
X154048000Y-127435000D01*
X154020000Y-127420000D01*
X153993000Y-127403000D01*
X153967000Y-127385000D01*
X153942000Y-127366000D01*
X153919000Y-127346000D01*
X153896000Y-127324000D01*
X153874000Y-127301000D01*
X153854000Y-127278000D01*
X153835000Y-127253000D01*
X153817000Y-127227000D01*
X153800000Y-127200000D01*
X153785000Y-127172000D01*
X153772000Y-127144000D01*
X153760000Y-127115000D01*
X153749000Y-127085000D01*
X153740000Y-127055000D01*
X153733000Y-127025000D01*
X153727000Y-126994000D01*
X153723000Y-126963000D01*
X153721000Y-126931000D01*
X153720000Y-126900000D01*
X153720000Y-126500000D01*
X153720000Y-126100000D01*
X153721000Y-126069000D01*
X153723000Y-126037000D01*
X153727000Y-126006000D01*
X153733000Y-125975000D01*
X153740000Y-125945000D01*
X153749000Y-125915000D01*
X153760000Y-125885000D01*
X153772000Y-125856000D01*
X153785000Y-125828000D01*
X153800000Y-125800000D01*
X153817000Y-125773000D01*
X153835000Y-125747000D01*
X153854000Y-125722000D01*
X153874000Y-125699000D01*
X153896000Y-125676000D01*
X153919000Y-125654000D01*
X153942000Y-125634000D01*
X153967000Y-125615000D01*
X153993000Y-125597000D01*
X154020000Y-125580000D01*
X154048000Y-125565000D01*
X154076000Y-125552000D01*
X154105000Y-125540000D01*
X154135000Y-125529000D01*
X154165000Y-125520000D01*
X154195000Y-125513000D01*
X154226000Y-125507000D01*
X154257000Y-125503000D01*
X154289000Y-125501000D01*
X154320000Y-125500000D01*
X154351000Y-125501000D01*
G36*
X154351000Y-125501000D02*
G01*
X154383000Y-125503000D01*
X154414000Y-125507000D01*
X154445000Y-125513000D01*
X154475000Y-125520000D01*
X154505000Y-125529000D01*
X154535000Y-125540000D01*
X154564000Y-125552000D01*
X154592000Y-125565000D01*
X154620000Y-125580000D01*
X154647000Y-125597000D01*
X154673000Y-125615000D01*
X154698000Y-125634000D01*
X154721000Y-125654000D01*
X154744000Y-125676000D01*
X154766000Y-125699000D01*
X154786000Y-125722000D01*
X154805000Y-125747000D01*
X154823000Y-125773000D01*
X154840000Y-125800000D01*
X154855000Y-125828000D01*
X154868000Y-125856000D01*
X154880000Y-125885000D01*
X154891000Y-125915000D01*
X154900000Y-125945000D01*
X154907000Y-125975000D01*
X154913000Y-126006000D01*
X154917000Y-126037000D01*
X154919000Y-126069000D01*
X154920000Y-126100000D01*
X154920000Y-126500000D01*
X154920000Y-126900000D01*
X154919000Y-126931000D01*
X154917000Y-126963000D01*
X154913000Y-126994000D01*
X154907000Y-127025000D01*
X154900000Y-127055000D01*
X154891000Y-127085000D01*
X154880000Y-127115000D01*
X154868000Y-127144000D01*
X154855000Y-127172000D01*
X154840000Y-127200000D01*
X154823000Y-127227000D01*
X154805000Y-127253000D01*
X154786000Y-127278000D01*
X154766000Y-127301000D01*
X154744000Y-127324000D01*
X154721000Y-127346000D01*
X154698000Y-127366000D01*
X154673000Y-127385000D01*
X154647000Y-127403000D01*
X154620000Y-127420000D01*
X154592000Y-127435000D01*
X154564000Y-127448000D01*
X154535000Y-127460000D01*
X154505000Y-127471000D01*
X154475000Y-127480000D01*
X154445000Y-127487000D01*
X154414000Y-127493000D01*
X154383000Y-127497000D01*
X154351000Y-127499000D01*
X154320000Y-127500000D01*
X154289000Y-127499000D01*
X154257000Y-127497000D01*
X154226000Y-127493000D01*
X154195000Y-127487000D01*
X154165000Y-127480000D01*
X154135000Y-127471000D01*
X154105000Y-127460000D01*
X154076000Y-127448000D01*
X154048000Y-127435000D01*
X154020000Y-127420000D01*
X153993000Y-127403000D01*
X153967000Y-127385000D01*
X153942000Y-127366000D01*
X153919000Y-127346000D01*
X153896000Y-127324000D01*
X153874000Y-127301000D01*
X153854000Y-127278000D01*
X153835000Y-127253000D01*
X153817000Y-127227000D01*
X153800000Y-127200000D01*
X153785000Y-127172000D01*
X153772000Y-127144000D01*
X153760000Y-127115000D01*
X153749000Y-127085000D01*
X153740000Y-127055000D01*
X153733000Y-127025000D01*
X153727000Y-126994000D01*
X153723000Y-126963000D01*
X153721000Y-126931000D01*
X153720000Y-126900000D01*
X153720000Y-126500000D01*
X153720000Y-126100000D01*
X153721000Y-126069000D01*
X153723000Y-126037000D01*
X153727000Y-126006000D01*
X153733000Y-125975000D01*
X153740000Y-125945000D01*
X153749000Y-125915000D01*
X153760000Y-125885000D01*
X153772000Y-125856000D01*
X153785000Y-125828000D01*
X153800000Y-125800000D01*
X153817000Y-125773000D01*
X153835000Y-125747000D01*
X153854000Y-125722000D01*
X153874000Y-125699000D01*
X153896000Y-125676000D01*
X153919000Y-125654000D01*
X153942000Y-125634000D01*
X153967000Y-125615000D01*
X153993000Y-125597000D01*
X154020000Y-125580000D01*
X154048000Y-125565000D01*
X154076000Y-125552000D01*
X154105000Y-125540000D01*
X154135000Y-125529000D01*
X154165000Y-125520000D01*
X154195000Y-125513000D01*
X154226000Y-125507000D01*
X154257000Y-125503000D01*
X154289000Y-125501000D01*
X154320000Y-125500000D01*
X154351000Y-125501000D01*
G37*
%TD*%
D11*
%TO.C,J10*%
X129100000Y-105620000D03*
X129100000Y-108160000D03*
X129100000Y-110700001D03*
X129100000Y-113240000D03*
D12*
X129100000Y-115780000D03*
%TD*%
D13*
%TO.C,TP12*%
X132000000Y-115300000D03*
%TD*%
%TO.C,TP11*%
X169500000Y-121400000D03*
%TD*%
%TO.C,TP10*%
X140600000Y-126500000D03*
%TD*%
%TO.C,TP9*%
X167500000Y-121400000D03*
%TD*%
%TO.C,TP8*%
X134100000Y-115300000D03*
%TD*%
D12*
%TO.C,J1*%
X165360000Y-79550000D03*
D11*
X162820000Y-79550000D03*
X160280000Y-79550000D03*
X157740000Y-79550000D03*
%TD*%
D14*
%TO.C,J7*%
X144285000Y-68500000D03*
D13*
X145555000Y-68500000D03*
X146825000Y-68500000D03*
X148095000Y-68500000D03*
X149365000Y-68500000D03*
X150635000Y-68500000D03*
X151905000Y-68500000D03*
X153175000Y-68500000D03*
X154445000Y-68500000D03*
X155715000Y-68500000D03*
%TD*%
D15*
%TO.C,S1*%
X157600000Y-125475000D03*
X164400000Y-125475000D03*
%TD*%
D13*
%TO.C,TP6*%
X159000000Y-101500000D03*
%TD*%
D12*
%TO.C,J6*%
X125000000Y-100580000D03*
D11*
X125000000Y-98040000D03*
X125000000Y-95500000D03*
X125000000Y-92960000D03*
X125000000Y-90420000D03*
%TD*%
D12*
%TO.C,J4*%
X137200000Y-120625000D03*
D11*
X137200000Y-123165000D03*
%TD*%
D13*
%TO.C,TP3*%
X157000000Y-101500000D03*
%TD*%
D16*
%TO.C,J3*%
X147110000Y-122820000D03*
X152890000Y-122820000D03*
D17*
X145680000Y-122320000D03*
X154320000Y-122320000D03*
%TD*%
D13*
%TO.C,TP4*%
X171000000Y-101000000D03*
%TD*%
D18*
%TO.C,J9*%
X135500000Y-74500000D03*
D13*
X134601974Y-75398026D03*
X133703949Y-76296051D03*
X132805923Y-77194077D03*
X131907898Y-78092102D03*
X131009872Y-78990128D03*
X130111846Y-79888154D03*
X129213821Y-80786179D03*
X128315795Y-81684205D03*
X127417769Y-82582231D03*
%TD*%
D14*
%TO.C,J8*%
X144285000Y-74500000D03*
D13*
X145555000Y-74500000D03*
X146825000Y-74500000D03*
X148095000Y-74500000D03*
X149365000Y-74500000D03*
X150635000Y-74500000D03*
X151905000Y-74500000D03*
X153175000Y-74500000D03*
X154445000Y-74500000D03*
X155715000Y-74500000D03*
%TD*%
%TO.C,TP7*%
X146100000Y-84500000D03*
%TD*%
D12*
%TO.C,J5*%
X133400000Y-118825000D03*
D11*
X133400000Y-121365000D03*
%TD*%
D13*
%TO.C,TP5*%
X144000000Y-84500000D03*
%TD*%
M02*
