%TF.GenerationSoftware,KiCad,Pcbnew,9.0.4*%
%TF.CreationDate,2025-09-22T08:36:52+02:00*%
%TF.ProjectId,SparrowCompass,53706172-726f-4774-936f-6d706173732e,rev?*%
%TF.SameCoordinates,Original*%
%TF.FileFunction,Legend,Top*%
%TF.FilePolarity,Positive*%
%FSLAX46Y46*%
G04 Gerber Fmt 4.6, Leading zero omitted, Abs format (unit mm)*
G04 Created by KiCad (PCBNEW 9.0.4) date 2025-09-22 08:36:52*
%MOMM*%
%LPD*%
G01*
G04 APERTURE LIST*
%ADD10C,0.100000*%
%ADD11C,0.150000*%
%ADD12C,0.254000*%
%ADD13C,0.120000*%
%ADD14C,0.200000*%
%ADD15C,0.250000*%
G04 APERTURE END LIST*
D10*
X167911027Y-117622419D02*
X168244360Y-118622419D01*
X168244360Y-118622419D02*
X168577693Y-117622419D01*
X169244360Y-118098609D02*
X169387217Y-118146228D01*
X169387217Y-118146228D02*
X169434836Y-118193847D01*
X169434836Y-118193847D02*
X169482455Y-118289085D01*
X169482455Y-118289085D02*
X169482455Y-118431942D01*
X169482455Y-118431942D02*
X169434836Y-118527180D01*
X169434836Y-118527180D02*
X169387217Y-118574800D01*
X169387217Y-118574800D02*
X169291979Y-118622419D01*
X169291979Y-118622419D02*
X168911027Y-118622419D01*
X168911027Y-118622419D02*
X168911027Y-117622419D01*
X168911027Y-117622419D02*
X169244360Y-117622419D01*
X169244360Y-117622419D02*
X169339598Y-117670038D01*
X169339598Y-117670038D02*
X169387217Y-117717657D01*
X169387217Y-117717657D02*
X169434836Y-117812895D01*
X169434836Y-117812895D02*
X169434836Y-117908133D01*
X169434836Y-117908133D02*
X169387217Y-118003371D01*
X169387217Y-118003371D02*
X169339598Y-118050990D01*
X169339598Y-118050990D02*
X169244360Y-118098609D01*
X169244360Y-118098609D02*
X168911027Y-118098609D01*
X170339598Y-118622419D02*
X170339598Y-118098609D01*
X170339598Y-118098609D02*
X170291979Y-118003371D01*
X170291979Y-118003371D02*
X170196741Y-117955752D01*
X170196741Y-117955752D02*
X170006265Y-117955752D01*
X170006265Y-117955752D02*
X169911027Y-118003371D01*
X170339598Y-118574800D02*
X170244360Y-118622419D01*
X170244360Y-118622419D02*
X170006265Y-118622419D01*
X170006265Y-118622419D02*
X169911027Y-118574800D01*
X169911027Y-118574800D02*
X169863408Y-118479561D01*
X169863408Y-118479561D02*
X169863408Y-118384323D01*
X169863408Y-118384323D02*
X169911027Y-118289085D01*
X169911027Y-118289085D02*
X170006265Y-118241466D01*
X170006265Y-118241466D02*
X170244360Y-118241466D01*
X170244360Y-118241466D02*
X170339598Y-118193847D01*
X170672932Y-117955752D02*
X171053884Y-117955752D01*
X170815789Y-117622419D02*
X170815789Y-118479561D01*
X170815789Y-118479561D02*
X170863408Y-118574800D01*
X170863408Y-118574800D02*
X170958646Y-118622419D01*
X170958646Y-118622419D02*
X171053884Y-118622419D01*
X172577693Y-82872419D02*
X172006265Y-82872419D01*
X172291979Y-82872419D02*
X172291979Y-81872419D01*
X172291979Y-81872419D02*
X172196741Y-82015276D01*
X172196741Y-82015276D02*
X172101503Y-82110514D01*
X172101503Y-82110514D02*
X172006265Y-82158133D01*
X172911027Y-82205752D02*
X173149122Y-82872419D01*
X173149122Y-82872419D02*
X173387217Y-82205752D01*
X173672932Y-81872419D02*
X174339598Y-81872419D01*
X174339598Y-81872419D02*
X173911027Y-82872419D01*
X175196741Y-81872419D02*
X174720551Y-81872419D01*
X174720551Y-81872419D02*
X174672932Y-82348609D01*
X174672932Y-82348609D02*
X174720551Y-82300990D01*
X174720551Y-82300990D02*
X174815789Y-82253371D01*
X174815789Y-82253371D02*
X175053884Y-82253371D01*
X175053884Y-82253371D02*
X175149122Y-82300990D01*
X175149122Y-82300990D02*
X175196741Y-82348609D01*
X175196741Y-82348609D02*
X175244360Y-82443847D01*
X175244360Y-82443847D02*
X175244360Y-82681942D01*
X175244360Y-82681942D02*
X175196741Y-82777180D01*
X175196741Y-82777180D02*
X175149122Y-82824800D01*
X175149122Y-82824800D02*
X175053884Y-82872419D01*
X175053884Y-82872419D02*
X174815789Y-82872419D01*
X174815789Y-82872419D02*
X174720551Y-82824800D01*
X174720551Y-82824800D02*
X174672932Y-82777180D01*
X115625312Y-90527180D02*
X115577693Y-90574800D01*
X115577693Y-90574800D02*
X115434836Y-90622419D01*
X115434836Y-90622419D02*
X115339598Y-90622419D01*
X115339598Y-90622419D02*
X115196741Y-90574800D01*
X115196741Y-90574800D02*
X115101503Y-90479561D01*
X115101503Y-90479561D02*
X115053884Y-90384323D01*
X115053884Y-90384323D02*
X115006265Y-90193847D01*
X115006265Y-90193847D02*
X115006265Y-90050990D01*
X115006265Y-90050990D02*
X115053884Y-89860514D01*
X115053884Y-89860514D02*
X115101503Y-89765276D01*
X115101503Y-89765276D02*
X115196741Y-89670038D01*
X115196741Y-89670038D02*
X115339598Y-89622419D01*
X115339598Y-89622419D02*
X115434836Y-89622419D01*
X115434836Y-89622419D02*
X115577693Y-89670038D01*
X115577693Y-89670038D02*
X115625312Y-89717657D01*
X172458646Y-101372419D02*
X173077693Y-101372419D01*
X173077693Y-101372419D02*
X172744360Y-101753371D01*
X172744360Y-101753371D02*
X172887217Y-101753371D01*
X172887217Y-101753371D02*
X172982455Y-101800990D01*
X172982455Y-101800990D02*
X173030074Y-101848609D01*
X173030074Y-101848609D02*
X173077693Y-101943847D01*
X173077693Y-101943847D02*
X173077693Y-102181942D01*
X173077693Y-102181942D02*
X173030074Y-102277180D01*
X173030074Y-102277180D02*
X172982455Y-102324800D01*
X172982455Y-102324800D02*
X172887217Y-102372419D01*
X172887217Y-102372419D02*
X172601503Y-102372419D01*
X172601503Y-102372419D02*
X172506265Y-102324800D01*
X172506265Y-102324800D02*
X172458646Y-102277180D01*
X173363408Y-101372419D02*
X173696741Y-102372419D01*
X173696741Y-102372419D02*
X174030074Y-101372419D01*
X174268170Y-101372419D02*
X174887217Y-101372419D01*
X174887217Y-101372419D02*
X174553884Y-101753371D01*
X174553884Y-101753371D02*
X174696741Y-101753371D01*
X174696741Y-101753371D02*
X174791979Y-101800990D01*
X174791979Y-101800990D02*
X174839598Y-101848609D01*
X174839598Y-101848609D02*
X174887217Y-101943847D01*
X174887217Y-101943847D02*
X174887217Y-102181942D01*
X174887217Y-102181942D02*
X174839598Y-102277180D01*
X174839598Y-102277180D02*
X174791979Y-102324800D01*
X174791979Y-102324800D02*
X174696741Y-102372419D01*
X174696741Y-102372419D02*
X174411027Y-102372419D01*
X174411027Y-102372419D02*
X174315789Y-102324800D01*
X174315789Y-102324800D02*
X174268170Y-102277180D01*
X115577693Y-84670038D02*
X115482455Y-84622419D01*
X115482455Y-84622419D02*
X115339598Y-84622419D01*
X115339598Y-84622419D02*
X115196741Y-84670038D01*
X115196741Y-84670038D02*
X115101503Y-84765276D01*
X115101503Y-84765276D02*
X115053884Y-84860514D01*
X115053884Y-84860514D02*
X115006265Y-85050990D01*
X115006265Y-85050990D02*
X115006265Y-85193847D01*
X115006265Y-85193847D02*
X115053884Y-85384323D01*
X115053884Y-85384323D02*
X115101503Y-85479561D01*
X115101503Y-85479561D02*
X115196741Y-85574800D01*
X115196741Y-85574800D02*
X115339598Y-85622419D01*
X115339598Y-85622419D02*
X115434836Y-85622419D01*
X115434836Y-85622419D02*
X115577693Y-85574800D01*
X115577693Y-85574800D02*
X115625312Y-85527180D01*
X115625312Y-85527180D02*
X115625312Y-85193847D01*
X115625312Y-85193847D02*
X115434836Y-85193847D01*
X175241466Y-127946115D02*
X175241466Y-127184211D01*
X175098609Y-125612782D02*
X175146228Y-125469925D01*
X175146228Y-125469925D02*
X175193847Y-125422306D01*
X175193847Y-125422306D02*
X175289085Y-125374687D01*
X175289085Y-125374687D02*
X175431942Y-125374687D01*
X175431942Y-125374687D02*
X175527180Y-125422306D01*
X175527180Y-125422306D02*
X175574800Y-125469925D01*
X175574800Y-125469925D02*
X175622419Y-125565163D01*
X175622419Y-125565163D02*
X175622419Y-125946115D01*
X175622419Y-125946115D02*
X174622419Y-125946115D01*
X174622419Y-125946115D02*
X174622419Y-125612782D01*
X174622419Y-125612782D02*
X174670038Y-125517544D01*
X174670038Y-125517544D02*
X174717657Y-125469925D01*
X174717657Y-125469925D02*
X174812895Y-125422306D01*
X174812895Y-125422306D02*
X174908133Y-125422306D01*
X174908133Y-125422306D02*
X175003371Y-125469925D01*
X175003371Y-125469925D02*
X175050990Y-125517544D01*
X175050990Y-125517544D02*
X175098609Y-125612782D01*
X175098609Y-125612782D02*
X175098609Y-125946115D01*
X175336704Y-124993734D02*
X175336704Y-124517544D01*
X175622419Y-125088972D02*
X174622419Y-124755639D01*
X174622419Y-124755639D02*
X175622419Y-124422306D01*
X174622419Y-124231829D02*
X174622419Y-123660401D01*
X175622419Y-123946115D02*
X174622419Y-123946115D01*
X175241466Y-122565162D02*
X175241466Y-121803258D01*
X175622419Y-122184210D02*
X174860514Y-122184210D01*
X115625312Y-88122419D02*
X115291979Y-87646228D01*
X115053884Y-88122419D02*
X115053884Y-87122419D01*
X115053884Y-87122419D02*
X115434836Y-87122419D01*
X115434836Y-87122419D02*
X115530074Y-87170038D01*
X115530074Y-87170038D02*
X115577693Y-87217657D01*
X115577693Y-87217657D02*
X115625312Y-87312895D01*
X115625312Y-87312895D02*
X115625312Y-87455752D01*
X115625312Y-87455752D02*
X115577693Y-87550990D01*
X115577693Y-87550990D02*
X115530074Y-87598609D01*
X115530074Y-87598609D02*
X115434836Y-87646228D01*
X115434836Y-87646228D02*
X115053884Y-87646228D01*
X161348609Y-85362782D02*
X161348609Y-85696115D01*
X161872419Y-85696115D02*
X160872419Y-85696115D01*
X160872419Y-85696115D02*
X160872419Y-85219925D01*
X161586704Y-84886591D02*
X161586704Y-84410401D01*
X161872419Y-84981829D02*
X160872419Y-84648496D01*
X160872419Y-84648496D02*
X161872419Y-84315163D01*
X160872419Y-83981829D02*
X161681942Y-83981829D01*
X161681942Y-83981829D02*
X161777180Y-83934210D01*
X161777180Y-83934210D02*
X161824800Y-83886591D01*
X161824800Y-83886591D02*
X161872419Y-83791353D01*
X161872419Y-83791353D02*
X161872419Y-83600877D01*
X161872419Y-83600877D02*
X161824800Y-83505639D01*
X161824800Y-83505639D02*
X161777180Y-83458020D01*
X161777180Y-83458020D02*
X161681942Y-83410401D01*
X161681942Y-83410401D02*
X160872419Y-83410401D01*
X161872419Y-82458020D02*
X161872419Y-82934210D01*
X161872419Y-82934210D02*
X160872419Y-82934210D01*
X160872419Y-82267543D02*
X160872419Y-81696115D01*
X161872419Y-81981829D02*
X160872419Y-81981829D01*
X115053884Y-93372419D02*
X115053884Y-92372419D01*
X115053884Y-92372419D02*
X115291979Y-92372419D01*
X115291979Y-92372419D02*
X115434836Y-92420038D01*
X115434836Y-92420038D02*
X115530074Y-92515276D01*
X115530074Y-92515276D02*
X115577693Y-92610514D01*
X115577693Y-92610514D02*
X115625312Y-92800990D01*
X115625312Y-92800990D02*
X115625312Y-92943847D01*
X115625312Y-92943847D02*
X115577693Y-93134323D01*
X115577693Y-93134323D02*
X115530074Y-93229561D01*
X115530074Y-93229561D02*
X115434836Y-93324800D01*
X115434836Y-93324800D02*
X115291979Y-93372419D01*
X115291979Y-93372419D02*
X115053884Y-93372419D01*
X114911027Y-94872419D02*
X115244360Y-95872419D01*
X115244360Y-95872419D02*
X115577693Y-94872419D01*
X163372419Y-134696115D02*
X162372419Y-134696115D01*
X162372419Y-134696115D02*
X162372419Y-134315163D01*
X162372419Y-134315163D02*
X162420038Y-134219925D01*
X162420038Y-134219925D02*
X162467657Y-134172306D01*
X162467657Y-134172306D02*
X162562895Y-134124687D01*
X162562895Y-134124687D02*
X162705752Y-134124687D01*
X162705752Y-134124687D02*
X162800990Y-134172306D01*
X162800990Y-134172306D02*
X162848609Y-134219925D01*
X162848609Y-134219925D02*
X162896228Y-134315163D01*
X162896228Y-134315163D02*
X162896228Y-134696115D01*
X162420038Y-133172306D02*
X162372419Y-133267544D01*
X162372419Y-133267544D02*
X162372419Y-133410401D01*
X162372419Y-133410401D02*
X162420038Y-133553258D01*
X162420038Y-133553258D02*
X162515276Y-133648496D01*
X162515276Y-133648496D02*
X162610514Y-133696115D01*
X162610514Y-133696115D02*
X162800990Y-133743734D01*
X162800990Y-133743734D02*
X162943847Y-133743734D01*
X162943847Y-133743734D02*
X163134323Y-133696115D01*
X163134323Y-133696115D02*
X163229561Y-133648496D01*
X163229561Y-133648496D02*
X163324800Y-133553258D01*
X163324800Y-133553258D02*
X163372419Y-133410401D01*
X163372419Y-133410401D02*
X163372419Y-133315163D01*
X163372419Y-133315163D02*
X163324800Y-133172306D01*
X163324800Y-133172306D02*
X163277180Y-133124687D01*
X163277180Y-133124687D02*
X162943847Y-133124687D01*
X162943847Y-133124687D02*
X162943847Y-133315163D01*
X116256265Y-82574800D02*
X116399122Y-82622419D01*
X116399122Y-82622419D02*
X116637217Y-82622419D01*
X116637217Y-82622419D02*
X116732455Y-82574800D01*
X116732455Y-82574800D02*
X116780074Y-82527180D01*
X116780074Y-82527180D02*
X116827693Y-82431942D01*
X116827693Y-82431942D02*
X116827693Y-82336704D01*
X116827693Y-82336704D02*
X116780074Y-82241466D01*
X116780074Y-82241466D02*
X116732455Y-82193847D01*
X116732455Y-82193847D02*
X116637217Y-82146228D01*
X116637217Y-82146228D02*
X116446741Y-82098609D01*
X116446741Y-82098609D02*
X116351503Y-82050990D01*
X116351503Y-82050990D02*
X116303884Y-82003371D01*
X116303884Y-82003371D02*
X116256265Y-81908133D01*
X116256265Y-81908133D02*
X116256265Y-81812895D01*
X116256265Y-81812895D02*
X116303884Y-81717657D01*
X116303884Y-81717657D02*
X116351503Y-81670038D01*
X116351503Y-81670038D02*
X116446741Y-81622419D01*
X116446741Y-81622419D02*
X116684836Y-81622419D01*
X116684836Y-81622419D02*
X116827693Y-81670038D01*
X117161027Y-81622419D02*
X117399122Y-82622419D01*
X117399122Y-82622419D02*
X117589598Y-81908133D01*
X117589598Y-81908133D02*
X117780074Y-82622419D01*
X117780074Y-82622419D02*
X118018170Y-81622419D01*
X118399122Y-82622419D02*
X118399122Y-81622419D01*
X118399122Y-81622419D02*
X118637217Y-81622419D01*
X118637217Y-81622419D02*
X118780074Y-81670038D01*
X118780074Y-81670038D02*
X118875312Y-81765276D01*
X118875312Y-81765276D02*
X118922931Y-81860514D01*
X118922931Y-81860514D02*
X118970550Y-82050990D01*
X118970550Y-82050990D02*
X118970550Y-82193847D01*
X118970550Y-82193847D02*
X118922931Y-82384323D01*
X118922931Y-82384323D02*
X118875312Y-82479561D01*
X118875312Y-82479561D02*
X118780074Y-82574800D01*
X118780074Y-82574800D02*
X118637217Y-82622419D01*
X118637217Y-82622419D02*
X118399122Y-82622419D01*
X159824800Y-134743734D02*
X159872419Y-134600877D01*
X159872419Y-134600877D02*
X159872419Y-134362782D01*
X159872419Y-134362782D02*
X159824800Y-134267544D01*
X159824800Y-134267544D02*
X159777180Y-134219925D01*
X159777180Y-134219925D02*
X159681942Y-134172306D01*
X159681942Y-134172306D02*
X159586704Y-134172306D01*
X159586704Y-134172306D02*
X159491466Y-134219925D01*
X159491466Y-134219925D02*
X159443847Y-134267544D01*
X159443847Y-134267544D02*
X159396228Y-134362782D01*
X159396228Y-134362782D02*
X159348609Y-134553258D01*
X159348609Y-134553258D02*
X159300990Y-134648496D01*
X159300990Y-134648496D02*
X159253371Y-134696115D01*
X159253371Y-134696115D02*
X159158133Y-134743734D01*
X159158133Y-134743734D02*
X159062895Y-134743734D01*
X159062895Y-134743734D02*
X158967657Y-134696115D01*
X158967657Y-134696115D02*
X158920038Y-134648496D01*
X158920038Y-134648496D02*
X158872419Y-134553258D01*
X158872419Y-134553258D02*
X158872419Y-134315163D01*
X158872419Y-134315163D02*
X158920038Y-134172306D01*
X159872419Y-133219925D02*
X159872419Y-133791353D01*
X159872419Y-133505639D02*
X158872419Y-133505639D01*
X158872419Y-133505639D02*
X159015276Y-133600877D01*
X159015276Y-133600877D02*
X159110514Y-133696115D01*
X159110514Y-133696115D02*
X159158133Y-133791353D01*
X163303884Y-70872419D02*
X163303884Y-69872419D01*
X163303884Y-69872419D02*
X163637217Y-70586704D01*
X163637217Y-70586704D02*
X163970550Y-69872419D01*
X163970550Y-69872419D02*
X163970550Y-70872419D01*
X164637217Y-69872419D02*
X164827693Y-69872419D01*
X164827693Y-69872419D02*
X164922931Y-69920038D01*
X164922931Y-69920038D02*
X165018169Y-70015276D01*
X165018169Y-70015276D02*
X165065788Y-70205752D01*
X165065788Y-70205752D02*
X165065788Y-70539085D01*
X165065788Y-70539085D02*
X165018169Y-70729561D01*
X165018169Y-70729561D02*
X164922931Y-70824800D01*
X164922931Y-70824800D02*
X164827693Y-70872419D01*
X164827693Y-70872419D02*
X164637217Y-70872419D01*
X164637217Y-70872419D02*
X164541979Y-70824800D01*
X164541979Y-70824800D02*
X164446741Y-70729561D01*
X164446741Y-70729561D02*
X164399122Y-70539085D01*
X164399122Y-70539085D02*
X164399122Y-70205752D01*
X164399122Y-70205752D02*
X164446741Y-70015276D01*
X164446741Y-70015276D02*
X164541979Y-69920038D01*
X164541979Y-69920038D02*
X164637217Y-69872419D01*
X165351503Y-69872419D02*
X165922931Y-69872419D01*
X165637217Y-70872419D02*
X165637217Y-69872419D01*
X166446741Y-69872419D02*
X166637217Y-69872419D01*
X166637217Y-69872419D02*
X166732455Y-69920038D01*
X166732455Y-69920038D02*
X166827693Y-70015276D01*
X166827693Y-70015276D02*
X166875312Y-70205752D01*
X166875312Y-70205752D02*
X166875312Y-70539085D01*
X166875312Y-70539085D02*
X166827693Y-70729561D01*
X166827693Y-70729561D02*
X166732455Y-70824800D01*
X166732455Y-70824800D02*
X166637217Y-70872419D01*
X166637217Y-70872419D02*
X166446741Y-70872419D01*
X166446741Y-70872419D02*
X166351503Y-70824800D01*
X166351503Y-70824800D02*
X166256265Y-70729561D01*
X166256265Y-70729561D02*
X166208646Y-70539085D01*
X166208646Y-70539085D02*
X166208646Y-70205752D01*
X166208646Y-70205752D02*
X166256265Y-70015276D01*
X166256265Y-70015276D02*
X166351503Y-69920038D01*
X166351503Y-69920038D02*
X166446741Y-69872419D01*
X167875312Y-70872419D02*
X167541979Y-70396228D01*
X167303884Y-70872419D02*
X167303884Y-69872419D01*
X167303884Y-69872419D02*
X167684836Y-69872419D01*
X167684836Y-69872419D02*
X167780074Y-69920038D01*
X167780074Y-69920038D02*
X167827693Y-69967657D01*
X167827693Y-69967657D02*
X167875312Y-70062895D01*
X167875312Y-70062895D02*
X167875312Y-70205752D01*
X167875312Y-70205752D02*
X167827693Y-70300990D01*
X167827693Y-70300990D02*
X167780074Y-70348609D01*
X167780074Y-70348609D02*
X167684836Y-70396228D01*
X167684836Y-70396228D02*
X167303884Y-70396228D01*
X167303884Y-129122419D02*
X167303884Y-128122419D01*
X167303884Y-128122419D02*
X167875312Y-129122419D01*
X167875312Y-129122419D02*
X167875312Y-128122419D01*
X168208646Y-128122419D02*
X168780074Y-128122419D01*
X168494360Y-129122419D02*
X168494360Y-128122419D01*
X169684836Y-129027180D02*
X169637217Y-129074800D01*
X169637217Y-129074800D02*
X169494360Y-129122419D01*
X169494360Y-129122419D02*
X169399122Y-129122419D01*
X169399122Y-129122419D02*
X169256265Y-129074800D01*
X169256265Y-129074800D02*
X169161027Y-128979561D01*
X169161027Y-128979561D02*
X169113408Y-128884323D01*
X169113408Y-128884323D02*
X169065789Y-128693847D01*
X169065789Y-128693847D02*
X169065789Y-128550990D01*
X169065789Y-128550990D02*
X169113408Y-128360514D01*
X169113408Y-128360514D02*
X169161027Y-128265276D01*
X169161027Y-128265276D02*
X169256265Y-128170038D01*
X169256265Y-128170038D02*
X169399122Y-128122419D01*
X169399122Y-128122419D02*
X169494360Y-128122419D01*
X169494360Y-128122419D02*
X169637217Y-128170038D01*
X169637217Y-128170038D02*
X169684836Y-128217657D01*
X161574800Y-134743734D02*
X161622419Y-134600877D01*
X161622419Y-134600877D02*
X161622419Y-134362782D01*
X161622419Y-134362782D02*
X161574800Y-134267544D01*
X161574800Y-134267544D02*
X161527180Y-134219925D01*
X161527180Y-134219925D02*
X161431942Y-134172306D01*
X161431942Y-134172306D02*
X161336704Y-134172306D01*
X161336704Y-134172306D02*
X161241466Y-134219925D01*
X161241466Y-134219925D02*
X161193847Y-134267544D01*
X161193847Y-134267544D02*
X161146228Y-134362782D01*
X161146228Y-134362782D02*
X161098609Y-134553258D01*
X161098609Y-134553258D02*
X161050990Y-134648496D01*
X161050990Y-134648496D02*
X161003371Y-134696115D01*
X161003371Y-134696115D02*
X160908133Y-134743734D01*
X160908133Y-134743734D02*
X160812895Y-134743734D01*
X160812895Y-134743734D02*
X160717657Y-134696115D01*
X160717657Y-134696115D02*
X160670038Y-134648496D01*
X160670038Y-134648496D02*
X160622419Y-134553258D01*
X160622419Y-134553258D02*
X160622419Y-134315163D01*
X160622419Y-134315163D02*
X160670038Y-134172306D01*
X160717657Y-133791353D02*
X160670038Y-133743734D01*
X160670038Y-133743734D02*
X160622419Y-133648496D01*
X160622419Y-133648496D02*
X160622419Y-133410401D01*
X160622419Y-133410401D02*
X160670038Y-133315163D01*
X160670038Y-133315163D02*
X160717657Y-133267544D01*
X160717657Y-133267544D02*
X160812895Y-133219925D01*
X160812895Y-133219925D02*
X160908133Y-133219925D01*
X160908133Y-133219925D02*
X161050990Y-133267544D01*
X161050990Y-133267544D02*
X161622419Y-133838972D01*
X161622419Y-133838972D02*
X161622419Y-133219925D01*
D11*
X147789580Y-52167857D02*
X147837200Y-52215476D01*
X147837200Y-52215476D02*
X147884819Y-52358333D01*
X147884819Y-52358333D02*
X147884819Y-52453571D01*
X147884819Y-52453571D02*
X147837200Y-52596428D01*
X147837200Y-52596428D02*
X147741961Y-52691666D01*
X147741961Y-52691666D02*
X147646723Y-52739285D01*
X147646723Y-52739285D02*
X147456247Y-52786904D01*
X147456247Y-52786904D02*
X147313390Y-52786904D01*
X147313390Y-52786904D02*
X147122914Y-52739285D01*
X147122914Y-52739285D02*
X147027676Y-52691666D01*
X147027676Y-52691666D02*
X146932438Y-52596428D01*
X146932438Y-52596428D02*
X146884819Y-52453571D01*
X146884819Y-52453571D02*
X146884819Y-52358333D01*
X146884819Y-52358333D02*
X146932438Y-52215476D01*
X146932438Y-52215476D02*
X146980057Y-52167857D01*
X146980057Y-51786904D02*
X146932438Y-51739285D01*
X146932438Y-51739285D02*
X146884819Y-51644047D01*
X146884819Y-51644047D02*
X146884819Y-51405952D01*
X146884819Y-51405952D02*
X146932438Y-51310714D01*
X146932438Y-51310714D02*
X146980057Y-51263095D01*
X146980057Y-51263095D02*
X147075295Y-51215476D01*
X147075295Y-51215476D02*
X147170533Y-51215476D01*
X147170533Y-51215476D02*
X147313390Y-51263095D01*
X147313390Y-51263095D02*
X147884819Y-51834523D01*
X147884819Y-51834523D02*
X147884819Y-51215476D01*
X147884819Y-50739285D02*
X147884819Y-50548809D01*
X147884819Y-50548809D02*
X147837200Y-50453571D01*
X147837200Y-50453571D02*
X147789580Y-50405952D01*
X147789580Y-50405952D02*
X147646723Y-50310714D01*
X147646723Y-50310714D02*
X147456247Y-50263095D01*
X147456247Y-50263095D02*
X147075295Y-50263095D01*
X147075295Y-50263095D02*
X146980057Y-50310714D01*
X146980057Y-50310714D02*
X146932438Y-50358333D01*
X146932438Y-50358333D02*
X146884819Y-50453571D01*
X146884819Y-50453571D02*
X146884819Y-50644047D01*
X146884819Y-50644047D02*
X146932438Y-50739285D01*
X146932438Y-50739285D02*
X146980057Y-50786904D01*
X146980057Y-50786904D02*
X147075295Y-50834523D01*
X147075295Y-50834523D02*
X147313390Y-50834523D01*
X147313390Y-50834523D02*
X147408628Y-50786904D01*
X147408628Y-50786904D02*
X147456247Y-50739285D01*
X147456247Y-50739285D02*
X147503866Y-50644047D01*
X147503866Y-50644047D02*
X147503866Y-50453571D01*
X147503866Y-50453571D02*
X147456247Y-50358333D01*
X147456247Y-50358333D02*
X147408628Y-50310714D01*
X147408628Y-50310714D02*
X147313390Y-50263095D01*
X144738095Y-43454819D02*
X144738095Y-44264342D01*
X144738095Y-44264342D02*
X144785714Y-44359580D01*
X144785714Y-44359580D02*
X144833333Y-44407200D01*
X144833333Y-44407200D02*
X144928571Y-44454819D01*
X144928571Y-44454819D02*
X145119047Y-44454819D01*
X145119047Y-44454819D02*
X145214285Y-44407200D01*
X145214285Y-44407200D02*
X145261904Y-44359580D01*
X145261904Y-44359580D02*
X145309523Y-44264342D01*
X145309523Y-44264342D02*
X145309523Y-43454819D01*
X146309523Y-44454819D02*
X145738095Y-44454819D01*
X146023809Y-44454819D02*
X146023809Y-43454819D01*
X146023809Y-43454819D02*
X145928571Y-43597676D01*
X145928571Y-43597676D02*
X145833333Y-43692914D01*
X145833333Y-43692914D02*
X145738095Y-43740533D01*
X151954819Y-49392857D02*
X151478628Y-49726190D01*
X151954819Y-49964285D02*
X150954819Y-49964285D01*
X150954819Y-49964285D02*
X150954819Y-49583333D01*
X150954819Y-49583333D02*
X151002438Y-49488095D01*
X151002438Y-49488095D02*
X151050057Y-49440476D01*
X151050057Y-49440476D02*
X151145295Y-49392857D01*
X151145295Y-49392857D02*
X151288152Y-49392857D01*
X151288152Y-49392857D02*
X151383390Y-49440476D01*
X151383390Y-49440476D02*
X151431009Y-49488095D01*
X151431009Y-49488095D02*
X151478628Y-49583333D01*
X151478628Y-49583333D02*
X151478628Y-49964285D01*
X151050057Y-49011904D02*
X151002438Y-48964285D01*
X151002438Y-48964285D02*
X150954819Y-48869047D01*
X150954819Y-48869047D02*
X150954819Y-48630952D01*
X150954819Y-48630952D02*
X151002438Y-48535714D01*
X151002438Y-48535714D02*
X151050057Y-48488095D01*
X151050057Y-48488095D02*
X151145295Y-48440476D01*
X151145295Y-48440476D02*
X151240533Y-48440476D01*
X151240533Y-48440476D02*
X151383390Y-48488095D01*
X151383390Y-48488095D02*
X151954819Y-49059523D01*
X151954819Y-49059523D02*
X151954819Y-48440476D01*
X151288152Y-47583333D02*
X151954819Y-47583333D01*
X150907200Y-47821428D02*
X151621485Y-48059523D01*
X151621485Y-48059523D02*
X151621485Y-47440476D01*
X143109580Y-52167857D02*
X143157200Y-52215476D01*
X143157200Y-52215476D02*
X143204819Y-52358333D01*
X143204819Y-52358333D02*
X143204819Y-52453571D01*
X143204819Y-52453571D02*
X143157200Y-52596428D01*
X143157200Y-52596428D02*
X143061961Y-52691666D01*
X143061961Y-52691666D02*
X142966723Y-52739285D01*
X142966723Y-52739285D02*
X142776247Y-52786904D01*
X142776247Y-52786904D02*
X142633390Y-52786904D01*
X142633390Y-52786904D02*
X142442914Y-52739285D01*
X142442914Y-52739285D02*
X142347676Y-52691666D01*
X142347676Y-52691666D02*
X142252438Y-52596428D01*
X142252438Y-52596428D02*
X142204819Y-52453571D01*
X142204819Y-52453571D02*
X142204819Y-52358333D01*
X142204819Y-52358333D02*
X142252438Y-52215476D01*
X142252438Y-52215476D02*
X142300057Y-52167857D01*
X142204819Y-51834523D02*
X142204819Y-51215476D01*
X142204819Y-51215476D02*
X142585771Y-51548809D01*
X142585771Y-51548809D02*
X142585771Y-51405952D01*
X142585771Y-51405952D02*
X142633390Y-51310714D01*
X142633390Y-51310714D02*
X142681009Y-51263095D01*
X142681009Y-51263095D02*
X142776247Y-51215476D01*
X142776247Y-51215476D02*
X143014342Y-51215476D01*
X143014342Y-51215476D02*
X143109580Y-51263095D01*
X143109580Y-51263095D02*
X143157200Y-51310714D01*
X143157200Y-51310714D02*
X143204819Y-51405952D01*
X143204819Y-51405952D02*
X143204819Y-51691666D01*
X143204819Y-51691666D02*
X143157200Y-51786904D01*
X143157200Y-51786904D02*
X143109580Y-51834523D01*
X143204819Y-50263095D02*
X143204819Y-50834523D01*
X143204819Y-50548809D02*
X142204819Y-50548809D01*
X142204819Y-50548809D02*
X142347676Y-50644047D01*
X142347676Y-50644047D02*
X142442914Y-50739285D01*
X142442914Y-50739285D02*
X142490533Y-50834523D01*
X142429580Y-46417857D02*
X142477200Y-46465476D01*
X142477200Y-46465476D02*
X142524819Y-46608333D01*
X142524819Y-46608333D02*
X142524819Y-46703571D01*
X142524819Y-46703571D02*
X142477200Y-46846428D01*
X142477200Y-46846428D02*
X142381961Y-46941666D01*
X142381961Y-46941666D02*
X142286723Y-46989285D01*
X142286723Y-46989285D02*
X142096247Y-47036904D01*
X142096247Y-47036904D02*
X141953390Y-47036904D01*
X141953390Y-47036904D02*
X141762914Y-46989285D01*
X141762914Y-46989285D02*
X141667676Y-46941666D01*
X141667676Y-46941666D02*
X141572438Y-46846428D01*
X141572438Y-46846428D02*
X141524819Y-46703571D01*
X141524819Y-46703571D02*
X141524819Y-46608333D01*
X141524819Y-46608333D02*
X141572438Y-46465476D01*
X141572438Y-46465476D02*
X141620057Y-46417857D01*
X141524819Y-46084523D02*
X141524819Y-45465476D01*
X141524819Y-45465476D02*
X141905771Y-45798809D01*
X141905771Y-45798809D02*
X141905771Y-45655952D01*
X141905771Y-45655952D02*
X141953390Y-45560714D01*
X141953390Y-45560714D02*
X142001009Y-45513095D01*
X142001009Y-45513095D02*
X142096247Y-45465476D01*
X142096247Y-45465476D02*
X142334342Y-45465476D01*
X142334342Y-45465476D02*
X142429580Y-45513095D01*
X142429580Y-45513095D02*
X142477200Y-45560714D01*
X142477200Y-45560714D02*
X142524819Y-45655952D01*
X142524819Y-45655952D02*
X142524819Y-45941666D01*
X142524819Y-45941666D02*
X142477200Y-46036904D01*
X142477200Y-46036904D02*
X142429580Y-46084523D01*
X141524819Y-44846428D02*
X141524819Y-44751190D01*
X141524819Y-44751190D02*
X141572438Y-44655952D01*
X141572438Y-44655952D02*
X141620057Y-44608333D01*
X141620057Y-44608333D02*
X141715295Y-44560714D01*
X141715295Y-44560714D02*
X141905771Y-44513095D01*
X141905771Y-44513095D02*
X142143866Y-44513095D01*
X142143866Y-44513095D02*
X142334342Y-44560714D01*
X142334342Y-44560714D02*
X142429580Y-44608333D01*
X142429580Y-44608333D02*
X142477200Y-44655952D01*
X142477200Y-44655952D02*
X142524819Y-44751190D01*
X142524819Y-44751190D02*
X142524819Y-44846428D01*
X142524819Y-44846428D02*
X142477200Y-44941666D01*
X142477200Y-44941666D02*
X142429580Y-44989285D01*
X142429580Y-44989285D02*
X142334342Y-45036904D01*
X142334342Y-45036904D02*
X142143866Y-45084523D01*
X142143866Y-45084523D02*
X141905771Y-45084523D01*
X141905771Y-45084523D02*
X141715295Y-45036904D01*
X141715295Y-45036904D02*
X141620057Y-44989285D01*
X141620057Y-44989285D02*
X141572438Y-44941666D01*
X141572438Y-44941666D02*
X141524819Y-44846428D01*
X151583333Y-119859580D02*
X151535714Y-119907200D01*
X151535714Y-119907200D02*
X151392857Y-119954819D01*
X151392857Y-119954819D02*
X151297619Y-119954819D01*
X151297619Y-119954819D02*
X151154762Y-119907200D01*
X151154762Y-119907200D02*
X151059524Y-119811961D01*
X151059524Y-119811961D02*
X151011905Y-119716723D01*
X151011905Y-119716723D02*
X150964286Y-119526247D01*
X150964286Y-119526247D02*
X150964286Y-119383390D01*
X150964286Y-119383390D02*
X151011905Y-119192914D01*
X151011905Y-119192914D02*
X151059524Y-119097676D01*
X151059524Y-119097676D02*
X151154762Y-119002438D01*
X151154762Y-119002438D02*
X151297619Y-118954819D01*
X151297619Y-118954819D02*
X151392857Y-118954819D01*
X151392857Y-118954819D02*
X151535714Y-119002438D01*
X151535714Y-119002438D02*
X151583333Y-119050057D01*
X152535714Y-119954819D02*
X151964286Y-119954819D01*
X152250000Y-119954819D02*
X152250000Y-118954819D01*
X152250000Y-118954819D02*
X152154762Y-119097676D01*
X152154762Y-119097676D02*
X152059524Y-119192914D01*
X152059524Y-119192914D02*
X151964286Y-119240533D01*
X124857142Y-117859580D02*
X124809523Y-117907200D01*
X124809523Y-117907200D02*
X124666666Y-117954819D01*
X124666666Y-117954819D02*
X124571428Y-117954819D01*
X124571428Y-117954819D02*
X124428571Y-117907200D01*
X124428571Y-117907200D02*
X124333333Y-117811961D01*
X124333333Y-117811961D02*
X124285714Y-117716723D01*
X124285714Y-117716723D02*
X124238095Y-117526247D01*
X124238095Y-117526247D02*
X124238095Y-117383390D01*
X124238095Y-117383390D02*
X124285714Y-117192914D01*
X124285714Y-117192914D02*
X124333333Y-117097676D01*
X124333333Y-117097676D02*
X124428571Y-117002438D01*
X124428571Y-117002438D02*
X124571428Y-116954819D01*
X124571428Y-116954819D02*
X124666666Y-116954819D01*
X124666666Y-116954819D02*
X124809523Y-117002438D01*
X124809523Y-117002438D02*
X124857142Y-117050057D01*
X125238095Y-117050057D02*
X125285714Y-117002438D01*
X125285714Y-117002438D02*
X125380952Y-116954819D01*
X125380952Y-116954819D02*
X125619047Y-116954819D01*
X125619047Y-116954819D02*
X125714285Y-117002438D01*
X125714285Y-117002438D02*
X125761904Y-117050057D01*
X125761904Y-117050057D02*
X125809523Y-117145295D01*
X125809523Y-117145295D02*
X125809523Y-117240533D01*
X125809523Y-117240533D02*
X125761904Y-117383390D01*
X125761904Y-117383390D02*
X125190476Y-117954819D01*
X125190476Y-117954819D02*
X125809523Y-117954819D01*
X126666666Y-117288152D02*
X126666666Y-117954819D01*
X126428571Y-116907200D02*
X126190476Y-117621485D01*
X126190476Y-117621485D02*
X126809523Y-117621485D01*
X156357142Y-81204819D02*
X156023809Y-80728628D01*
X155785714Y-81204819D02*
X155785714Y-80204819D01*
X155785714Y-80204819D02*
X156166666Y-80204819D01*
X156166666Y-80204819D02*
X156261904Y-80252438D01*
X156261904Y-80252438D02*
X156309523Y-80300057D01*
X156309523Y-80300057D02*
X156357142Y-80395295D01*
X156357142Y-80395295D02*
X156357142Y-80538152D01*
X156357142Y-80538152D02*
X156309523Y-80633390D01*
X156309523Y-80633390D02*
X156261904Y-80681009D01*
X156261904Y-80681009D02*
X156166666Y-80728628D01*
X156166666Y-80728628D02*
X155785714Y-80728628D01*
X157309523Y-81204819D02*
X156738095Y-81204819D01*
X157023809Y-81204819D02*
X157023809Y-80204819D01*
X157023809Y-80204819D02*
X156928571Y-80347676D01*
X156928571Y-80347676D02*
X156833333Y-80442914D01*
X156833333Y-80442914D02*
X156738095Y-80490533D01*
X158214285Y-80204819D02*
X157738095Y-80204819D01*
X157738095Y-80204819D02*
X157690476Y-80681009D01*
X157690476Y-80681009D02*
X157738095Y-80633390D01*
X157738095Y-80633390D02*
X157833333Y-80585771D01*
X157833333Y-80585771D02*
X158071428Y-80585771D01*
X158071428Y-80585771D02*
X158166666Y-80633390D01*
X158166666Y-80633390D02*
X158214285Y-80681009D01*
X158214285Y-80681009D02*
X158261904Y-80776247D01*
X158261904Y-80776247D02*
X158261904Y-81014342D01*
X158261904Y-81014342D02*
X158214285Y-81109580D01*
X158214285Y-81109580D02*
X158166666Y-81157200D01*
X158166666Y-81157200D02*
X158071428Y-81204819D01*
X158071428Y-81204819D02*
X157833333Y-81204819D01*
X157833333Y-81204819D02*
X157738095Y-81157200D01*
X157738095Y-81157200D02*
X157690476Y-81109580D01*
X153833333Y-126204819D02*
X153357143Y-126204819D01*
X153357143Y-126204819D02*
X153357143Y-125204819D01*
X154690476Y-126204819D02*
X154119048Y-126204819D01*
X154404762Y-126204819D02*
X154404762Y-125204819D01*
X154404762Y-125204819D02*
X154309524Y-125347676D01*
X154309524Y-125347676D02*
X154214286Y-125442914D01*
X154214286Y-125442914D02*
X154119048Y-125490533D01*
X123357142Y-49954819D02*
X123023809Y-49478628D01*
X122785714Y-49954819D02*
X122785714Y-48954819D01*
X122785714Y-48954819D02*
X123166666Y-48954819D01*
X123166666Y-48954819D02*
X123261904Y-49002438D01*
X123261904Y-49002438D02*
X123309523Y-49050057D01*
X123309523Y-49050057D02*
X123357142Y-49145295D01*
X123357142Y-49145295D02*
X123357142Y-49288152D01*
X123357142Y-49288152D02*
X123309523Y-49383390D01*
X123309523Y-49383390D02*
X123261904Y-49431009D01*
X123261904Y-49431009D02*
X123166666Y-49478628D01*
X123166666Y-49478628D02*
X122785714Y-49478628D01*
X124309523Y-49954819D02*
X123738095Y-49954819D01*
X124023809Y-49954819D02*
X124023809Y-48954819D01*
X124023809Y-48954819D02*
X123928571Y-49097676D01*
X123928571Y-49097676D02*
X123833333Y-49192914D01*
X123833333Y-49192914D02*
X123738095Y-49240533D01*
X124690476Y-49050057D02*
X124738095Y-49002438D01*
X124738095Y-49002438D02*
X124833333Y-48954819D01*
X124833333Y-48954819D02*
X125071428Y-48954819D01*
X125071428Y-48954819D02*
X125166666Y-49002438D01*
X125166666Y-49002438D02*
X125214285Y-49050057D01*
X125214285Y-49050057D02*
X125261904Y-49145295D01*
X125261904Y-49145295D02*
X125261904Y-49240533D01*
X125261904Y-49240533D02*
X125214285Y-49383390D01*
X125214285Y-49383390D02*
X124642857Y-49954819D01*
X124642857Y-49954819D02*
X125261904Y-49954819D01*
X166859580Y-86392857D02*
X166907200Y-86440476D01*
X166907200Y-86440476D02*
X166954819Y-86583333D01*
X166954819Y-86583333D02*
X166954819Y-86678571D01*
X166954819Y-86678571D02*
X166907200Y-86821428D01*
X166907200Y-86821428D02*
X166811961Y-86916666D01*
X166811961Y-86916666D02*
X166716723Y-86964285D01*
X166716723Y-86964285D02*
X166526247Y-87011904D01*
X166526247Y-87011904D02*
X166383390Y-87011904D01*
X166383390Y-87011904D02*
X166192914Y-86964285D01*
X166192914Y-86964285D02*
X166097676Y-86916666D01*
X166097676Y-86916666D02*
X166002438Y-86821428D01*
X166002438Y-86821428D02*
X165954819Y-86678571D01*
X165954819Y-86678571D02*
X165954819Y-86583333D01*
X165954819Y-86583333D02*
X166002438Y-86440476D01*
X166002438Y-86440476D02*
X166050057Y-86392857D01*
X166954819Y-85440476D02*
X166954819Y-86011904D01*
X166954819Y-85726190D02*
X165954819Y-85726190D01*
X165954819Y-85726190D02*
X166097676Y-85821428D01*
X166097676Y-85821428D02*
X166192914Y-85916666D01*
X166192914Y-85916666D02*
X166240533Y-86011904D01*
X165954819Y-85107142D02*
X165954819Y-84440476D01*
X165954819Y-84440476D02*
X166954819Y-84869047D01*
X160833333Y-120024819D02*
X160500000Y-119548628D01*
X160261905Y-120024819D02*
X160261905Y-119024819D01*
X160261905Y-119024819D02*
X160642857Y-119024819D01*
X160642857Y-119024819D02*
X160738095Y-119072438D01*
X160738095Y-119072438D02*
X160785714Y-119120057D01*
X160785714Y-119120057D02*
X160833333Y-119215295D01*
X160833333Y-119215295D02*
X160833333Y-119358152D01*
X160833333Y-119358152D02*
X160785714Y-119453390D01*
X160785714Y-119453390D02*
X160738095Y-119501009D01*
X160738095Y-119501009D02*
X160642857Y-119548628D01*
X160642857Y-119548628D02*
X160261905Y-119548628D01*
X161690476Y-119024819D02*
X161500000Y-119024819D01*
X161500000Y-119024819D02*
X161404762Y-119072438D01*
X161404762Y-119072438D02*
X161357143Y-119120057D01*
X161357143Y-119120057D02*
X161261905Y-119262914D01*
X161261905Y-119262914D02*
X161214286Y-119453390D01*
X161214286Y-119453390D02*
X161214286Y-119834342D01*
X161214286Y-119834342D02*
X161261905Y-119929580D01*
X161261905Y-119929580D02*
X161309524Y-119977200D01*
X161309524Y-119977200D02*
X161404762Y-120024819D01*
X161404762Y-120024819D02*
X161595238Y-120024819D01*
X161595238Y-120024819D02*
X161690476Y-119977200D01*
X161690476Y-119977200D02*
X161738095Y-119929580D01*
X161738095Y-119929580D02*
X161785714Y-119834342D01*
X161785714Y-119834342D02*
X161785714Y-119596247D01*
X161785714Y-119596247D02*
X161738095Y-119501009D01*
X161738095Y-119501009D02*
X161690476Y-119453390D01*
X161690476Y-119453390D02*
X161595238Y-119405771D01*
X161595238Y-119405771D02*
X161404762Y-119405771D01*
X161404762Y-119405771D02*
X161309524Y-119453390D01*
X161309524Y-119453390D02*
X161261905Y-119501009D01*
X161261905Y-119501009D02*
X161214286Y-119596247D01*
X149238095Y-124454819D02*
X149238095Y-125264342D01*
X149238095Y-125264342D02*
X149285714Y-125359580D01*
X149285714Y-125359580D02*
X149333333Y-125407200D01*
X149333333Y-125407200D02*
X149428571Y-125454819D01*
X149428571Y-125454819D02*
X149619047Y-125454819D01*
X149619047Y-125454819D02*
X149714285Y-125407200D01*
X149714285Y-125407200D02*
X149761904Y-125359580D01*
X149761904Y-125359580D02*
X149809523Y-125264342D01*
X149809523Y-125264342D02*
X149809523Y-124454819D01*
X150238095Y-124550057D02*
X150285714Y-124502438D01*
X150285714Y-124502438D02*
X150380952Y-124454819D01*
X150380952Y-124454819D02*
X150619047Y-124454819D01*
X150619047Y-124454819D02*
X150714285Y-124502438D01*
X150714285Y-124502438D02*
X150761904Y-124550057D01*
X150761904Y-124550057D02*
X150809523Y-124645295D01*
X150809523Y-124645295D02*
X150809523Y-124740533D01*
X150809523Y-124740533D02*
X150761904Y-124883390D01*
X150761904Y-124883390D02*
X150190476Y-125454819D01*
X150190476Y-125454819D02*
X150809523Y-125454819D01*
X121954819Y-101892857D02*
X121478628Y-102226190D01*
X121954819Y-102464285D02*
X120954819Y-102464285D01*
X120954819Y-102464285D02*
X120954819Y-102083333D01*
X120954819Y-102083333D02*
X121002438Y-101988095D01*
X121002438Y-101988095D02*
X121050057Y-101940476D01*
X121050057Y-101940476D02*
X121145295Y-101892857D01*
X121145295Y-101892857D02*
X121288152Y-101892857D01*
X121288152Y-101892857D02*
X121383390Y-101940476D01*
X121383390Y-101940476D02*
X121431009Y-101988095D01*
X121431009Y-101988095D02*
X121478628Y-102083333D01*
X121478628Y-102083333D02*
X121478628Y-102464285D01*
X121050057Y-101511904D02*
X121002438Y-101464285D01*
X121002438Y-101464285D02*
X120954819Y-101369047D01*
X120954819Y-101369047D02*
X120954819Y-101130952D01*
X120954819Y-101130952D02*
X121002438Y-101035714D01*
X121002438Y-101035714D02*
X121050057Y-100988095D01*
X121050057Y-100988095D02*
X121145295Y-100940476D01*
X121145295Y-100940476D02*
X121240533Y-100940476D01*
X121240533Y-100940476D02*
X121383390Y-100988095D01*
X121383390Y-100988095D02*
X121954819Y-101559523D01*
X121954819Y-101559523D02*
X121954819Y-100940476D01*
X120954819Y-100321428D02*
X120954819Y-100226190D01*
X120954819Y-100226190D02*
X121002438Y-100130952D01*
X121002438Y-100130952D02*
X121050057Y-100083333D01*
X121050057Y-100083333D02*
X121145295Y-100035714D01*
X121145295Y-100035714D02*
X121335771Y-99988095D01*
X121335771Y-99988095D02*
X121573866Y-99988095D01*
X121573866Y-99988095D02*
X121764342Y-100035714D01*
X121764342Y-100035714D02*
X121859580Y-100083333D01*
X121859580Y-100083333D02*
X121907200Y-100130952D01*
X121907200Y-100130952D02*
X121954819Y-100226190D01*
X121954819Y-100226190D02*
X121954819Y-100321428D01*
X121954819Y-100321428D02*
X121907200Y-100416666D01*
X121907200Y-100416666D02*
X121859580Y-100464285D01*
X121859580Y-100464285D02*
X121764342Y-100511904D01*
X121764342Y-100511904D02*
X121573866Y-100559523D01*
X121573866Y-100559523D02*
X121335771Y-100559523D01*
X121335771Y-100559523D02*
X121145295Y-100511904D01*
X121145295Y-100511904D02*
X121050057Y-100464285D01*
X121050057Y-100464285D02*
X121002438Y-100416666D01*
X121002438Y-100416666D02*
X120954819Y-100321428D01*
X131109580Y-103892857D02*
X131157200Y-103940476D01*
X131157200Y-103940476D02*
X131204819Y-104083333D01*
X131204819Y-104083333D02*
X131204819Y-104178571D01*
X131204819Y-104178571D02*
X131157200Y-104321428D01*
X131157200Y-104321428D02*
X131061961Y-104416666D01*
X131061961Y-104416666D02*
X130966723Y-104464285D01*
X130966723Y-104464285D02*
X130776247Y-104511904D01*
X130776247Y-104511904D02*
X130633390Y-104511904D01*
X130633390Y-104511904D02*
X130442914Y-104464285D01*
X130442914Y-104464285D02*
X130347676Y-104416666D01*
X130347676Y-104416666D02*
X130252438Y-104321428D01*
X130252438Y-104321428D02*
X130204819Y-104178571D01*
X130204819Y-104178571D02*
X130204819Y-104083333D01*
X130204819Y-104083333D02*
X130252438Y-103940476D01*
X130252438Y-103940476D02*
X130300057Y-103892857D01*
X130300057Y-103511904D02*
X130252438Y-103464285D01*
X130252438Y-103464285D02*
X130204819Y-103369047D01*
X130204819Y-103369047D02*
X130204819Y-103130952D01*
X130204819Y-103130952D02*
X130252438Y-103035714D01*
X130252438Y-103035714D02*
X130300057Y-102988095D01*
X130300057Y-102988095D02*
X130395295Y-102940476D01*
X130395295Y-102940476D02*
X130490533Y-102940476D01*
X130490533Y-102940476D02*
X130633390Y-102988095D01*
X130633390Y-102988095D02*
X131204819Y-103559523D01*
X131204819Y-103559523D02*
X131204819Y-102940476D01*
X131204819Y-101988095D02*
X131204819Y-102559523D01*
X131204819Y-102273809D02*
X130204819Y-102273809D01*
X130204819Y-102273809D02*
X130347676Y-102369047D01*
X130347676Y-102369047D02*
X130442914Y-102464285D01*
X130442914Y-102464285D02*
X130490533Y-102559523D01*
X159357142Y-62359580D02*
X159309523Y-62407200D01*
X159309523Y-62407200D02*
X159166666Y-62454819D01*
X159166666Y-62454819D02*
X159071428Y-62454819D01*
X159071428Y-62454819D02*
X158928571Y-62407200D01*
X158928571Y-62407200D02*
X158833333Y-62311961D01*
X158833333Y-62311961D02*
X158785714Y-62216723D01*
X158785714Y-62216723D02*
X158738095Y-62026247D01*
X158738095Y-62026247D02*
X158738095Y-61883390D01*
X158738095Y-61883390D02*
X158785714Y-61692914D01*
X158785714Y-61692914D02*
X158833333Y-61597676D01*
X158833333Y-61597676D02*
X158928571Y-61502438D01*
X158928571Y-61502438D02*
X159071428Y-61454819D01*
X159071428Y-61454819D02*
X159166666Y-61454819D01*
X159166666Y-61454819D02*
X159309523Y-61502438D01*
X159309523Y-61502438D02*
X159357142Y-61550057D01*
X160309523Y-62454819D02*
X159738095Y-62454819D01*
X160023809Y-62454819D02*
X160023809Y-61454819D01*
X160023809Y-61454819D02*
X159928571Y-61597676D01*
X159928571Y-61597676D02*
X159833333Y-61692914D01*
X159833333Y-61692914D02*
X159738095Y-61740533D01*
X161214285Y-61454819D02*
X160738095Y-61454819D01*
X160738095Y-61454819D02*
X160690476Y-61931009D01*
X160690476Y-61931009D02*
X160738095Y-61883390D01*
X160738095Y-61883390D02*
X160833333Y-61835771D01*
X160833333Y-61835771D02*
X161071428Y-61835771D01*
X161071428Y-61835771D02*
X161166666Y-61883390D01*
X161166666Y-61883390D02*
X161214285Y-61931009D01*
X161214285Y-61931009D02*
X161261904Y-62026247D01*
X161261904Y-62026247D02*
X161261904Y-62264342D01*
X161261904Y-62264342D02*
X161214285Y-62359580D01*
X161214285Y-62359580D02*
X161166666Y-62407200D01*
X161166666Y-62407200D02*
X161071428Y-62454819D01*
X161071428Y-62454819D02*
X160833333Y-62454819D01*
X160833333Y-62454819D02*
X160738095Y-62407200D01*
X160738095Y-62407200D02*
X160690476Y-62359580D01*
X169357142Y-115109580D02*
X169309523Y-115157200D01*
X169309523Y-115157200D02*
X169166666Y-115204819D01*
X169166666Y-115204819D02*
X169071428Y-115204819D01*
X169071428Y-115204819D02*
X168928571Y-115157200D01*
X168928571Y-115157200D02*
X168833333Y-115061961D01*
X168833333Y-115061961D02*
X168785714Y-114966723D01*
X168785714Y-114966723D02*
X168738095Y-114776247D01*
X168738095Y-114776247D02*
X168738095Y-114633390D01*
X168738095Y-114633390D02*
X168785714Y-114442914D01*
X168785714Y-114442914D02*
X168833333Y-114347676D01*
X168833333Y-114347676D02*
X168928571Y-114252438D01*
X168928571Y-114252438D02*
X169071428Y-114204819D01*
X169071428Y-114204819D02*
X169166666Y-114204819D01*
X169166666Y-114204819D02*
X169309523Y-114252438D01*
X169309523Y-114252438D02*
X169357142Y-114300057D01*
X170309523Y-115204819D02*
X169738095Y-115204819D01*
X170023809Y-115204819D02*
X170023809Y-114204819D01*
X170023809Y-114204819D02*
X169928571Y-114347676D01*
X169928571Y-114347676D02*
X169833333Y-114442914D01*
X169833333Y-114442914D02*
X169738095Y-114490533D01*
X171261904Y-115204819D02*
X170690476Y-115204819D01*
X170976190Y-115204819D02*
X170976190Y-114204819D01*
X170976190Y-114204819D02*
X170880952Y-114347676D01*
X170880952Y-114347676D02*
X170785714Y-114442914D01*
X170785714Y-114442914D02*
X170690476Y-114490533D01*
X120204819Y-101892857D02*
X119728628Y-102226190D01*
X120204819Y-102464285D02*
X119204819Y-102464285D01*
X119204819Y-102464285D02*
X119204819Y-102083333D01*
X119204819Y-102083333D02*
X119252438Y-101988095D01*
X119252438Y-101988095D02*
X119300057Y-101940476D01*
X119300057Y-101940476D02*
X119395295Y-101892857D01*
X119395295Y-101892857D02*
X119538152Y-101892857D01*
X119538152Y-101892857D02*
X119633390Y-101940476D01*
X119633390Y-101940476D02*
X119681009Y-101988095D01*
X119681009Y-101988095D02*
X119728628Y-102083333D01*
X119728628Y-102083333D02*
X119728628Y-102464285D01*
X119300057Y-101511904D02*
X119252438Y-101464285D01*
X119252438Y-101464285D02*
X119204819Y-101369047D01*
X119204819Y-101369047D02*
X119204819Y-101130952D01*
X119204819Y-101130952D02*
X119252438Y-101035714D01*
X119252438Y-101035714D02*
X119300057Y-100988095D01*
X119300057Y-100988095D02*
X119395295Y-100940476D01*
X119395295Y-100940476D02*
X119490533Y-100940476D01*
X119490533Y-100940476D02*
X119633390Y-100988095D01*
X119633390Y-100988095D02*
X120204819Y-101559523D01*
X120204819Y-101559523D02*
X120204819Y-100940476D01*
X120204819Y-99988095D02*
X120204819Y-100559523D01*
X120204819Y-100273809D02*
X119204819Y-100273809D01*
X119204819Y-100273809D02*
X119347676Y-100369047D01*
X119347676Y-100369047D02*
X119442914Y-100464285D01*
X119442914Y-100464285D02*
X119490533Y-100559523D01*
X166583333Y-95539580D02*
X166535714Y-95587200D01*
X166535714Y-95587200D02*
X166392857Y-95634819D01*
X166392857Y-95634819D02*
X166297619Y-95634819D01*
X166297619Y-95634819D02*
X166154762Y-95587200D01*
X166154762Y-95587200D02*
X166059524Y-95491961D01*
X166059524Y-95491961D02*
X166011905Y-95396723D01*
X166011905Y-95396723D02*
X165964286Y-95206247D01*
X165964286Y-95206247D02*
X165964286Y-95063390D01*
X165964286Y-95063390D02*
X166011905Y-94872914D01*
X166011905Y-94872914D02*
X166059524Y-94777676D01*
X166059524Y-94777676D02*
X166154762Y-94682438D01*
X166154762Y-94682438D02*
X166297619Y-94634819D01*
X166297619Y-94634819D02*
X166392857Y-94634819D01*
X166392857Y-94634819D02*
X166535714Y-94682438D01*
X166535714Y-94682438D02*
X166583333Y-94730057D01*
X167059524Y-95634819D02*
X167250000Y-95634819D01*
X167250000Y-95634819D02*
X167345238Y-95587200D01*
X167345238Y-95587200D02*
X167392857Y-95539580D01*
X167392857Y-95539580D02*
X167488095Y-95396723D01*
X167488095Y-95396723D02*
X167535714Y-95206247D01*
X167535714Y-95206247D02*
X167535714Y-94825295D01*
X167535714Y-94825295D02*
X167488095Y-94730057D01*
X167488095Y-94730057D02*
X167440476Y-94682438D01*
X167440476Y-94682438D02*
X167345238Y-94634819D01*
X167345238Y-94634819D02*
X167154762Y-94634819D01*
X167154762Y-94634819D02*
X167059524Y-94682438D01*
X167059524Y-94682438D02*
X167011905Y-94730057D01*
X167011905Y-94730057D02*
X166964286Y-94825295D01*
X166964286Y-94825295D02*
X166964286Y-95063390D01*
X166964286Y-95063390D02*
X167011905Y-95158628D01*
X167011905Y-95158628D02*
X167059524Y-95206247D01*
X167059524Y-95206247D02*
X167154762Y-95253866D01*
X167154762Y-95253866D02*
X167345238Y-95253866D01*
X167345238Y-95253866D02*
X167440476Y-95206247D01*
X167440476Y-95206247D02*
X167488095Y-95158628D01*
X167488095Y-95158628D02*
X167535714Y-95063390D01*
X165409580Y-89666666D02*
X165457200Y-89714285D01*
X165457200Y-89714285D02*
X165504819Y-89857142D01*
X165504819Y-89857142D02*
X165504819Y-89952380D01*
X165504819Y-89952380D02*
X165457200Y-90095237D01*
X165457200Y-90095237D02*
X165361961Y-90190475D01*
X165361961Y-90190475D02*
X165266723Y-90238094D01*
X165266723Y-90238094D02*
X165076247Y-90285713D01*
X165076247Y-90285713D02*
X164933390Y-90285713D01*
X164933390Y-90285713D02*
X164742914Y-90238094D01*
X164742914Y-90238094D02*
X164647676Y-90190475D01*
X164647676Y-90190475D02*
X164552438Y-90095237D01*
X164552438Y-90095237D02*
X164504819Y-89952380D01*
X164504819Y-89952380D02*
X164504819Y-89857142D01*
X164504819Y-89857142D02*
X164552438Y-89714285D01*
X164552438Y-89714285D02*
X164600057Y-89666666D01*
X164504819Y-89333332D02*
X164504819Y-88666666D01*
X164504819Y-88666666D02*
X165504819Y-89095237D01*
D12*
X119050842Y-112906103D02*
X119478473Y-113333735D01*
X118281105Y-112735051D02*
X119050842Y-112906103D01*
X119050842Y-112906103D02*
X118879789Y-112136367D01*
X120547551Y-112264657D02*
X120034393Y-112777814D01*
X120290972Y-112521236D02*
X119392946Y-111623210D01*
X119392946Y-111623210D02*
X119435710Y-111837026D01*
X119435710Y-111837026D02*
X119435710Y-112008078D01*
X119435710Y-112008078D02*
X119392946Y-112136367D01*
D11*
X166359580Y-119416666D02*
X166407200Y-119464285D01*
X166407200Y-119464285D02*
X166454819Y-119607142D01*
X166454819Y-119607142D02*
X166454819Y-119702380D01*
X166454819Y-119702380D02*
X166407200Y-119845237D01*
X166407200Y-119845237D02*
X166311961Y-119940475D01*
X166311961Y-119940475D02*
X166216723Y-119988094D01*
X166216723Y-119988094D02*
X166026247Y-120035713D01*
X166026247Y-120035713D02*
X165883390Y-120035713D01*
X165883390Y-120035713D02*
X165692914Y-119988094D01*
X165692914Y-119988094D02*
X165597676Y-119940475D01*
X165597676Y-119940475D02*
X165502438Y-119845237D01*
X165502438Y-119845237D02*
X165454819Y-119702380D01*
X165454819Y-119702380D02*
X165454819Y-119607142D01*
X165454819Y-119607142D02*
X165502438Y-119464285D01*
X165502438Y-119464285D02*
X165550057Y-119416666D01*
X165454819Y-119083332D02*
X165454819Y-118464285D01*
X165454819Y-118464285D02*
X165835771Y-118797618D01*
X165835771Y-118797618D02*
X165835771Y-118654761D01*
X165835771Y-118654761D02*
X165883390Y-118559523D01*
X165883390Y-118559523D02*
X165931009Y-118511904D01*
X165931009Y-118511904D02*
X166026247Y-118464285D01*
X166026247Y-118464285D02*
X166264342Y-118464285D01*
X166264342Y-118464285D02*
X166359580Y-118511904D01*
X166359580Y-118511904D02*
X166407200Y-118559523D01*
X166407200Y-118559523D02*
X166454819Y-118654761D01*
X166454819Y-118654761D02*
X166454819Y-118940475D01*
X166454819Y-118940475D02*
X166407200Y-119035713D01*
X166407200Y-119035713D02*
X166359580Y-119083332D01*
X183039580Y-89416666D02*
X183087200Y-89464285D01*
X183087200Y-89464285D02*
X183134819Y-89607142D01*
X183134819Y-89607142D02*
X183134819Y-89702380D01*
X183134819Y-89702380D02*
X183087200Y-89845237D01*
X183087200Y-89845237D02*
X182991961Y-89940475D01*
X182991961Y-89940475D02*
X182896723Y-89988094D01*
X182896723Y-89988094D02*
X182706247Y-90035713D01*
X182706247Y-90035713D02*
X182563390Y-90035713D01*
X182563390Y-90035713D02*
X182372914Y-89988094D01*
X182372914Y-89988094D02*
X182277676Y-89940475D01*
X182277676Y-89940475D02*
X182182438Y-89845237D01*
X182182438Y-89845237D02*
X182134819Y-89702380D01*
X182134819Y-89702380D02*
X182134819Y-89607142D01*
X182134819Y-89607142D02*
X182182438Y-89464285D01*
X182182438Y-89464285D02*
X182230057Y-89416666D01*
X182134819Y-88511904D02*
X182134819Y-88988094D01*
X182134819Y-88988094D02*
X182611009Y-89035713D01*
X182611009Y-89035713D02*
X182563390Y-88988094D01*
X182563390Y-88988094D02*
X182515771Y-88892856D01*
X182515771Y-88892856D02*
X182515771Y-88654761D01*
X182515771Y-88654761D02*
X182563390Y-88559523D01*
X182563390Y-88559523D02*
X182611009Y-88511904D01*
X182611009Y-88511904D02*
X182706247Y-88464285D01*
X182706247Y-88464285D02*
X182944342Y-88464285D01*
X182944342Y-88464285D02*
X183039580Y-88511904D01*
X183039580Y-88511904D02*
X183087200Y-88559523D01*
X183087200Y-88559523D02*
X183134819Y-88654761D01*
X183134819Y-88654761D02*
X183134819Y-88892856D01*
X183134819Y-88892856D02*
X183087200Y-88988094D01*
X183087200Y-88988094D02*
X183039580Y-89035713D01*
D12*
X176574318Y-92292143D02*
X175304318Y-92292143D01*
X175304318Y-92292143D02*
X175304318Y-91808333D01*
X175304318Y-91808333D02*
X175364794Y-91687381D01*
X175364794Y-91687381D02*
X175425270Y-91626904D01*
X175425270Y-91626904D02*
X175546222Y-91566428D01*
X175546222Y-91566428D02*
X175727651Y-91566428D01*
X175727651Y-91566428D02*
X175848603Y-91626904D01*
X175848603Y-91626904D02*
X175909080Y-91687381D01*
X175909080Y-91687381D02*
X175969556Y-91808333D01*
X175969556Y-91808333D02*
X175969556Y-92292143D01*
X176513842Y-91082619D02*
X176574318Y-90901190D01*
X176574318Y-90901190D02*
X176574318Y-90598809D01*
X176574318Y-90598809D02*
X176513842Y-90477857D01*
X176513842Y-90477857D02*
X176453365Y-90417381D01*
X176453365Y-90417381D02*
X176332413Y-90356904D01*
X176332413Y-90356904D02*
X176211461Y-90356904D01*
X176211461Y-90356904D02*
X176090508Y-90417381D01*
X176090508Y-90417381D02*
X176030032Y-90477857D01*
X176030032Y-90477857D02*
X175969556Y-90598809D01*
X175969556Y-90598809D02*
X175909080Y-90840714D01*
X175909080Y-90840714D02*
X175848603Y-90961666D01*
X175848603Y-90961666D02*
X175788127Y-91022143D01*
X175788127Y-91022143D02*
X175667175Y-91082619D01*
X175667175Y-91082619D02*
X175546222Y-91082619D01*
X175546222Y-91082619D02*
X175425270Y-91022143D01*
X175425270Y-91022143D02*
X175364794Y-90961666D01*
X175364794Y-90961666D02*
X175304318Y-90840714D01*
X175304318Y-90840714D02*
X175304318Y-90538333D01*
X175304318Y-90538333D02*
X175364794Y-90356904D01*
X175425270Y-89873095D02*
X175364794Y-89812619D01*
X175364794Y-89812619D02*
X175304318Y-89691666D01*
X175304318Y-89691666D02*
X175304318Y-89389285D01*
X175304318Y-89389285D02*
X175364794Y-89268333D01*
X175364794Y-89268333D02*
X175425270Y-89207857D01*
X175425270Y-89207857D02*
X175546222Y-89147380D01*
X175546222Y-89147380D02*
X175667175Y-89147380D01*
X175667175Y-89147380D02*
X175848603Y-89207857D01*
X175848603Y-89207857D02*
X176574318Y-89933571D01*
X176574318Y-89933571D02*
X176574318Y-89147380D01*
D11*
X132859580Y-103892857D02*
X132907200Y-103940476D01*
X132907200Y-103940476D02*
X132954819Y-104083333D01*
X132954819Y-104083333D02*
X132954819Y-104178571D01*
X132954819Y-104178571D02*
X132907200Y-104321428D01*
X132907200Y-104321428D02*
X132811961Y-104416666D01*
X132811961Y-104416666D02*
X132716723Y-104464285D01*
X132716723Y-104464285D02*
X132526247Y-104511904D01*
X132526247Y-104511904D02*
X132383390Y-104511904D01*
X132383390Y-104511904D02*
X132192914Y-104464285D01*
X132192914Y-104464285D02*
X132097676Y-104416666D01*
X132097676Y-104416666D02*
X132002438Y-104321428D01*
X132002438Y-104321428D02*
X131954819Y-104178571D01*
X131954819Y-104178571D02*
X131954819Y-104083333D01*
X131954819Y-104083333D02*
X132002438Y-103940476D01*
X132002438Y-103940476D02*
X132050057Y-103892857D01*
X132050057Y-103511904D02*
X132002438Y-103464285D01*
X132002438Y-103464285D02*
X131954819Y-103369047D01*
X131954819Y-103369047D02*
X131954819Y-103130952D01*
X131954819Y-103130952D02*
X132002438Y-103035714D01*
X132002438Y-103035714D02*
X132050057Y-102988095D01*
X132050057Y-102988095D02*
X132145295Y-102940476D01*
X132145295Y-102940476D02*
X132240533Y-102940476D01*
X132240533Y-102940476D02*
X132383390Y-102988095D01*
X132383390Y-102988095D02*
X132954819Y-103559523D01*
X132954819Y-103559523D02*
X132954819Y-102940476D01*
X132050057Y-102559523D02*
X132002438Y-102511904D01*
X132002438Y-102511904D02*
X131954819Y-102416666D01*
X131954819Y-102416666D02*
X131954819Y-102178571D01*
X131954819Y-102178571D02*
X132002438Y-102083333D01*
X132002438Y-102083333D02*
X132050057Y-102035714D01*
X132050057Y-102035714D02*
X132145295Y-101988095D01*
X132145295Y-101988095D02*
X132240533Y-101988095D01*
X132240533Y-101988095D02*
X132383390Y-102035714D01*
X132383390Y-102035714D02*
X132954819Y-102607142D01*
X132954819Y-102607142D02*
X132954819Y-101988095D01*
D12*
X128760237Y-48074318D02*
X128760237Y-46804318D01*
X130090714Y-47953365D02*
X130030238Y-48013842D01*
X130030238Y-48013842D02*
X129848809Y-48074318D01*
X129848809Y-48074318D02*
X129727857Y-48074318D01*
X129727857Y-48074318D02*
X129546428Y-48013842D01*
X129546428Y-48013842D02*
X129425476Y-47892889D01*
X129425476Y-47892889D02*
X129364999Y-47771937D01*
X129364999Y-47771937D02*
X129304523Y-47530032D01*
X129304523Y-47530032D02*
X129304523Y-47348603D01*
X129304523Y-47348603D02*
X129364999Y-47106699D01*
X129364999Y-47106699D02*
X129425476Y-46985746D01*
X129425476Y-46985746D02*
X129546428Y-46864794D01*
X129546428Y-46864794D02*
X129727857Y-46804318D01*
X129727857Y-46804318D02*
X129848809Y-46804318D01*
X129848809Y-46804318D02*
X130030238Y-46864794D01*
X130030238Y-46864794D02*
X130090714Y-46925270D01*
X130574523Y-46925270D02*
X130634999Y-46864794D01*
X130634999Y-46864794D02*
X130755952Y-46804318D01*
X130755952Y-46804318D02*
X131058333Y-46804318D01*
X131058333Y-46804318D02*
X131179285Y-46864794D01*
X131179285Y-46864794D02*
X131239761Y-46925270D01*
X131239761Y-46925270D02*
X131300238Y-47046222D01*
X131300238Y-47046222D02*
X131300238Y-47167175D01*
X131300238Y-47167175D02*
X131239761Y-47348603D01*
X131239761Y-47348603D02*
X130514047Y-48074318D01*
X130514047Y-48074318D02*
X131300238Y-48074318D01*
D11*
X126357142Y-105359580D02*
X126309523Y-105407200D01*
X126309523Y-105407200D02*
X126166666Y-105454819D01*
X126166666Y-105454819D02*
X126071428Y-105454819D01*
X126071428Y-105454819D02*
X125928571Y-105407200D01*
X125928571Y-105407200D02*
X125833333Y-105311961D01*
X125833333Y-105311961D02*
X125785714Y-105216723D01*
X125785714Y-105216723D02*
X125738095Y-105026247D01*
X125738095Y-105026247D02*
X125738095Y-104883390D01*
X125738095Y-104883390D02*
X125785714Y-104692914D01*
X125785714Y-104692914D02*
X125833333Y-104597676D01*
X125833333Y-104597676D02*
X125928571Y-104502438D01*
X125928571Y-104502438D02*
X126071428Y-104454819D01*
X126071428Y-104454819D02*
X126166666Y-104454819D01*
X126166666Y-104454819D02*
X126309523Y-104502438D01*
X126309523Y-104502438D02*
X126357142Y-104550057D01*
X126738095Y-104550057D02*
X126785714Y-104502438D01*
X126785714Y-104502438D02*
X126880952Y-104454819D01*
X126880952Y-104454819D02*
X127119047Y-104454819D01*
X127119047Y-104454819D02*
X127214285Y-104502438D01*
X127214285Y-104502438D02*
X127261904Y-104550057D01*
X127261904Y-104550057D02*
X127309523Y-104645295D01*
X127309523Y-104645295D02*
X127309523Y-104740533D01*
X127309523Y-104740533D02*
X127261904Y-104883390D01*
X127261904Y-104883390D02*
X126690476Y-105454819D01*
X126690476Y-105454819D02*
X127309523Y-105454819D01*
X127928571Y-104454819D02*
X128023809Y-104454819D01*
X128023809Y-104454819D02*
X128119047Y-104502438D01*
X128119047Y-104502438D02*
X128166666Y-104550057D01*
X128166666Y-104550057D02*
X128214285Y-104645295D01*
X128214285Y-104645295D02*
X128261904Y-104835771D01*
X128261904Y-104835771D02*
X128261904Y-105073866D01*
X128261904Y-105073866D02*
X128214285Y-105264342D01*
X128214285Y-105264342D02*
X128166666Y-105359580D01*
X128166666Y-105359580D02*
X128119047Y-105407200D01*
X128119047Y-105407200D02*
X128023809Y-105454819D01*
X128023809Y-105454819D02*
X127928571Y-105454819D01*
X127928571Y-105454819D02*
X127833333Y-105407200D01*
X127833333Y-105407200D02*
X127785714Y-105359580D01*
X127785714Y-105359580D02*
X127738095Y-105264342D01*
X127738095Y-105264342D02*
X127690476Y-105073866D01*
X127690476Y-105073866D02*
X127690476Y-104835771D01*
X127690476Y-104835771D02*
X127738095Y-104645295D01*
X127738095Y-104645295D02*
X127785714Y-104550057D01*
X127785714Y-104550057D02*
X127833333Y-104502438D01*
X127833333Y-104502438D02*
X127928571Y-104454819D01*
X124857142Y-119609580D02*
X124809523Y-119657200D01*
X124809523Y-119657200D02*
X124666666Y-119704819D01*
X124666666Y-119704819D02*
X124571428Y-119704819D01*
X124571428Y-119704819D02*
X124428571Y-119657200D01*
X124428571Y-119657200D02*
X124333333Y-119561961D01*
X124333333Y-119561961D02*
X124285714Y-119466723D01*
X124285714Y-119466723D02*
X124238095Y-119276247D01*
X124238095Y-119276247D02*
X124238095Y-119133390D01*
X124238095Y-119133390D02*
X124285714Y-118942914D01*
X124285714Y-118942914D02*
X124333333Y-118847676D01*
X124333333Y-118847676D02*
X124428571Y-118752438D01*
X124428571Y-118752438D02*
X124571428Y-118704819D01*
X124571428Y-118704819D02*
X124666666Y-118704819D01*
X124666666Y-118704819D02*
X124809523Y-118752438D01*
X124809523Y-118752438D02*
X124857142Y-118800057D01*
X125238095Y-118800057D02*
X125285714Y-118752438D01*
X125285714Y-118752438D02*
X125380952Y-118704819D01*
X125380952Y-118704819D02*
X125619047Y-118704819D01*
X125619047Y-118704819D02*
X125714285Y-118752438D01*
X125714285Y-118752438D02*
X125761904Y-118800057D01*
X125761904Y-118800057D02*
X125809523Y-118895295D01*
X125809523Y-118895295D02*
X125809523Y-118990533D01*
X125809523Y-118990533D02*
X125761904Y-119133390D01*
X125761904Y-119133390D02*
X125190476Y-119704819D01*
X125190476Y-119704819D02*
X125809523Y-119704819D01*
X126142857Y-118704819D02*
X126761904Y-118704819D01*
X126761904Y-118704819D02*
X126428571Y-119085771D01*
X126428571Y-119085771D02*
X126571428Y-119085771D01*
X126571428Y-119085771D02*
X126666666Y-119133390D01*
X126666666Y-119133390D02*
X126714285Y-119181009D01*
X126714285Y-119181009D02*
X126761904Y-119276247D01*
X126761904Y-119276247D02*
X126761904Y-119514342D01*
X126761904Y-119514342D02*
X126714285Y-119609580D01*
X126714285Y-119609580D02*
X126666666Y-119657200D01*
X126666666Y-119657200D02*
X126571428Y-119704819D01*
X126571428Y-119704819D02*
X126285714Y-119704819D01*
X126285714Y-119704819D02*
X126190476Y-119657200D01*
X126190476Y-119657200D02*
X126142857Y-119609580D01*
X118359580Y-118892857D02*
X118407200Y-118940476D01*
X118407200Y-118940476D02*
X118454819Y-119083333D01*
X118454819Y-119083333D02*
X118454819Y-119178571D01*
X118454819Y-119178571D02*
X118407200Y-119321428D01*
X118407200Y-119321428D02*
X118311961Y-119416666D01*
X118311961Y-119416666D02*
X118216723Y-119464285D01*
X118216723Y-119464285D02*
X118026247Y-119511904D01*
X118026247Y-119511904D02*
X117883390Y-119511904D01*
X117883390Y-119511904D02*
X117692914Y-119464285D01*
X117692914Y-119464285D02*
X117597676Y-119416666D01*
X117597676Y-119416666D02*
X117502438Y-119321428D01*
X117502438Y-119321428D02*
X117454819Y-119178571D01*
X117454819Y-119178571D02*
X117454819Y-119083333D01*
X117454819Y-119083333D02*
X117502438Y-118940476D01*
X117502438Y-118940476D02*
X117550057Y-118892857D01*
X118454819Y-117940476D02*
X118454819Y-118511904D01*
X118454819Y-118226190D02*
X117454819Y-118226190D01*
X117454819Y-118226190D02*
X117597676Y-118321428D01*
X117597676Y-118321428D02*
X117692914Y-118416666D01*
X117692914Y-118416666D02*
X117740533Y-118511904D01*
X117883390Y-117369047D02*
X117835771Y-117464285D01*
X117835771Y-117464285D02*
X117788152Y-117511904D01*
X117788152Y-117511904D02*
X117692914Y-117559523D01*
X117692914Y-117559523D02*
X117645295Y-117559523D01*
X117645295Y-117559523D02*
X117550057Y-117511904D01*
X117550057Y-117511904D02*
X117502438Y-117464285D01*
X117502438Y-117464285D02*
X117454819Y-117369047D01*
X117454819Y-117369047D02*
X117454819Y-117178571D01*
X117454819Y-117178571D02*
X117502438Y-117083333D01*
X117502438Y-117083333D02*
X117550057Y-117035714D01*
X117550057Y-117035714D02*
X117645295Y-116988095D01*
X117645295Y-116988095D02*
X117692914Y-116988095D01*
X117692914Y-116988095D02*
X117788152Y-117035714D01*
X117788152Y-117035714D02*
X117835771Y-117083333D01*
X117835771Y-117083333D02*
X117883390Y-117178571D01*
X117883390Y-117178571D02*
X117883390Y-117369047D01*
X117883390Y-117369047D02*
X117931009Y-117464285D01*
X117931009Y-117464285D02*
X117978628Y-117511904D01*
X117978628Y-117511904D02*
X118073866Y-117559523D01*
X118073866Y-117559523D02*
X118264342Y-117559523D01*
X118264342Y-117559523D02*
X118359580Y-117511904D01*
X118359580Y-117511904D02*
X118407200Y-117464285D01*
X118407200Y-117464285D02*
X118454819Y-117369047D01*
X118454819Y-117369047D02*
X118454819Y-117178571D01*
X118454819Y-117178571D02*
X118407200Y-117083333D01*
X118407200Y-117083333D02*
X118359580Y-117035714D01*
X118359580Y-117035714D02*
X118264342Y-116988095D01*
X118264342Y-116988095D02*
X118073866Y-116988095D01*
X118073866Y-116988095D02*
X117978628Y-117035714D01*
X117978628Y-117035714D02*
X117931009Y-117083333D01*
X117931009Y-117083333D02*
X117883390Y-117178571D01*
X116359580Y-105392857D02*
X116407200Y-105440476D01*
X116407200Y-105440476D02*
X116454819Y-105583333D01*
X116454819Y-105583333D02*
X116454819Y-105678571D01*
X116454819Y-105678571D02*
X116407200Y-105821428D01*
X116407200Y-105821428D02*
X116311961Y-105916666D01*
X116311961Y-105916666D02*
X116216723Y-105964285D01*
X116216723Y-105964285D02*
X116026247Y-106011904D01*
X116026247Y-106011904D02*
X115883390Y-106011904D01*
X115883390Y-106011904D02*
X115692914Y-105964285D01*
X115692914Y-105964285D02*
X115597676Y-105916666D01*
X115597676Y-105916666D02*
X115502438Y-105821428D01*
X115502438Y-105821428D02*
X115454819Y-105678571D01*
X115454819Y-105678571D02*
X115454819Y-105583333D01*
X115454819Y-105583333D02*
X115502438Y-105440476D01*
X115502438Y-105440476D02*
X115550057Y-105392857D01*
X115550057Y-105011904D02*
X115502438Y-104964285D01*
X115502438Y-104964285D02*
X115454819Y-104869047D01*
X115454819Y-104869047D02*
X115454819Y-104630952D01*
X115454819Y-104630952D02*
X115502438Y-104535714D01*
X115502438Y-104535714D02*
X115550057Y-104488095D01*
X115550057Y-104488095D02*
X115645295Y-104440476D01*
X115645295Y-104440476D02*
X115740533Y-104440476D01*
X115740533Y-104440476D02*
X115883390Y-104488095D01*
X115883390Y-104488095D02*
X116454819Y-105059523D01*
X116454819Y-105059523D02*
X116454819Y-104440476D01*
X115454819Y-104107142D02*
X115454819Y-103440476D01*
X115454819Y-103440476D02*
X116454819Y-103869047D01*
D12*
X158574318Y-125739762D02*
X157304318Y-125739762D01*
X158453365Y-124409285D02*
X158513842Y-124469761D01*
X158513842Y-124469761D02*
X158574318Y-124651190D01*
X158574318Y-124651190D02*
X158574318Y-124772142D01*
X158574318Y-124772142D02*
X158513842Y-124953571D01*
X158513842Y-124953571D02*
X158392889Y-125074523D01*
X158392889Y-125074523D02*
X158271937Y-125135000D01*
X158271937Y-125135000D02*
X158030032Y-125195476D01*
X158030032Y-125195476D02*
X157848603Y-125195476D01*
X157848603Y-125195476D02*
X157606699Y-125135000D01*
X157606699Y-125135000D02*
X157485746Y-125074523D01*
X157485746Y-125074523D02*
X157364794Y-124953571D01*
X157364794Y-124953571D02*
X157304318Y-124772142D01*
X157304318Y-124772142D02*
X157304318Y-124651190D01*
X157304318Y-124651190D02*
X157364794Y-124469761D01*
X157364794Y-124469761D02*
X157425270Y-124409285D01*
X157304318Y-123320714D02*
X157304318Y-123562619D01*
X157304318Y-123562619D02*
X157364794Y-123683571D01*
X157364794Y-123683571D02*
X157425270Y-123744047D01*
X157425270Y-123744047D02*
X157606699Y-123865000D01*
X157606699Y-123865000D02*
X157848603Y-123925476D01*
X157848603Y-123925476D02*
X158332413Y-123925476D01*
X158332413Y-123925476D02*
X158453365Y-123865000D01*
X158453365Y-123865000D02*
X158513842Y-123804523D01*
X158513842Y-123804523D02*
X158574318Y-123683571D01*
X158574318Y-123683571D02*
X158574318Y-123441666D01*
X158574318Y-123441666D02*
X158513842Y-123320714D01*
X158513842Y-123320714D02*
X158453365Y-123260238D01*
X158453365Y-123260238D02*
X158332413Y-123199761D01*
X158332413Y-123199761D02*
X158030032Y-123199761D01*
X158030032Y-123199761D02*
X157909080Y-123260238D01*
X157909080Y-123260238D02*
X157848603Y-123320714D01*
X157848603Y-123320714D02*
X157788127Y-123441666D01*
X157788127Y-123441666D02*
X157788127Y-123683571D01*
X157788127Y-123683571D02*
X157848603Y-123804523D01*
X157848603Y-123804523D02*
X157909080Y-123865000D01*
X157909080Y-123865000D02*
X158030032Y-123925476D01*
D11*
X116359580Y-117892857D02*
X116407200Y-117940476D01*
X116407200Y-117940476D02*
X116454819Y-118083333D01*
X116454819Y-118083333D02*
X116454819Y-118178571D01*
X116454819Y-118178571D02*
X116407200Y-118321428D01*
X116407200Y-118321428D02*
X116311961Y-118416666D01*
X116311961Y-118416666D02*
X116216723Y-118464285D01*
X116216723Y-118464285D02*
X116026247Y-118511904D01*
X116026247Y-118511904D02*
X115883390Y-118511904D01*
X115883390Y-118511904D02*
X115692914Y-118464285D01*
X115692914Y-118464285D02*
X115597676Y-118416666D01*
X115597676Y-118416666D02*
X115502438Y-118321428D01*
X115502438Y-118321428D02*
X115454819Y-118178571D01*
X115454819Y-118178571D02*
X115454819Y-118083333D01*
X115454819Y-118083333D02*
X115502438Y-117940476D01*
X115502438Y-117940476D02*
X115550057Y-117892857D01*
X115550057Y-117511904D02*
X115502438Y-117464285D01*
X115502438Y-117464285D02*
X115454819Y-117369047D01*
X115454819Y-117369047D02*
X115454819Y-117130952D01*
X115454819Y-117130952D02*
X115502438Y-117035714D01*
X115502438Y-117035714D02*
X115550057Y-116988095D01*
X115550057Y-116988095D02*
X115645295Y-116940476D01*
X115645295Y-116940476D02*
X115740533Y-116940476D01*
X115740533Y-116940476D02*
X115883390Y-116988095D01*
X115883390Y-116988095D02*
X116454819Y-117559523D01*
X116454819Y-117559523D02*
X116454819Y-116940476D01*
X115454819Y-116083333D02*
X115454819Y-116273809D01*
X115454819Y-116273809D02*
X115502438Y-116369047D01*
X115502438Y-116369047D02*
X115550057Y-116416666D01*
X115550057Y-116416666D02*
X115692914Y-116511904D01*
X115692914Y-116511904D02*
X115883390Y-116559523D01*
X115883390Y-116559523D02*
X116264342Y-116559523D01*
X116264342Y-116559523D02*
X116359580Y-116511904D01*
X116359580Y-116511904D02*
X116407200Y-116464285D01*
X116407200Y-116464285D02*
X116454819Y-116369047D01*
X116454819Y-116369047D02*
X116454819Y-116178571D01*
X116454819Y-116178571D02*
X116407200Y-116083333D01*
X116407200Y-116083333D02*
X116359580Y-116035714D01*
X116359580Y-116035714D02*
X116264342Y-115988095D01*
X116264342Y-115988095D02*
X116026247Y-115988095D01*
X116026247Y-115988095D02*
X115931009Y-116035714D01*
X115931009Y-116035714D02*
X115883390Y-116083333D01*
X115883390Y-116083333D02*
X115835771Y-116178571D01*
X115835771Y-116178571D02*
X115835771Y-116369047D01*
X115835771Y-116369047D02*
X115883390Y-116464285D01*
X115883390Y-116464285D02*
X115931009Y-116511904D01*
X115931009Y-116511904D02*
X116026247Y-116559523D01*
X179107142Y-86704819D02*
X178773809Y-86228628D01*
X178535714Y-86704819D02*
X178535714Y-85704819D01*
X178535714Y-85704819D02*
X178916666Y-85704819D01*
X178916666Y-85704819D02*
X179011904Y-85752438D01*
X179011904Y-85752438D02*
X179059523Y-85800057D01*
X179059523Y-85800057D02*
X179107142Y-85895295D01*
X179107142Y-85895295D02*
X179107142Y-86038152D01*
X179107142Y-86038152D02*
X179059523Y-86133390D01*
X179059523Y-86133390D02*
X179011904Y-86181009D01*
X179011904Y-86181009D02*
X178916666Y-86228628D01*
X178916666Y-86228628D02*
X178535714Y-86228628D01*
X179488095Y-85800057D02*
X179535714Y-85752438D01*
X179535714Y-85752438D02*
X179630952Y-85704819D01*
X179630952Y-85704819D02*
X179869047Y-85704819D01*
X179869047Y-85704819D02*
X179964285Y-85752438D01*
X179964285Y-85752438D02*
X180011904Y-85800057D01*
X180011904Y-85800057D02*
X180059523Y-85895295D01*
X180059523Y-85895295D02*
X180059523Y-85990533D01*
X180059523Y-85990533D02*
X180011904Y-86133390D01*
X180011904Y-86133390D02*
X179440476Y-86704819D01*
X179440476Y-86704819D02*
X180059523Y-86704819D01*
X180392857Y-85704819D02*
X181011904Y-85704819D01*
X181011904Y-85704819D02*
X180678571Y-86085771D01*
X180678571Y-86085771D02*
X180821428Y-86085771D01*
X180821428Y-86085771D02*
X180916666Y-86133390D01*
X180916666Y-86133390D02*
X180964285Y-86181009D01*
X180964285Y-86181009D02*
X181011904Y-86276247D01*
X181011904Y-86276247D02*
X181011904Y-86514342D01*
X181011904Y-86514342D02*
X180964285Y-86609580D01*
X180964285Y-86609580D02*
X180916666Y-86657200D01*
X180916666Y-86657200D02*
X180821428Y-86704819D01*
X180821428Y-86704819D02*
X180535714Y-86704819D01*
X180535714Y-86704819D02*
X180440476Y-86657200D01*
X180440476Y-86657200D02*
X180392857Y-86609580D01*
X164609580Y-119416666D02*
X164657200Y-119464285D01*
X164657200Y-119464285D02*
X164704819Y-119607142D01*
X164704819Y-119607142D02*
X164704819Y-119702380D01*
X164704819Y-119702380D02*
X164657200Y-119845237D01*
X164657200Y-119845237D02*
X164561961Y-119940475D01*
X164561961Y-119940475D02*
X164466723Y-119988094D01*
X164466723Y-119988094D02*
X164276247Y-120035713D01*
X164276247Y-120035713D02*
X164133390Y-120035713D01*
X164133390Y-120035713D02*
X163942914Y-119988094D01*
X163942914Y-119988094D02*
X163847676Y-119940475D01*
X163847676Y-119940475D02*
X163752438Y-119845237D01*
X163752438Y-119845237D02*
X163704819Y-119702380D01*
X163704819Y-119702380D02*
X163704819Y-119607142D01*
X163704819Y-119607142D02*
X163752438Y-119464285D01*
X163752438Y-119464285D02*
X163800057Y-119416666D01*
X163704819Y-118559523D02*
X163704819Y-118749999D01*
X163704819Y-118749999D02*
X163752438Y-118845237D01*
X163752438Y-118845237D02*
X163800057Y-118892856D01*
X163800057Y-118892856D02*
X163942914Y-118988094D01*
X163942914Y-118988094D02*
X164133390Y-119035713D01*
X164133390Y-119035713D02*
X164514342Y-119035713D01*
X164514342Y-119035713D02*
X164609580Y-118988094D01*
X164609580Y-118988094D02*
X164657200Y-118940475D01*
X164657200Y-118940475D02*
X164704819Y-118845237D01*
X164704819Y-118845237D02*
X164704819Y-118654761D01*
X164704819Y-118654761D02*
X164657200Y-118559523D01*
X164657200Y-118559523D02*
X164609580Y-118511904D01*
X164609580Y-118511904D02*
X164514342Y-118464285D01*
X164514342Y-118464285D02*
X164276247Y-118464285D01*
X164276247Y-118464285D02*
X164181009Y-118511904D01*
X164181009Y-118511904D02*
X164133390Y-118559523D01*
X164133390Y-118559523D02*
X164085771Y-118654761D01*
X164085771Y-118654761D02*
X164085771Y-118845237D01*
X164085771Y-118845237D02*
X164133390Y-118940475D01*
X164133390Y-118940475D02*
X164181009Y-118988094D01*
X164181009Y-118988094D02*
X164276247Y-119035713D01*
X120109580Y-118892857D02*
X120157200Y-118940476D01*
X120157200Y-118940476D02*
X120204819Y-119083333D01*
X120204819Y-119083333D02*
X120204819Y-119178571D01*
X120204819Y-119178571D02*
X120157200Y-119321428D01*
X120157200Y-119321428D02*
X120061961Y-119416666D01*
X120061961Y-119416666D02*
X119966723Y-119464285D01*
X119966723Y-119464285D02*
X119776247Y-119511904D01*
X119776247Y-119511904D02*
X119633390Y-119511904D01*
X119633390Y-119511904D02*
X119442914Y-119464285D01*
X119442914Y-119464285D02*
X119347676Y-119416666D01*
X119347676Y-119416666D02*
X119252438Y-119321428D01*
X119252438Y-119321428D02*
X119204819Y-119178571D01*
X119204819Y-119178571D02*
X119204819Y-119083333D01*
X119204819Y-119083333D02*
X119252438Y-118940476D01*
X119252438Y-118940476D02*
X119300057Y-118892857D01*
X119300057Y-118511904D02*
X119252438Y-118464285D01*
X119252438Y-118464285D02*
X119204819Y-118369047D01*
X119204819Y-118369047D02*
X119204819Y-118130952D01*
X119204819Y-118130952D02*
X119252438Y-118035714D01*
X119252438Y-118035714D02*
X119300057Y-117988095D01*
X119300057Y-117988095D02*
X119395295Y-117940476D01*
X119395295Y-117940476D02*
X119490533Y-117940476D01*
X119490533Y-117940476D02*
X119633390Y-117988095D01*
X119633390Y-117988095D02*
X120204819Y-118559523D01*
X120204819Y-118559523D02*
X120204819Y-117940476D01*
X119204819Y-117035714D02*
X119204819Y-117511904D01*
X119204819Y-117511904D02*
X119681009Y-117559523D01*
X119681009Y-117559523D02*
X119633390Y-117511904D01*
X119633390Y-117511904D02*
X119585771Y-117416666D01*
X119585771Y-117416666D02*
X119585771Y-117178571D01*
X119585771Y-117178571D02*
X119633390Y-117083333D01*
X119633390Y-117083333D02*
X119681009Y-117035714D01*
X119681009Y-117035714D02*
X119776247Y-116988095D01*
X119776247Y-116988095D02*
X120014342Y-116988095D01*
X120014342Y-116988095D02*
X120109580Y-117035714D01*
X120109580Y-117035714D02*
X120157200Y-117083333D01*
X120157200Y-117083333D02*
X120204819Y-117178571D01*
X120204819Y-117178571D02*
X120204819Y-117416666D01*
X120204819Y-117416666D02*
X120157200Y-117511904D01*
X120157200Y-117511904D02*
X120109580Y-117559523D01*
X158704819Y-129166666D02*
X158228628Y-129499999D01*
X158704819Y-129738094D02*
X157704819Y-129738094D01*
X157704819Y-129738094D02*
X157704819Y-129357142D01*
X157704819Y-129357142D02*
X157752438Y-129261904D01*
X157752438Y-129261904D02*
X157800057Y-129214285D01*
X157800057Y-129214285D02*
X157895295Y-129166666D01*
X157895295Y-129166666D02*
X158038152Y-129166666D01*
X158038152Y-129166666D02*
X158133390Y-129214285D01*
X158133390Y-129214285D02*
X158181009Y-129261904D01*
X158181009Y-129261904D02*
X158228628Y-129357142D01*
X158228628Y-129357142D02*
X158228628Y-129738094D01*
X158038152Y-128309523D02*
X158704819Y-128309523D01*
X157657200Y-128547618D02*
X158371485Y-128785713D01*
X158371485Y-128785713D02*
X158371485Y-128166666D01*
X176454819Y-96166666D02*
X175978628Y-96499999D01*
X176454819Y-96738094D02*
X175454819Y-96738094D01*
X175454819Y-96738094D02*
X175454819Y-96357142D01*
X175454819Y-96357142D02*
X175502438Y-96261904D01*
X175502438Y-96261904D02*
X175550057Y-96214285D01*
X175550057Y-96214285D02*
X175645295Y-96166666D01*
X175645295Y-96166666D02*
X175788152Y-96166666D01*
X175788152Y-96166666D02*
X175883390Y-96214285D01*
X175883390Y-96214285D02*
X175931009Y-96261904D01*
X175931009Y-96261904D02*
X175978628Y-96357142D01*
X175978628Y-96357142D02*
X175978628Y-96738094D01*
X175883390Y-95595237D02*
X175835771Y-95690475D01*
X175835771Y-95690475D02*
X175788152Y-95738094D01*
X175788152Y-95738094D02*
X175692914Y-95785713D01*
X175692914Y-95785713D02*
X175645295Y-95785713D01*
X175645295Y-95785713D02*
X175550057Y-95738094D01*
X175550057Y-95738094D02*
X175502438Y-95690475D01*
X175502438Y-95690475D02*
X175454819Y-95595237D01*
X175454819Y-95595237D02*
X175454819Y-95404761D01*
X175454819Y-95404761D02*
X175502438Y-95309523D01*
X175502438Y-95309523D02*
X175550057Y-95261904D01*
X175550057Y-95261904D02*
X175645295Y-95214285D01*
X175645295Y-95214285D02*
X175692914Y-95214285D01*
X175692914Y-95214285D02*
X175788152Y-95261904D01*
X175788152Y-95261904D02*
X175835771Y-95309523D01*
X175835771Y-95309523D02*
X175883390Y-95404761D01*
X175883390Y-95404761D02*
X175883390Y-95595237D01*
X175883390Y-95595237D02*
X175931009Y-95690475D01*
X175931009Y-95690475D02*
X175978628Y-95738094D01*
X175978628Y-95738094D02*
X176073866Y-95785713D01*
X176073866Y-95785713D02*
X176264342Y-95785713D01*
X176264342Y-95785713D02*
X176359580Y-95738094D01*
X176359580Y-95738094D02*
X176407200Y-95690475D01*
X176407200Y-95690475D02*
X176454819Y-95595237D01*
X176454819Y-95595237D02*
X176454819Y-95404761D01*
X176454819Y-95404761D02*
X176407200Y-95309523D01*
X176407200Y-95309523D02*
X176359580Y-95261904D01*
X176359580Y-95261904D02*
X176264342Y-95214285D01*
X176264342Y-95214285D02*
X176073866Y-95214285D01*
X176073866Y-95214285D02*
X175978628Y-95261904D01*
X175978628Y-95261904D02*
X175931009Y-95309523D01*
X175931009Y-95309523D02*
X175883390Y-95404761D01*
X173357142Y-80859580D02*
X173309523Y-80907200D01*
X173309523Y-80907200D02*
X173166666Y-80954819D01*
X173166666Y-80954819D02*
X173071428Y-80954819D01*
X173071428Y-80954819D02*
X172928571Y-80907200D01*
X172928571Y-80907200D02*
X172833333Y-80811961D01*
X172833333Y-80811961D02*
X172785714Y-80716723D01*
X172785714Y-80716723D02*
X172738095Y-80526247D01*
X172738095Y-80526247D02*
X172738095Y-80383390D01*
X172738095Y-80383390D02*
X172785714Y-80192914D01*
X172785714Y-80192914D02*
X172833333Y-80097676D01*
X172833333Y-80097676D02*
X172928571Y-80002438D01*
X172928571Y-80002438D02*
X173071428Y-79954819D01*
X173071428Y-79954819D02*
X173166666Y-79954819D01*
X173166666Y-79954819D02*
X173309523Y-80002438D01*
X173309523Y-80002438D02*
X173357142Y-80050057D01*
X173738095Y-80050057D02*
X173785714Y-80002438D01*
X173785714Y-80002438D02*
X173880952Y-79954819D01*
X173880952Y-79954819D02*
X174119047Y-79954819D01*
X174119047Y-79954819D02*
X174214285Y-80002438D01*
X174214285Y-80002438D02*
X174261904Y-80050057D01*
X174261904Y-80050057D02*
X174309523Y-80145295D01*
X174309523Y-80145295D02*
X174309523Y-80240533D01*
X174309523Y-80240533D02*
X174261904Y-80383390D01*
X174261904Y-80383390D02*
X173690476Y-80954819D01*
X173690476Y-80954819D02*
X174309523Y-80954819D01*
X174880952Y-80383390D02*
X174785714Y-80335771D01*
X174785714Y-80335771D02*
X174738095Y-80288152D01*
X174738095Y-80288152D02*
X174690476Y-80192914D01*
X174690476Y-80192914D02*
X174690476Y-80145295D01*
X174690476Y-80145295D02*
X174738095Y-80050057D01*
X174738095Y-80050057D02*
X174785714Y-80002438D01*
X174785714Y-80002438D02*
X174880952Y-79954819D01*
X174880952Y-79954819D02*
X175071428Y-79954819D01*
X175071428Y-79954819D02*
X175166666Y-80002438D01*
X175166666Y-80002438D02*
X175214285Y-80050057D01*
X175214285Y-80050057D02*
X175261904Y-80145295D01*
X175261904Y-80145295D02*
X175261904Y-80192914D01*
X175261904Y-80192914D02*
X175214285Y-80288152D01*
X175214285Y-80288152D02*
X175166666Y-80335771D01*
X175166666Y-80335771D02*
X175071428Y-80383390D01*
X175071428Y-80383390D02*
X174880952Y-80383390D01*
X174880952Y-80383390D02*
X174785714Y-80431009D01*
X174785714Y-80431009D02*
X174738095Y-80478628D01*
X174738095Y-80478628D02*
X174690476Y-80573866D01*
X174690476Y-80573866D02*
X174690476Y-80764342D01*
X174690476Y-80764342D02*
X174738095Y-80859580D01*
X174738095Y-80859580D02*
X174785714Y-80907200D01*
X174785714Y-80907200D02*
X174880952Y-80954819D01*
X174880952Y-80954819D02*
X175071428Y-80954819D01*
X175071428Y-80954819D02*
X175166666Y-80907200D01*
X175166666Y-80907200D02*
X175214285Y-80859580D01*
X175214285Y-80859580D02*
X175261904Y-80764342D01*
X175261904Y-80764342D02*
X175261904Y-80573866D01*
X175261904Y-80573866D02*
X175214285Y-80478628D01*
X175214285Y-80478628D02*
X175166666Y-80431009D01*
X175166666Y-80431009D02*
X175071428Y-80383390D01*
D12*
X136467251Y-116779460D02*
X137365277Y-115881434D01*
X137493566Y-117634722D02*
X137408040Y-117634722D01*
X137408040Y-117634722D02*
X137236987Y-117549196D01*
X137236987Y-117549196D02*
X137151461Y-117463670D01*
X137151461Y-117463670D02*
X137065935Y-117292617D01*
X137065935Y-117292617D02*
X137065935Y-117121565D01*
X137065935Y-117121565D02*
X137108698Y-116993275D01*
X137108698Y-116993275D02*
X137236987Y-116779460D01*
X137236987Y-116779460D02*
X137365277Y-116651170D01*
X137365277Y-116651170D02*
X137579092Y-116522881D01*
X137579092Y-116522881D02*
X137707382Y-116480118D01*
X137707382Y-116480118D02*
X137878434Y-116480118D01*
X137878434Y-116480118D02*
X138049487Y-116565644D01*
X138049487Y-116565644D02*
X138135013Y-116651170D01*
X138135013Y-116651170D02*
X138220539Y-116822223D01*
X138220539Y-116822223D02*
X138220539Y-116907749D01*
X138776460Y-117891301D02*
X138177776Y-118489985D01*
X138904749Y-117335380D02*
X138049487Y-117763012D01*
X138049487Y-117763012D02*
X138605407Y-118318932D01*
X163421237Y-51779318D02*
X163421237Y-50509318D01*
X164751714Y-51658365D02*
X164691238Y-51718842D01*
X164691238Y-51718842D02*
X164509809Y-51779318D01*
X164509809Y-51779318D02*
X164388857Y-51779318D01*
X164388857Y-51779318D02*
X164207428Y-51718842D01*
X164207428Y-51718842D02*
X164086476Y-51597889D01*
X164086476Y-51597889D02*
X164025999Y-51476937D01*
X164025999Y-51476937D02*
X163965523Y-51235032D01*
X163965523Y-51235032D02*
X163965523Y-51053603D01*
X163965523Y-51053603D02*
X164025999Y-50811699D01*
X164025999Y-50811699D02*
X164086476Y-50690746D01*
X164086476Y-50690746D02*
X164207428Y-50569794D01*
X164207428Y-50569794D02*
X164388857Y-50509318D01*
X164388857Y-50509318D02*
X164509809Y-50509318D01*
X164509809Y-50509318D02*
X164691238Y-50569794D01*
X164691238Y-50569794D02*
X164751714Y-50630270D01*
X165961238Y-51779318D02*
X165235523Y-51779318D01*
X165598380Y-51779318D02*
X165598380Y-50509318D01*
X165598380Y-50509318D02*
X165477428Y-50690746D01*
X165477428Y-50690746D02*
X165356476Y-50811699D01*
X165356476Y-50811699D02*
X165235523Y-50872175D01*
D11*
X176454819Y-115666666D02*
X175978628Y-115999999D01*
X176454819Y-116238094D02*
X175454819Y-116238094D01*
X175454819Y-116238094D02*
X175454819Y-115857142D01*
X175454819Y-115857142D02*
X175502438Y-115761904D01*
X175502438Y-115761904D02*
X175550057Y-115714285D01*
X175550057Y-115714285D02*
X175645295Y-115666666D01*
X175645295Y-115666666D02*
X175788152Y-115666666D01*
X175788152Y-115666666D02*
X175883390Y-115714285D01*
X175883390Y-115714285D02*
X175931009Y-115761904D01*
X175931009Y-115761904D02*
X175978628Y-115857142D01*
X175978628Y-115857142D02*
X175978628Y-116238094D01*
X176454819Y-115190475D02*
X176454819Y-114999999D01*
X176454819Y-114999999D02*
X176407200Y-114904761D01*
X176407200Y-114904761D02*
X176359580Y-114857142D01*
X176359580Y-114857142D02*
X176216723Y-114761904D01*
X176216723Y-114761904D02*
X176026247Y-114714285D01*
X176026247Y-114714285D02*
X175645295Y-114714285D01*
X175645295Y-114714285D02*
X175550057Y-114761904D01*
X175550057Y-114761904D02*
X175502438Y-114809523D01*
X175502438Y-114809523D02*
X175454819Y-114904761D01*
X175454819Y-114904761D02*
X175454819Y-115095237D01*
X175454819Y-115095237D02*
X175502438Y-115190475D01*
X175502438Y-115190475D02*
X175550057Y-115238094D01*
X175550057Y-115238094D02*
X175645295Y-115285713D01*
X175645295Y-115285713D02*
X175883390Y-115285713D01*
X175883390Y-115285713D02*
X175978628Y-115238094D01*
X175978628Y-115238094D02*
X176026247Y-115190475D01*
X176026247Y-115190475D02*
X176073866Y-115095237D01*
X176073866Y-115095237D02*
X176073866Y-114904761D01*
X176073866Y-114904761D02*
X176026247Y-114809523D01*
X176026247Y-114809523D02*
X175978628Y-114761904D01*
X175978628Y-114761904D02*
X175883390Y-114714285D01*
X179107142Y-106204819D02*
X178773809Y-105728628D01*
X178535714Y-106204819D02*
X178535714Y-105204819D01*
X178535714Y-105204819D02*
X178916666Y-105204819D01*
X178916666Y-105204819D02*
X179011904Y-105252438D01*
X179011904Y-105252438D02*
X179059523Y-105300057D01*
X179059523Y-105300057D02*
X179107142Y-105395295D01*
X179107142Y-105395295D02*
X179107142Y-105538152D01*
X179107142Y-105538152D02*
X179059523Y-105633390D01*
X179059523Y-105633390D02*
X179011904Y-105681009D01*
X179011904Y-105681009D02*
X178916666Y-105728628D01*
X178916666Y-105728628D02*
X178535714Y-105728628D01*
X179488095Y-105300057D02*
X179535714Y-105252438D01*
X179535714Y-105252438D02*
X179630952Y-105204819D01*
X179630952Y-105204819D02*
X179869047Y-105204819D01*
X179869047Y-105204819D02*
X179964285Y-105252438D01*
X179964285Y-105252438D02*
X180011904Y-105300057D01*
X180011904Y-105300057D02*
X180059523Y-105395295D01*
X180059523Y-105395295D02*
X180059523Y-105490533D01*
X180059523Y-105490533D02*
X180011904Y-105633390D01*
X180011904Y-105633390D02*
X179440476Y-106204819D01*
X179440476Y-106204819D02*
X180059523Y-106204819D01*
X180440476Y-105300057D02*
X180488095Y-105252438D01*
X180488095Y-105252438D02*
X180583333Y-105204819D01*
X180583333Y-105204819D02*
X180821428Y-105204819D01*
X180821428Y-105204819D02*
X180916666Y-105252438D01*
X180916666Y-105252438D02*
X180964285Y-105300057D01*
X180964285Y-105300057D02*
X181011904Y-105395295D01*
X181011904Y-105395295D02*
X181011904Y-105490533D01*
X181011904Y-105490533D02*
X180964285Y-105633390D01*
X180964285Y-105633390D02*
X180392857Y-106204819D01*
X180392857Y-106204819D02*
X181011904Y-106204819D01*
X166204819Y-129166666D02*
X165728628Y-129499999D01*
X166204819Y-129738094D02*
X165204819Y-129738094D01*
X165204819Y-129738094D02*
X165204819Y-129357142D01*
X165204819Y-129357142D02*
X165252438Y-129261904D01*
X165252438Y-129261904D02*
X165300057Y-129214285D01*
X165300057Y-129214285D02*
X165395295Y-129166666D01*
X165395295Y-129166666D02*
X165538152Y-129166666D01*
X165538152Y-129166666D02*
X165633390Y-129214285D01*
X165633390Y-129214285D02*
X165681009Y-129261904D01*
X165681009Y-129261904D02*
X165728628Y-129357142D01*
X165728628Y-129357142D02*
X165728628Y-129738094D01*
X165204819Y-128261904D02*
X165204819Y-128738094D01*
X165204819Y-128738094D02*
X165681009Y-128785713D01*
X165681009Y-128785713D02*
X165633390Y-128738094D01*
X165633390Y-128738094D02*
X165585771Y-128642856D01*
X165585771Y-128642856D02*
X165585771Y-128404761D01*
X165585771Y-128404761D02*
X165633390Y-128309523D01*
X165633390Y-128309523D02*
X165681009Y-128261904D01*
X165681009Y-128261904D02*
X165776247Y-128214285D01*
X165776247Y-128214285D02*
X166014342Y-128214285D01*
X166014342Y-128214285D02*
X166109580Y-128261904D01*
X166109580Y-128261904D02*
X166157200Y-128309523D01*
X166157200Y-128309523D02*
X166204819Y-128404761D01*
X166204819Y-128404761D02*
X166204819Y-128642856D01*
X166204819Y-128642856D02*
X166157200Y-128738094D01*
X166157200Y-128738094D02*
X166109580Y-128785713D01*
X129357142Y-54359580D02*
X129309523Y-54407200D01*
X129309523Y-54407200D02*
X129166666Y-54454819D01*
X129166666Y-54454819D02*
X129071428Y-54454819D01*
X129071428Y-54454819D02*
X128928571Y-54407200D01*
X128928571Y-54407200D02*
X128833333Y-54311961D01*
X128833333Y-54311961D02*
X128785714Y-54216723D01*
X128785714Y-54216723D02*
X128738095Y-54026247D01*
X128738095Y-54026247D02*
X128738095Y-53883390D01*
X128738095Y-53883390D02*
X128785714Y-53692914D01*
X128785714Y-53692914D02*
X128833333Y-53597676D01*
X128833333Y-53597676D02*
X128928571Y-53502438D01*
X128928571Y-53502438D02*
X129071428Y-53454819D01*
X129071428Y-53454819D02*
X129166666Y-53454819D01*
X129166666Y-53454819D02*
X129309523Y-53502438D01*
X129309523Y-53502438D02*
X129357142Y-53550057D01*
X130309523Y-54454819D02*
X129738095Y-54454819D01*
X130023809Y-54454819D02*
X130023809Y-53454819D01*
X130023809Y-53454819D02*
X129928571Y-53597676D01*
X129928571Y-53597676D02*
X129833333Y-53692914D01*
X129833333Y-53692914D02*
X129738095Y-53740533D01*
X130642857Y-53454819D02*
X131261904Y-53454819D01*
X131261904Y-53454819D02*
X130928571Y-53835771D01*
X130928571Y-53835771D02*
X131071428Y-53835771D01*
X131071428Y-53835771D02*
X131166666Y-53883390D01*
X131166666Y-53883390D02*
X131214285Y-53931009D01*
X131214285Y-53931009D02*
X131261904Y-54026247D01*
X131261904Y-54026247D02*
X131261904Y-54264342D01*
X131261904Y-54264342D02*
X131214285Y-54359580D01*
X131214285Y-54359580D02*
X131166666Y-54407200D01*
X131166666Y-54407200D02*
X131071428Y-54454819D01*
X131071428Y-54454819D02*
X130785714Y-54454819D01*
X130785714Y-54454819D02*
X130690476Y-54407200D01*
X130690476Y-54407200D02*
X130642857Y-54359580D01*
X170011905Y-86704819D02*
X170011905Y-85704819D01*
X170011905Y-85704819D02*
X170250000Y-85704819D01*
X170250000Y-85704819D02*
X170392857Y-85752438D01*
X170392857Y-85752438D02*
X170488095Y-85847676D01*
X170488095Y-85847676D02*
X170535714Y-85942914D01*
X170535714Y-85942914D02*
X170583333Y-86133390D01*
X170583333Y-86133390D02*
X170583333Y-86276247D01*
X170583333Y-86276247D02*
X170535714Y-86466723D01*
X170535714Y-86466723D02*
X170488095Y-86561961D01*
X170488095Y-86561961D02*
X170392857Y-86657200D01*
X170392857Y-86657200D02*
X170250000Y-86704819D01*
X170250000Y-86704819D02*
X170011905Y-86704819D01*
X170916667Y-85704819D02*
X171583333Y-85704819D01*
X171583333Y-85704819D02*
X171154762Y-86704819D01*
X173357142Y-78454819D02*
X173023809Y-77978628D01*
X172785714Y-78454819D02*
X172785714Y-77454819D01*
X172785714Y-77454819D02*
X173166666Y-77454819D01*
X173166666Y-77454819D02*
X173261904Y-77502438D01*
X173261904Y-77502438D02*
X173309523Y-77550057D01*
X173309523Y-77550057D02*
X173357142Y-77645295D01*
X173357142Y-77645295D02*
X173357142Y-77788152D01*
X173357142Y-77788152D02*
X173309523Y-77883390D01*
X173309523Y-77883390D02*
X173261904Y-77931009D01*
X173261904Y-77931009D02*
X173166666Y-77978628D01*
X173166666Y-77978628D02*
X172785714Y-77978628D01*
X174309523Y-78454819D02*
X173738095Y-78454819D01*
X174023809Y-78454819D02*
X174023809Y-77454819D01*
X174023809Y-77454819D02*
X173928571Y-77597676D01*
X173928571Y-77597676D02*
X173833333Y-77692914D01*
X173833333Y-77692914D02*
X173738095Y-77740533D01*
X175166666Y-77454819D02*
X174976190Y-77454819D01*
X174976190Y-77454819D02*
X174880952Y-77502438D01*
X174880952Y-77502438D02*
X174833333Y-77550057D01*
X174833333Y-77550057D02*
X174738095Y-77692914D01*
X174738095Y-77692914D02*
X174690476Y-77883390D01*
X174690476Y-77883390D02*
X174690476Y-78264342D01*
X174690476Y-78264342D02*
X174738095Y-78359580D01*
X174738095Y-78359580D02*
X174785714Y-78407200D01*
X174785714Y-78407200D02*
X174880952Y-78454819D01*
X174880952Y-78454819D02*
X175071428Y-78454819D01*
X175071428Y-78454819D02*
X175166666Y-78407200D01*
X175166666Y-78407200D02*
X175214285Y-78359580D01*
X175214285Y-78359580D02*
X175261904Y-78264342D01*
X175261904Y-78264342D02*
X175261904Y-78026247D01*
X175261904Y-78026247D02*
X175214285Y-77931009D01*
X175214285Y-77931009D02*
X175166666Y-77883390D01*
X175166666Y-77883390D02*
X175071428Y-77835771D01*
X175071428Y-77835771D02*
X174880952Y-77835771D01*
X174880952Y-77835771D02*
X174785714Y-77883390D01*
X174785714Y-77883390D02*
X174738095Y-77931009D01*
X174738095Y-77931009D02*
X174690476Y-78026247D01*
X166607142Y-62454819D02*
X166273809Y-61978628D01*
X166035714Y-62454819D02*
X166035714Y-61454819D01*
X166035714Y-61454819D02*
X166416666Y-61454819D01*
X166416666Y-61454819D02*
X166511904Y-61502438D01*
X166511904Y-61502438D02*
X166559523Y-61550057D01*
X166559523Y-61550057D02*
X166607142Y-61645295D01*
X166607142Y-61645295D02*
X166607142Y-61788152D01*
X166607142Y-61788152D02*
X166559523Y-61883390D01*
X166559523Y-61883390D02*
X166511904Y-61931009D01*
X166511904Y-61931009D02*
X166416666Y-61978628D01*
X166416666Y-61978628D02*
X166035714Y-61978628D01*
X167559523Y-62454819D02*
X166988095Y-62454819D01*
X167273809Y-62454819D02*
X167273809Y-61454819D01*
X167273809Y-61454819D02*
X167178571Y-61597676D01*
X167178571Y-61597676D02*
X167083333Y-61692914D01*
X167083333Y-61692914D02*
X166988095Y-61740533D01*
X167892857Y-61454819D02*
X168511904Y-61454819D01*
X168511904Y-61454819D02*
X168178571Y-61835771D01*
X168178571Y-61835771D02*
X168321428Y-61835771D01*
X168321428Y-61835771D02*
X168416666Y-61883390D01*
X168416666Y-61883390D02*
X168464285Y-61931009D01*
X168464285Y-61931009D02*
X168511904Y-62026247D01*
X168511904Y-62026247D02*
X168511904Y-62264342D01*
X168511904Y-62264342D02*
X168464285Y-62359580D01*
X168464285Y-62359580D02*
X168416666Y-62407200D01*
X168416666Y-62407200D02*
X168321428Y-62454819D01*
X168321428Y-62454819D02*
X168035714Y-62454819D01*
X168035714Y-62454819D02*
X167940476Y-62407200D01*
X167940476Y-62407200D02*
X167892857Y-62359580D01*
X181134819Y-116142857D02*
X180658628Y-116476190D01*
X181134819Y-116714285D02*
X180134819Y-116714285D01*
X180134819Y-116714285D02*
X180134819Y-116333333D01*
X180134819Y-116333333D02*
X180182438Y-116238095D01*
X180182438Y-116238095D02*
X180230057Y-116190476D01*
X180230057Y-116190476D02*
X180325295Y-116142857D01*
X180325295Y-116142857D02*
X180468152Y-116142857D01*
X180468152Y-116142857D02*
X180563390Y-116190476D01*
X180563390Y-116190476D02*
X180611009Y-116238095D01*
X180611009Y-116238095D02*
X180658628Y-116333333D01*
X180658628Y-116333333D02*
X180658628Y-116714285D01*
X181134819Y-115190476D02*
X181134819Y-115761904D01*
X181134819Y-115476190D02*
X180134819Y-115476190D01*
X180134819Y-115476190D02*
X180277676Y-115571428D01*
X180277676Y-115571428D02*
X180372914Y-115666666D01*
X180372914Y-115666666D02*
X180420533Y-115761904D01*
X180134819Y-114571428D02*
X180134819Y-114476190D01*
X180134819Y-114476190D02*
X180182438Y-114380952D01*
X180182438Y-114380952D02*
X180230057Y-114333333D01*
X180230057Y-114333333D02*
X180325295Y-114285714D01*
X180325295Y-114285714D02*
X180515771Y-114238095D01*
X180515771Y-114238095D02*
X180753866Y-114238095D01*
X180753866Y-114238095D02*
X180944342Y-114285714D01*
X180944342Y-114285714D02*
X181039580Y-114333333D01*
X181039580Y-114333333D02*
X181087200Y-114380952D01*
X181087200Y-114380952D02*
X181134819Y-114476190D01*
X181134819Y-114476190D02*
X181134819Y-114571428D01*
X181134819Y-114571428D02*
X181087200Y-114666666D01*
X181087200Y-114666666D02*
X181039580Y-114714285D01*
X181039580Y-114714285D02*
X180944342Y-114761904D01*
X180944342Y-114761904D02*
X180753866Y-114809523D01*
X180753866Y-114809523D02*
X180515771Y-114809523D01*
X180515771Y-114809523D02*
X180325295Y-114761904D01*
X180325295Y-114761904D02*
X180230057Y-114714285D01*
X180230057Y-114714285D02*
X180182438Y-114666666D01*
X180182438Y-114666666D02*
X180134819Y-114571428D01*
X126357142Y-103609580D02*
X126309523Y-103657200D01*
X126309523Y-103657200D02*
X126166666Y-103704819D01*
X126166666Y-103704819D02*
X126071428Y-103704819D01*
X126071428Y-103704819D02*
X125928571Y-103657200D01*
X125928571Y-103657200D02*
X125833333Y-103561961D01*
X125833333Y-103561961D02*
X125785714Y-103466723D01*
X125785714Y-103466723D02*
X125738095Y-103276247D01*
X125738095Y-103276247D02*
X125738095Y-103133390D01*
X125738095Y-103133390D02*
X125785714Y-102942914D01*
X125785714Y-102942914D02*
X125833333Y-102847676D01*
X125833333Y-102847676D02*
X125928571Y-102752438D01*
X125928571Y-102752438D02*
X126071428Y-102704819D01*
X126071428Y-102704819D02*
X126166666Y-102704819D01*
X126166666Y-102704819D02*
X126309523Y-102752438D01*
X126309523Y-102752438D02*
X126357142Y-102800057D01*
X127309523Y-103704819D02*
X126738095Y-103704819D01*
X127023809Y-103704819D02*
X127023809Y-102704819D01*
X127023809Y-102704819D02*
X126928571Y-102847676D01*
X126928571Y-102847676D02*
X126833333Y-102942914D01*
X126833333Y-102942914D02*
X126738095Y-102990533D01*
X127785714Y-103704819D02*
X127976190Y-103704819D01*
X127976190Y-103704819D02*
X128071428Y-103657200D01*
X128071428Y-103657200D02*
X128119047Y-103609580D01*
X128119047Y-103609580D02*
X128214285Y-103466723D01*
X128214285Y-103466723D02*
X128261904Y-103276247D01*
X128261904Y-103276247D02*
X128261904Y-102895295D01*
X128261904Y-102895295D02*
X128214285Y-102800057D01*
X128214285Y-102800057D02*
X128166666Y-102752438D01*
X128166666Y-102752438D02*
X128071428Y-102704819D01*
X128071428Y-102704819D02*
X127880952Y-102704819D01*
X127880952Y-102704819D02*
X127785714Y-102752438D01*
X127785714Y-102752438D02*
X127738095Y-102800057D01*
X127738095Y-102800057D02*
X127690476Y-102895295D01*
X127690476Y-102895295D02*
X127690476Y-103133390D01*
X127690476Y-103133390D02*
X127738095Y-103228628D01*
X127738095Y-103228628D02*
X127785714Y-103276247D01*
X127785714Y-103276247D02*
X127880952Y-103323866D01*
X127880952Y-103323866D02*
X128071428Y-103323866D01*
X128071428Y-103323866D02*
X128166666Y-103276247D01*
X128166666Y-103276247D02*
X128214285Y-103228628D01*
X128214285Y-103228628D02*
X128261904Y-103133390D01*
X149666666Y-131454819D02*
X149666666Y-132169104D01*
X149666666Y-132169104D02*
X149619047Y-132311961D01*
X149619047Y-132311961D02*
X149523809Y-132407200D01*
X149523809Y-132407200D02*
X149380952Y-132454819D01*
X149380952Y-132454819D02*
X149285714Y-132454819D01*
X150047619Y-131454819D02*
X150666666Y-131454819D01*
X150666666Y-131454819D02*
X150333333Y-131835771D01*
X150333333Y-131835771D02*
X150476190Y-131835771D01*
X150476190Y-131835771D02*
X150571428Y-131883390D01*
X150571428Y-131883390D02*
X150619047Y-131931009D01*
X150619047Y-131931009D02*
X150666666Y-132026247D01*
X150666666Y-132026247D02*
X150666666Y-132264342D01*
X150666666Y-132264342D02*
X150619047Y-132359580D01*
X150619047Y-132359580D02*
X150571428Y-132407200D01*
X150571428Y-132407200D02*
X150476190Y-132454819D01*
X150476190Y-132454819D02*
X150190476Y-132454819D01*
X150190476Y-132454819D02*
X150095238Y-132407200D01*
X150095238Y-132407200D02*
X150047619Y-132359580D01*
X165409580Y-109642857D02*
X165457200Y-109690476D01*
X165457200Y-109690476D02*
X165504819Y-109833333D01*
X165504819Y-109833333D02*
X165504819Y-109928571D01*
X165504819Y-109928571D02*
X165457200Y-110071428D01*
X165457200Y-110071428D02*
X165361961Y-110166666D01*
X165361961Y-110166666D02*
X165266723Y-110214285D01*
X165266723Y-110214285D02*
X165076247Y-110261904D01*
X165076247Y-110261904D02*
X164933390Y-110261904D01*
X164933390Y-110261904D02*
X164742914Y-110214285D01*
X164742914Y-110214285D02*
X164647676Y-110166666D01*
X164647676Y-110166666D02*
X164552438Y-110071428D01*
X164552438Y-110071428D02*
X164504819Y-109928571D01*
X164504819Y-109928571D02*
X164504819Y-109833333D01*
X164504819Y-109833333D02*
X164552438Y-109690476D01*
X164552438Y-109690476D02*
X164600057Y-109642857D01*
X165504819Y-108690476D02*
X165504819Y-109261904D01*
X165504819Y-108976190D02*
X164504819Y-108976190D01*
X164504819Y-108976190D02*
X164647676Y-109071428D01*
X164647676Y-109071428D02*
X164742914Y-109166666D01*
X164742914Y-109166666D02*
X164790533Y-109261904D01*
X164504819Y-108071428D02*
X164504819Y-107976190D01*
X164504819Y-107976190D02*
X164552438Y-107880952D01*
X164552438Y-107880952D02*
X164600057Y-107833333D01*
X164600057Y-107833333D02*
X164695295Y-107785714D01*
X164695295Y-107785714D02*
X164885771Y-107738095D01*
X164885771Y-107738095D02*
X165123866Y-107738095D01*
X165123866Y-107738095D02*
X165314342Y-107785714D01*
X165314342Y-107785714D02*
X165409580Y-107833333D01*
X165409580Y-107833333D02*
X165457200Y-107880952D01*
X165457200Y-107880952D02*
X165504819Y-107976190D01*
X165504819Y-107976190D02*
X165504819Y-108071428D01*
X165504819Y-108071428D02*
X165457200Y-108166666D01*
X165457200Y-108166666D02*
X165409580Y-108214285D01*
X165409580Y-108214285D02*
X165314342Y-108261904D01*
X165314342Y-108261904D02*
X165123866Y-108309523D01*
X165123866Y-108309523D02*
X164885771Y-108309523D01*
X164885771Y-108309523D02*
X164695295Y-108261904D01*
X164695295Y-108261904D02*
X164600057Y-108214285D01*
X164600057Y-108214285D02*
X164552438Y-108166666D01*
X164552438Y-108166666D02*
X164504819Y-108071428D01*
X181204819Y-96166666D02*
X180728628Y-96499999D01*
X181204819Y-96738094D02*
X180204819Y-96738094D01*
X180204819Y-96738094D02*
X180204819Y-96357142D01*
X180204819Y-96357142D02*
X180252438Y-96261904D01*
X180252438Y-96261904D02*
X180300057Y-96214285D01*
X180300057Y-96214285D02*
X180395295Y-96166666D01*
X180395295Y-96166666D02*
X180538152Y-96166666D01*
X180538152Y-96166666D02*
X180633390Y-96214285D01*
X180633390Y-96214285D02*
X180681009Y-96261904D01*
X180681009Y-96261904D02*
X180728628Y-96357142D01*
X180728628Y-96357142D02*
X180728628Y-96738094D01*
X180204819Y-95833332D02*
X180204819Y-95166666D01*
X180204819Y-95166666D02*
X181204819Y-95595237D01*
X156083333Y-119929580D02*
X156035714Y-119977200D01*
X156035714Y-119977200D02*
X155892857Y-120024819D01*
X155892857Y-120024819D02*
X155797619Y-120024819D01*
X155797619Y-120024819D02*
X155654762Y-119977200D01*
X155654762Y-119977200D02*
X155559524Y-119881961D01*
X155559524Y-119881961D02*
X155511905Y-119786723D01*
X155511905Y-119786723D02*
X155464286Y-119596247D01*
X155464286Y-119596247D02*
X155464286Y-119453390D01*
X155464286Y-119453390D02*
X155511905Y-119262914D01*
X155511905Y-119262914D02*
X155559524Y-119167676D01*
X155559524Y-119167676D02*
X155654762Y-119072438D01*
X155654762Y-119072438D02*
X155797619Y-119024819D01*
X155797619Y-119024819D02*
X155892857Y-119024819D01*
X155892857Y-119024819D02*
X156035714Y-119072438D01*
X156035714Y-119072438D02*
X156083333Y-119120057D01*
X156464286Y-119120057D02*
X156511905Y-119072438D01*
X156511905Y-119072438D02*
X156607143Y-119024819D01*
X156607143Y-119024819D02*
X156845238Y-119024819D01*
X156845238Y-119024819D02*
X156940476Y-119072438D01*
X156940476Y-119072438D02*
X156988095Y-119120057D01*
X156988095Y-119120057D02*
X157035714Y-119215295D01*
X157035714Y-119215295D02*
X157035714Y-119310533D01*
X157035714Y-119310533D02*
X156988095Y-119453390D01*
X156988095Y-119453390D02*
X156416667Y-120024819D01*
X156416667Y-120024819D02*
X157035714Y-120024819D01*
X134359580Y-49892857D02*
X134407200Y-49940476D01*
X134407200Y-49940476D02*
X134454819Y-50083333D01*
X134454819Y-50083333D02*
X134454819Y-50178571D01*
X134454819Y-50178571D02*
X134407200Y-50321428D01*
X134407200Y-50321428D02*
X134311961Y-50416666D01*
X134311961Y-50416666D02*
X134216723Y-50464285D01*
X134216723Y-50464285D02*
X134026247Y-50511904D01*
X134026247Y-50511904D02*
X133883390Y-50511904D01*
X133883390Y-50511904D02*
X133692914Y-50464285D01*
X133692914Y-50464285D02*
X133597676Y-50416666D01*
X133597676Y-50416666D02*
X133502438Y-50321428D01*
X133502438Y-50321428D02*
X133454819Y-50178571D01*
X133454819Y-50178571D02*
X133454819Y-50083333D01*
X133454819Y-50083333D02*
X133502438Y-49940476D01*
X133502438Y-49940476D02*
X133550057Y-49892857D01*
X134454819Y-48940476D02*
X134454819Y-49511904D01*
X134454819Y-49226190D02*
X133454819Y-49226190D01*
X133454819Y-49226190D02*
X133597676Y-49321428D01*
X133597676Y-49321428D02*
X133692914Y-49416666D01*
X133692914Y-49416666D02*
X133740533Y-49511904D01*
X133788152Y-48083333D02*
X134454819Y-48083333D01*
X133407200Y-48321428D02*
X134121485Y-48559523D01*
X134121485Y-48559523D02*
X134121485Y-47940476D01*
X137857142Y-125954819D02*
X137523809Y-125478628D01*
X137285714Y-125954819D02*
X137285714Y-124954819D01*
X137285714Y-124954819D02*
X137666666Y-124954819D01*
X137666666Y-124954819D02*
X137761904Y-125002438D01*
X137761904Y-125002438D02*
X137809523Y-125050057D01*
X137809523Y-125050057D02*
X137857142Y-125145295D01*
X137857142Y-125145295D02*
X137857142Y-125288152D01*
X137857142Y-125288152D02*
X137809523Y-125383390D01*
X137809523Y-125383390D02*
X137761904Y-125431009D01*
X137761904Y-125431009D02*
X137666666Y-125478628D01*
X137666666Y-125478628D02*
X137285714Y-125478628D01*
X138809523Y-125954819D02*
X138238095Y-125954819D01*
X138523809Y-125954819D02*
X138523809Y-124954819D01*
X138523809Y-124954819D02*
X138428571Y-125097676D01*
X138428571Y-125097676D02*
X138333333Y-125192914D01*
X138333333Y-125192914D02*
X138238095Y-125240533D01*
X139666666Y-125288152D02*
X139666666Y-125954819D01*
X139428571Y-124907200D02*
X139190476Y-125621485D01*
X139190476Y-125621485D02*
X139809523Y-125621485D01*
X183039580Y-108916666D02*
X183087200Y-108964285D01*
X183087200Y-108964285D02*
X183134819Y-109107142D01*
X183134819Y-109107142D02*
X183134819Y-109202380D01*
X183134819Y-109202380D02*
X183087200Y-109345237D01*
X183087200Y-109345237D02*
X182991961Y-109440475D01*
X182991961Y-109440475D02*
X182896723Y-109488094D01*
X182896723Y-109488094D02*
X182706247Y-109535713D01*
X182706247Y-109535713D02*
X182563390Y-109535713D01*
X182563390Y-109535713D02*
X182372914Y-109488094D01*
X182372914Y-109488094D02*
X182277676Y-109440475D01*
X182277676Y-109440475D02*
X182182438Y-109345237D01*
X182182438Y-109345237D02*
X182134819Y-109202380D01*
X182134819Y-109202380D02*
X182134819Y-109107142D01*
X182134819Y-109107142D02*
X182182438Y-108964285D01*
X182182438Y-108964285D02*
X182230057Y-108916666D01*
X182468152Y-108059523D02*
X183134819Y-108059523D01*
X182087200Y-108297618D02*
X182801485Y-108535713D01*
X182801485Y-108535713D02*
X182801485Y-107916666D01*
X164954819Y-129166666D02*
X164478628Y-129499999D01*
X164954819Y-129738094D02*
X163954819Y-129738094D01*
X163954819Y-129738094D02*
X163954819Y-129357142D01*
X163954819Y-129357142D02*
X164002438Y-129261904D01*
X164002438Y-129261904D02*
X164050057Y-129214285D01*
X164050057Y-129214285D02*
X164145295Y-129166666D01*
X164145295Y-129166666D02*
X164288152Y-129166666D01*
X164288152Y-129166666D02*
X164383390Y-129214285D01*
X164383390Y-129214285D02*
X164431009Y-129261904D01*
X164431009Y-129261904D02*
X164478628Y-129357142D01*
X164478628Y-129357142D02*
X164478628Y-129738094D01*
X163954819Y-128833332D02*
X163954819Y-128214285D01*
X163954819Y-128214285D02*
X164335771Y-128547618D01*
X164335771Y-128547618D02*
X164335771Y-128404761D01*
X164335771Y-128404761D02*
X164383390Y-128309523D01*
X164383390Y-128309523D02*
X164431009Y-128261904D01*
X164431009Y-128261904D02*
X164526247Y-128214285D01*
X164526247Y-128214285D02*
X164764342Y-128214285D01*
X164764342Y-128214285D02*
X164859580Y-128261904D01*
X164859580Y-128261904D02*
X164907200Y-128309523D01*
X164907200Y-128309523D02*
X164954819Y-128404761D01*
X164954819Y-128404761D02*
X164954819Y-128690475D01*
X164954819Y-128690475D02*
X164907200Y-128785713D01*
X164907200Y-128785713D02*
X164859580Y-128833332D01*
X156357142Y-77704819D02*
X156023809Y-77228628D01*
X155785714Y-77704819D02*
X155785714Y-76704819D01*
X155785714Y-76704819D02*
X156166666Y-76704819D01*
X156166666Y-76704819D02*
X156261904Y-76752438D01*
X156261904Y-76752438D02*
X156309523Y-76800057D01*
X156309523Y-76800057D02*
X156357142Y-76895295D01*
X156357142Y-76895295D02*
X156357142Y-77038152D01*
X156357142Y-77038152D02*
X156309523Y-77133390D01*
X156309523Y-77133390D02*
X156261904Y-77181009D01*
X156261904Y-77181009D02*
X156166666Y-77228628D01*
X156166666Y-77228628D02*
X155785714Y-77228628D01*
X157309523Y-77704819D02*
X156738095Y-77704819D01*
X157023809Y-77704819D02*
X157023809Y-76704819D01*
X157023809Y-76704819D02*
X156928571Y-76847676D01*
X156928571Y-76847676D02*
X156833333Y-76942914D01*
X156833333Y-76942914D02*
X156738095Y-76990533D01*
X157785714Y-77704819D02*
X157976190Y-77704819D01*
X157976190Y-77704819D02*
X158071428Y-77657200D01*
X158071428Y-77657200D02*
X158119047Y-77609580D01*
X158119047Y-77609580D02*
X158214285Y-77466723D01*
X158214285Y-77466723D02*
X158261904Y-77276247D01*
X158261904Y-77276247D02*
X158261904Y-76895295D01*
X158261904Y-76895295D02*
X158214285Y-76800057D01*
X158214285Y-76800057D02*
X158166666Y-76752438D01*
X158166666Y-76752438D02*
X158071428Y-76704819D01*
X158071428Y-76704819D02*
X157880952Y-76704819D01*
X157880952Y-76704819D02*
X157785714Y-76752438D01*
X157785714Y-76752438D02*
X157738095Y-76800057D01*
X157738095Y-76800057D02*
X157690476Y-76895295D01*
X157690476Y-76895295D02*
X157690476Y-77133390D01*
X157690476Y-77133390D02*
X157738095Y-77228628D01*
X157738095Y-77228628D02*
X157785714Y-77276247D01*
X157785714Y-77276247D02*
X157880952Y-77323866D01*
X157880952Y-77323866D02*
X158071428Y-77323866D01*
X158071428Y-77323866D02*
X158166666Y-77276247D01*
X158166666Y-77276247D02*
X158214285Y-77228628D01*
X158214285Y-77228628D02*
X158261904Y-77133390D01*
X156954819Y-127166666D02*
X156478628Y-127499999D01*
X156954819Y-127738094D02*
X155954819Y-127738094D01*
X155954819Y-127738094D02*
X155954819Y-127357142D01*
X155954819Y-127357142D02*
X156002438Y-127261904D01*
X156002438Y-127261904D02*
X156050057Y-127214285D01*
X156050057Y-127214285D02*
X156145295Y-127166666D01*
X156145295Y-127166666D02*
X156288152Y-127166666D01*
X156288152Y-127166666D02*
X156383390Y-127214285D01*
X156383390Y-127214285D02*
X156431009Y-127261904D01*
X156431009Y-127261904D02*
X156478628Y-127357142D01*
X156478628Y-127357142D02*
X156478628Y-127738094D01*
X156954819Y-126214285D02*
X156954819Y-126785713D01*
X156954819Y-126499999D02*
X155954819Y-126499999D01*
X155954819Y-126499999D02*
X156097676Y-126595237D01*
X156097676Y-126595237D02*
X156192914Y-126690475D01*
X156192914Y-126690475D02*
X156240533Y-126785713D01*
D12*
X176574318Y-111792143D02*
X175304318Y-111792143D01*
X175304318Y-111792143D02*
X175304318Y-111308333D01*
X175304318Y-111308333D02*
X175364794Y-111187381D01*
X175364794Y-111187381D02*
X175425270Y-111126904D01*
X175425270Y-111126904D02*
X175546222Y-111066428D01*
X175546222Y-111066428D02*
X175727651Y-111066428D01*
X175727651Y-111066428D02*
X175848603Y-111126904D01*
X175848603Y-111126904D02*
X175909080Y-111187381D01*
X175909080Y-111187381D02*
X175969556Y-111308333D01*
X175969556Y-111308333D02*
X175969556Y-111792143D01*
X176513842Y-110582619D02*
X176574318Y-110401190D01*
X176574318Y-110401190D02*
X176574318Y-110098809D01*
X176574318Y-110098809D02*
X176513842Y-109977857D01*
X176513842Y-109977857D02*
X176453365Y-109917381D01*
X176453365Y-109917381D02*
X176332413Y-109856904D01*
X176332413Y-109856904D02*
X176211461Y-109856904D01*
X176211461Y-109856904D02*
X176090508Y-109917381D01*
X176090508Y-109917381D02*
X176030032Y-109977857D01*
X176030032Y-109977857D02*
X175969556Y-110098809D01*
X175969556Y-110098809D02*
X175909080Y-110340714D01*
X175909080Y-110340714D02*
X175848603Y-110461666D01*
X175848603Y-110461666D02*
X175788127Y-110522143D01*
X175788127Y-110522143D02*
X175667175Y-110582619D01*
X175667175Y-110582619D02*
X175546222Y-110582619D01*
X175546222Y-110582619D02*
X175425270Y-110522143D01*
X175425270Y-110522143D02*
X175364794Y-110461666D01*
X175364794Y-110461666D02*
X175304318Y-110340714D01*
X175304318Y-110340714D02*
X175304318Y-110038333D01*
X175304318Y-110038333D02*
X175364794Y-109856904D01*
X176574318Y-108647380D02*
X176574318Y-109373095D01*
X176574318Y-109010238D02*
X175304318Y-109010238D01*
X175304318Y-109010238D02*
X175485746Y-109131190D01*
X175485746Y-109131190D02*
X175606699Y-109252142D01*
X175606699Y-109252142D02*
X175667175Y-109373095D01*
D11*
X166107142Y-115039580D02*
X166059523Y-115087200D01*
X166059523Y-115087200D02*
X165916666Y-115134819D01*
X165916666Y-115134819D02*
X165821428Y-115134819D01*
X165821428Y-115134819D02*
X165678571Y-115087200D01*
X165678571Y-115087200D02*
X165583333Y-114991961D01*
X165583333Y-114991961D02*
X165535714Y-114896723D01*
X165535714Y-114896723D02*
X165488095Y-114706247D01*
X165488095Y-114706247D02*
X165488095Y-114563390D01*
X165488095Y-114563390D02*
X165535714Y-114372914D01*
X165535714Y-114372914D02*
X165583333Y-114277676D01*
X165583333Y-114277676D02*
X165678571Y-114182438D01*
X165678571Y-114182438D02*
X165821428Y-114134819D01*
X165821428Y-114134819D02*
X165916666Y-114134819D01*
X165916666Y-114134819D02*
X166059523Y-114182438D01*
X166059523Y-114182438D02*
X166107142Y-114230057D01*
X167059523Y-115134819D02*
X166488095Y-115134819D01*
X166773809Y-115134819D02*
X166773809Y-114134819D01*
X166773809Y-114134819D02*
X166678571Y-114277676D01*
X166678571Y-114277676D02*
X166583333Y-114372914D01*
X166583333Y-114372914D02*
X166488095Y-114420533D01*
X167440476Y-114230057D02*
X167488095Y-114182438D01*
X167488095Y-114182438D02*
X167583333Y-114134819D01*
X167583333Y-114134819D02*
X167821428Y-114134819D01*
X167821428Y-114134819D02*
X167916666Y-114182438D01*
X167916666Y-114182438D02*
X167964285Y-114230057D01*
X167964285Y-114230057D02*
X168011904Y-114325295D01*
X168011904Y-114325295D02*
X168011904Y-114420533D01*
X168011904Y-114420533D02*
X167964285Y-114563390D01*
X167964285Y-114563390D02*
X167392857Y-115134819D01*
X167392857Y-115134819D02*
X168011904Y-115134819D01*
X156357142Y-79454819D02*
X156023809Y-78978628D01*
X155785714Y-79454819D02*
X155785714Y-78454819D01*
X155785714Y-78454819D02*
X156166666Y-78454819D01*
X156166666Y-78454819D02*
X156261904Y-78502438D01*
X156261904Y-78502438D02*
X156309523Y-78550057D01*
X156309523Y-78550057D02*
X156357142Y-78645295D01*
X156357142Y-78645295D02*
X156357142Y-78788152D01*
X156357142Y-78788152D02*
X156309523Y-78883390D01*
X156309523Y-78883390D02*
X156261904Y-78931009D01*
X156261904Y-78931009D02*
X156166666Y-78978628D01*
X156166666Y-78978628D02*
X155785714Y-78978628D01*
X157309523Y-79454819D02*
X156738095Y-79454819D01*
X157023809Y-79454819D02*
X157023809Y-78454819D01*
X157023809Y-78454819D02*
X156928571Y-78597676D01*
X156928571Y-78597676D02*
X156833333Y-78692914D01*
X156833333Y-78692914D02*
X156738095Y-78740533D01*
X157880952Y-78883390D02*
X157785714Y-78835771D01*
X157785714Y-78835771D02*
X157738095Y-78788152D01*
X157738095Y-78788152D02*
X157690476Y-78692914D01*
X157690476Y-78692914D02*
X157690476Y-78645295D01*
X157690476Y-78645295D02*
X157738095Y-78550057D01*
X157738095Y-78550057D02*
X157785714Y-78502438D01*
X157785714Y-78502438D02*
X157880952Y-78454819D01*
X157880952Y-78454819D02*
X158071428Y-78454819D01*
X158071428Y-78454819D02*
X158166666Y-78502438D01*
X158166666Y-78502438D02*
X158214285Y-78550057D01*
X158214285Y-78550057D02*
X158261904Y-78645295D01*
X158261904Y-78645295D02*
X158261904Y-78692914D01*
X158261904Y-78692914D02*
X158214285Y-78788152D01*
X158214285Y-78788152D02*
X158166666Y-78835771D01*
X158166666Y-78835771D02*
X158071428Y-78883390D01*
X158071428Y-78883390D02*
X157880952Y-78883390D01*
X157880952Y-78883390D02*
X157785714Y-78931009D01*
X157785714Y-78931009D02*
X157738095Y-78978628D01*
X157738095Y-78978628D02*
X157690476Y-79073866D01*
X157690476Y-79073866D02*
X157690476Y-79264342D01*
X157690476Y-79264342D02*
X157738095Y-79359580D01*
X157738095Y-79359580D02*
X157785714Y-79407200D01*
X157785714Y-79407200D02*
X157880952Y-79454819D01*
X157880952Y-79454819D02*
X158071428Y-79454819D01*
X158071428Y-79454819D02*
X158166666Y-79407200D01*
X158166666Y-79407200D02*
X158214285Y-79359580D01*
X158214285Y-79359580D02*
X158261904Y-79264342D01*
X158261904Y-79264342D02*
X158261904Y-79073866D01*
X158261904Y-79073866D02*
X158214285Y-78978628D01*
X158214285Y-78978628D02*
X158166666Y-78931009D01*
X158166666Y-78931009D02*
X158071428Y-78883390D01*
X133107142Y-110634819D02*
X132773809Y-110158628D01*
X132535714Y-110634819D02*
X132535714Y-109634819D01*
X132535714Y-109634819D02*
X132916666Y-109634819D01*
X132916666Y-109634819D02*
X133011904Y-109682438D01*
X133011904Y-109682438D02*
X133059523Y-109730057D01*
X133059523Y-109730057D02*
X133107142Y-109825295D01*
X133107142Y-109825295D02*
X133107142Y-109968152D01*
X133107142Y-109968152D02*
X133059523Y-110063390D01*
X133059523Y-110063390D02*
X133011904Y-110111009D01*
X133011904Y-110111009D02*
X132916666Y-110158628D01*
X132916666Y-110158628D02*
X132535714Y-110158628D01*
X134059523Y-110634819D02*
X133488095Y-110634819D01*
X133773809Y-110634819D02*
X133773809Y-109634819D01*
X133773809Y-109634819D02*
X133678571Y-109777676D01*
X133678571Y-109777676D02*
X133583333Y-109872914D01*
X133583333Y-109872914D02*
X133488095Y-109920533D01*
X135011904Y-110634819D02*
X134440476Y-110634819D01*
X134726190Y-110634819D02*
X134726190Y-109634819D01*
X134726190Y-109634819D02*
X134630952Y-109777676D01*
X134630952Y-109777676D02*
X134535714Y-109872914D01*
X134535714Y-109872914D02*
X134440476Y-109920533D01*
X130238095Y-114954819D02*
X130238095Y-115764342D01*
X130238095Y-115764342D02*
X130285714Y-115859580D01*
X130285714Y-115859580D02*
X130333333Y-115907200D01*
X130333333Y-115907200D02*
X130428571Y-115954819D01*
X130428571Y-115954819D02*
X130619047Y-115954819D01*
X130619047Y-115954819D02*
X130714285Y-115907200D01*
X130714285Y-115907200D02*
X130761904Y-115859580D01*
X130761904Y-115859580D02*
X130809523Y-115764342D01*
X130809523Y-115764342D02*
X130809523Y-114954819D01*
X131190476Y-114954819D02*
X131809523Y-114954819D01*
X131809523Y-114954819D02*
X131476190Y-115335771D01*
X131476190Y-115335771D02*
X131619047Y-115335771D01*
X131619047Y-115335771D02*
X131714285Y-115383390D01*
X131714285Y-115383390D02*
X131761904Y-115431009D01*
X131761904Y-115431009D02*
X131809523Y-115526247D01*
X131809523Y-115526247D02*
X131809523Y-115764342D01*
X131809523Y-115764342D02*
X131761904Y-115859580D01*
X131761904Y-115859580D02*
X131714285Y-115907200D01*
X131714285Y-115907200D02*
X131619047Y-115954819D01*
X131619047Y-115954819D02*
X131333333Y-115954819D01*
X131333333Y-115954819D02*
X131238095Y-115907200D01*
X131238095Y-115907200D02*
X131190476Y-115859580D01*
X170261905Y-106204819D02*
X170261905Y-105204819D01*
X170261905Y-105204819D02*
X170500000Y-105204819D01*
X170500000Y-105204819D02*
X170642857Y-105252438D01*
X170642857Y-105252438D02*
X170738095Y-105347676D01*
X170738095Y-105347676D02*
X170785714Y-105442914D01*
X170785714Y-105442914D02*
X170833333Y-105633390D01*
X170833333Y-105633390D02*
X170833333Y-105776247D01*
X170833333Y-105776247D02*
X170785714Y-105966723D01*
X170785714Y-105966723D02*
X170738095Y-106061961D01*
X170738095Y-106061961D02*
X170642857Y-106157200D01*
X170642857Y-106157200D02*
X170500000Y-106204819D01*
X170500000Y-106204819D02*
X170261905Y-106204819D01*
X171690476Y-105204819D02*
X171500000Y-105204819D01*
X171500000Y-105204819D02*
X171404762Y-105252438D01*
X171404762Y-105252438D02*
X171357143Y-105300057D01*
X171357143Y-105300057D02*
X171261905Y-105442914D01*
X171261905Y-105442914D02*
X171214286Y-105633390D01*
X171214286Y-105633390D02*
X171214286Y-106014342D01*
X171214286Y-106014342D02*
X171261905Y-106109580D01*
X171261905Y-106109580D02*
X171309524Y-106157200D01*
X171309524Y-106157200D02*
X171404762Y-106204819D01*
X171404762Y-106204819D02*
X171595238Y-106204819D01*
X171595238Y-106204819D02*
X171690476Y-106157200D01*
X171690476Y-106157200D02*
X171738095Y-106109580D01*
X171738095Y-106109580D02*
X171785714Y-106014342D01*
X171785714Y-106014342D02*
X171785714Y-105776247D01*
X171785714Y-105776247D02*
X171738095Y-105681009D01*
X171738095Y-105681009D02*
X171690476Y-105633390D01*
X171690476Y-105633390D02*
X171595238Y-105585771D01*
X171595238Y-105585771D02*
X171404762Y-105585771D01*
X171404762Y-105585771D02*
X171309524Y-105633390D01*
X171309524Y-105633390D02*
X171261905Y-105681009D01*
X171261905Y-105681009D02*
X171214286Y-105776247D01*
D12*
X166524318Y-79489762D02*
X165254318Y-79489762D01*
X166403365Y-78159285D02*
X166463842Y-78219761D01*
X166463842Y-78219761D02*
X166524318Y-78401190D01*
X166524318Y-78401190D02*
X166524318Y-78522142D01*
X166524318Y-78522142D02*
X166463842Y-78703571D01*
X166463842Y-78703571D02*
X166342889Y-78824523D01*
X166342889Y-78824523D02*
X166221937Y-78885000D01*
X166221937Y-78885000D02*
X165980032Y-78945476D01*
X165980032Y-78945476D02*
X165798603Y-78945476D01*
X165798603Y-78945476D02*
X165556699Y-78885000D01*
X165556699Y-78885000D02*
X165435746Y-78824523D01*
X165435746Y-78824523D02*
X165314794Y-78703571D01*
X165314794Y-78703571D02*
X165254318Y-78522142D01*
X165254318Y-78522142D02*
X165254318Y-78401190D01*
X165254318Y-78401190D02*
X165314794Y-78219761D01*
X165314794Y-78219761D02*
X165375270Y-78159285D01*
X165254318Y-77735952D02*
X165254318Y-76949761D01*
X165254318Y-76949761D02*
X165738127Y-77373095D01*
X165738127Y-77373095D02*
X165738127Y-77191666D01*
X165738127Y-77191666D02*
X165798603Y-77070714D01*
X165798603Y-77070714D02*
X165859080Y-77010238D01*
X165859080Y-77010238D02*
X165980032Y-76949761D01*
X165980032Y-76949761D02*
X166282413Y-76949761D01*
X166282413Y-76949761D02*
X166403365Y-77010238D01*
X166403365Y-77010238D02*
X166463842Y-77070714D01*
X166463842Y-77070714D02*
X166524318Y-77191666D01*
X166524318Y-77191666D02*
X166524318Y-77554523D01*
X166524318Y-77554523D02*
X166463842Y-77675476D01*
X166463842Y-77675476D02*
X166403365Y-77735952D01*
D11*
X169989580Y-83642857D02*
X170037200Y-83690476D01*
X170037200Y-83690476D02*
X170084819Y-83833333D01*
X170084819Y-83833333D02*
X170084819Y-83928571D01*
X170084819Y-83928571D02*
X170037200Y-84071428D01*
X170037200Y-84071428D02*
X169941961Y-84166666D01*
X169941961Y-84166666D02*
X169846723Y-84214285D01*
X169846723Y-84214285D02*
X169656247Y-84261904D01*
X169656247Y-84261904D02*
X169513390Y-84261904D01*
X169513390Y-84261904D02*
X169322914Y-84214285D01*
X169322914Y-84214285D02*
X169227676Y-84166666D01*
X169227676Y-84166666D02*
X169132438Y-84071428D01*
X169132438Y-84071428D02*
X169084819Y-83928571D01*
X169084819Y-83928571D02*
X169084819Y-83833333D01*
X169084819Y-83833333D02*
X169132438Y-83690476D01*
X169132438Y-83690476D02*
X169180057Y-83642857D01*
X170084819Y-82690476D02*
X170084819Y-83261904D01*
X170084819Y-82976190D02*
X169084819Y-82976190D01*
X169084819Y-82976190D02*
X169227676Y-83071428D01*
X169227676Y-83071428D02*
X169322914Y-83166666D01*
X169322914Y-83166666D02*
X169370533Y-83261904D01*
X169084819Y-81833333D02*
X169084819Y-82023809D01*
X169084819Y-82023809D02*
X169132438Y-82119047D01*
X169132438Y-82119047D02*
X169180057Y-82166666D01*
X169180057Y-82166666D02*
X169322914Y-82261904D01*
X169322914Y-82261904D02*
X169513390Y-82309523D01*
X169513390Y-82309523D02*
X169894342Y-82309523D01*
X169894342Y-82309523D02*
X169989580Y-82261904D01*
X169989580Y-82261904D02*
X170037200Y-82214285D01*
X170037200Y-82214285D02*
X170084819Y-82119047D01*
X170084819Y-82119047D02*
X170084819Y-81928571D01*
X170084819Y-81928571D02*
X170037200Y-81833333D01*
X170037200Y-81833333D02*
X169989580Y-81785714D01*
X169989580Y-81785714D02*
X169894342Y-81738095D01*
X169894342Y-81738095D02*
X169656247Y-81738095D01*
X169656247Y-81738095D02*
X169561009Y-81785714D01*
X169561009Y-81785714D02*
X169513390Y-81833333D01*
X169513390Y-81833333D02*
X169465771Y-81928571D01*
X169465771Y-81928571D02*
X169465771Y-82119047D01*
X169465771Y-82119047D02*
X169513390Y-82214285D01*
X169513390Y-82214285D02*
X169561009Y-82261904D01*
X169561009Y-82261904D02*
X169656247Y-82309523D01*
X165204819Y-86392857D02*
X164728628Y-86726190D01*
X165204819Y-86964285D02*
X164204819Y-86964285D01*
X164204819Y-86964285D02*
X164204819Y-86583333D01*
X164204819Y-86583333D02*
X164252438Y-86488095D01*
X164252438Y-86488095D02*
X164300057Y-86440476D01*
X164300057Y-86440476D02*
X164395295Y-86392857D01*
X164395295Y-86392857D02*
X164538152Y-86392857D01*
X164538152Y-86392857D02*
X164633390Y-86440476D01*
X164633390Y-86440476D02*
X164681009Y-86488095D01*
X164681009Y-86488095D02*
X164728628Y-86583333D01*
X164728628Y-86583333D02*
X164728628Y-86964285D01*
X165204819Y-85440476D02*
X165204819Y-86011904D01*
X165204819Y-85726190D02*
X164204819Y-85726190D01*
X164204819Y-85726190D02*
X164347676Y-85821428D01*
X164347676Y-85821428D02*
X164442914Y-85916666D01*
X164442914Y-85916666D02*
X164490533Y-86011904D01*
X164204819Y-85107142D02*
X164204819Y-84440476D01*
X164204819Y-84440476D02*
X165204819Y-84869047D01*
X143954819Y-127166666D02*
X143478628Y-127499999D01*
X143954819Y-127738094D02*
X142954819Y-127738094D01*
X142954819Y-127738094D02*
X142954819Y-127357142D01*
X142954819Y-127357142D02*
X143002438Y-127261904D01*
X143002438Y-127261904D02*
X143050057Y-127214285D01*
X143050057Y-127214285D02*
X143145295Y-127166666D01*
X143145295Y-127166666D02*
X143288152Y-127166666D01*
X143288152Y-127166666D02*
X143383390Y-127214285D01*
X143383390Y-127214285D02*
X143431009Y-127261904D01*
X143431009Y-127261904D02*
X143478628Y-127357142D01*
X143478628Y-127357142D02*
X143478628Y-127738094D01*
X143050057Y-126785713D02*
X143002438Y-126738094D01*
X143002438Y-126738094D02*
X142954819Y-126642856D01*
X142954819Y-126642856D02*
X142954819Y-126404761D01*
X142954819Y-126404761D02*
X143002438Y-126309523D01*
X143002438Y-126309523D02*
X143050057Y-126261904D01*
X143050057Y-126261904D02*
X143145295Y-126214285D01*
X143145295Y-126214285D02*
X143240533Y-126214285D01*
X143240533Y-126214285D02*
X143383390Y-126261904D01*
X143383390Y-126261904D02*
X143954819Y-126833332D01*
X143954819Y-126833332D02*
X143954819Y-126214285D01*
X169833333Y-95609580D02*
X169785714Y-95657200D01*
X169785714Y-95657200D02*
X169642857Y-95704819D01*
X169642857Y-95704819D02*
X169547619Y-95704819D01*
X169547619Y-95704819D02*
X169404762Y-95657200D01*
X169404762Y-95657200D02*
X169309524Y-95561961D01*
X169309524Y-95561961D02*
X169261905Y-95466723D01*
X169261905Y-95466723D02*
X169214286Y-95276247D01*
X169214286Y-95276247D02*
X169214286Y-95133390D01*
X169214286Y-95133390D02*
X169261905Y-94942914D01*
X169261905Y-94942914D02*
X169309524Y-94847676D01*
X169309524Y-94847676D02*
X169404762Y-94752438D01*
X169404762Y-94752438D02*
X169547619Y-94704819D01*
X169547619Y-94704819D02*
X169642857Y-94704819D01*
X169642857Y-94704819D02*
X169785714Y-94752438D01*
X169785714Y-94752438D02*
X169833333Y-94800057D01*
X170404762Y-95133390D02*
X170309524Y-95085771D01*
X170309524Y-95085771D02*
X170261905Y-95038152D01*
X170261905Y-95038152D02*
X170214286Y-94942914D01*
X170214286Y-94942914D02*
X170214286Y-94895295D01*
X170214286Y-94895295D02*
X170261905Y-94800057D01*
X170261905Y-94800057D02*
X170309524Y-94752438D01*
X170309524Y-94752438D02*
X170404762Y-94704819D01*
X170404762Y-94704819D02*
X170595238Y-94704819D01*
X170595238Y-94704819D02*
X170690476Y-94752438D01*
X170690476Y-94752438D02*
X170738095Y-94800057D01*
X170738095Y-94800057D02*
X170785714Y-94895295D01*
X170785714Y-94895295D02*
X170785714Y-94942914D01*
X170785714Y-94942914D02*
X170738095Y-95038152D01*
X170738095Y-95038152D02*
X170690476Y-95085771D01*
X170690476Y-95085771D02*
X170595238Y-95133390D01*
X170595238Y-95133390D02*
X170404762Y-95133390D01*
X170404762Y-95133390D02*
X170309524Y-95181009D01*
X170309524Y-95181009D02*
X170261905Y-95228628D01*
X170261905Y-95228628D02*
X170214286Y-95323866D01*
X170214286Y-95323866D02*
X170214286Y-95514342D01*
X170214286Y-95514342D02*
X170261905Y-95609580D01*
X170261905Y-95609580D02*
X170309524Y-95657200D01*
X170309524Y-95657200D02*
X170404762Y-95704819D01*
X170404762Y-95704819D02*
X170595238Y-95704819D01*
X170595238Y-95704819D02*
X170690476Y-95657200D01*
X170690476Y-95657200D02*
X170738095Y-95609580D01*
X170738095Y-95609580D02*
X170785714Y-95514342D01*
X170785714Y-95514342D02*
X170785714Y-95323866D01*
X170785714Y-95323866D02*
X170738095Y-95228628D01*
X170738095Y-95228628D02*
X170690476Y-95181009D01*
X170690476Y-95181009D02*
X170595238Y-95133390D01*
X118454819Y-102488094D02*
X117454819Y-102488094D01*
X117454819Y-102488094D02*
X117454819Y-102249999D01*
X117454819Y-102249999D02*
X117502438Y-102107142D01*
X117502438Y-102107142D02*
X117597676Y-102011904D01*
X117597676Y-102011904D02*
X117692914Y-101964285D01*
X117692914Y-101964285D02*
X117883390Y-101916666D01*
X117883390Y-101916666D02*
X118026247Y-101916666D01*
X118026247Y-101916666D02*
X118216723Y-101964285D01*
X118216723Y-101964285D02*
X118311961Y-102011904D01*
X118311961Y-102011904D02*
X118407200Y-102107142D01*
X118407200Y-102107142D02*
X118454819Y-102249999D01*
X118454819Y-102249999D02*
X118454819Y-102488094D01*
X117454819Y-101011904D02*
X117454819Y-101488094D01*
X117454819Y-101488094D02*
X117931009Y-101535713D01*
X117931009Y-101535713D02*
X117883390Y-101488094D01*
X117883390Y-101488094D02*
X117835771Y-101392856D01*
X117835771Y-101392856D02*
X117835771Y-101154761D01*
X117835771Y-101154761D02*
X117883390Y-101059523D01*
X117883390Y-101059523D02*
X117931009Y-101011904D01*
X117931009Y-101011904D02*
X118026247Y-100964285D01*
X118026247Y-100964285D02*
X118264342Y-100964285D01*
X118264342Y-100964285D02*
X118359580Y-101011904D01*
X118359580Y-101011904D02*
X118407200Y-101059523D01*
X118407200Y-101059523D02*
X118454819Y-101154761D01*
X118454819Y-101154761D02*
X118454819Y-101392856D01*
X118454819Y-101392856D02*
X118407200Y-101488094D01*
X118407200Y-101488094D02*
X118359580Y-101535713D01*
D13*
%TO.C,C29*%
X145490000Y-51384420D02*
X145490000Y-51665580D01*
X146510000Y-51384420D02*
X146510000Y-51665580D01*
%TO.C,U1*%
X145315000Y-49135000D02*
X144880000Y-49135000D01*
X148860000Y-49135000D02*
X148185000Y-49135000D01*
X144640000Y-48460000D02*
X144640000Y-48835000D01*
X148860000Y-48460000D02*
X148860000Y-49135000D01*
X144640000Y-45590000D02*
X144640000Y-44915000D01*
X148860000Y-45590000D02*
X148860000Y-44915000D01*
X144640000Y-44915000D02*
X145315000Y-44915000D01*
X148860000Y-44915000D02*
X148185000Y-44915000D01*
X144640000Y-49135000D02*
X144450000Y-49275000D01*
X144450000Y-48995000D01*
X144640000Y-49135000D01*
G36*
X144640000Y-49135000D02*
G01*
X144450000Y-49275000D01*
X144450000Y-48995000D01*
X144640000Y-49135000D01*
G37*
%TO.C,R24*%
X150522500Y-48537742D02*
X150522500Y-49012258D01*
X149477500Y-48537742D02*
X149477500Y-49012258D01*
%TO.C,C31*%
X144760000Y-51384420D02*
X144760000Y-51665580D01*
X143740000Y-51384420D02*
X143740000Y-51665580D01*
%TO.C,C30*%
X142990000Y-45915580D02*
X142990000Y-45634420D01*
X144010000Y-45915580D02*
X144010000Y-45634420D01*
%TO.C,C1*%
X151890580Y-120490000D02*
X151609420Y-120490000D01*
X151890580Y-121510000D02*
X151609420Y-121510000D01*
%TO.C,C24*%
X128640580Y-116990000D02*
X128359420Y-116990000D01*
X128640580Y-118010000D02*
X128359420Y-118010000D01*
%TO.C,D4*%
X162215000Y-82200000D02*
X162215000Y-84485000D01*
X162215000Y-84485000D02*
X163685000Y-84485000D01*
X163685000Y-84485000D02*
X163685000Y-82200000D01*
%TO.C,R15*%
X159712742Y-80227500D02*
X160187258Y-80227500D01*
X159712742Y-81272500D02*
X160187258Y-81272500D01*
%TO.C,L1*%
X153397936Y-122140000D02*
X154602064Y-122140000D01*
X153397936Y-124860000D02*
X154602064Y-124860000D01*
%TO.C,D2*%
X160515000Y-130015000D02*
X160515000Y-132300000D01*
X161985000Y-130015000D02*
X160515000Y-130015000D01*
X161985000Y-132300000D02*
X161985000Y-130015000D01*
%TO.C,J1*%
X160260000Y-71620000D02*
X160260000Y-74380000D01*
X167990000Y-71620000D02*
X160260000Y-71620000D01*
X167990000Y-71620000D02*
X167990000Y-74380000D01*
X167990000Y-74380000D02*
X160260000Y-74380000D01*
X169260000Y-71620000D02*
X170640000Y-71620000D01*
X170640000Y-71620000D02*
X170640000Y-73000000D01*
%TO.C,R12*%
X126762742Y-48977500D02*
X127237258Y-48977500D01*
X126762742Y-50022500D02*
X127237258Y-50022500D01*
%TO.C,C17*%
X165940000Y-82859420D02*
X165940000Y-83140580D01*
X166960000Y-82859420D02*
X166960000Y-83140580D01*
%TO.C,D1*%
X158765000Y-130015000D02*
X158765000Y-132300000D01*
X160235000Y-130015000D02*
X158765000Y-130015000D01*
X160235000Y-132300000D02*
X160235000Y-130015000D01*
%TO.C,J7*%
X143475000Y-69160000D02*
X143475000Y-68000000D01*
X144285000Y-69160000D02*
X143475000Y-69160000D01*
X145095000Y-66840000D02*
X156460000Y-66840000D01*
X145095000Y-67333292D02*
X145095000Y-66840000D01*
X145095000Y-69160000D02*
X145095000Y-68666708D01*
X145095000Y-69160000D02*
X156460000Y-69160000D01*
X156460000Y-67682077D02*
X156460000Y-66840000D01*
X156460000Y-69160000D02*
X156460000Y-68317923D01*
%TO.C,R6*%
X160762742Y-120477500D02*
X161237258Y-120477500D01*
X160762742Y-121522500D02*
X161237258Y-121522500D01*
%TO.C,U2*%
X149350000Y-125950000D02*
X149550000Y-125950000D01*
X149350000Y-126500000D02*
X149350000Y-125950000D01*
X150650000Y-125950000D02*
X150450000Y-125950000D01*
X150650000Y-126500000D02*
X150650000Y-125950000D01*
X149240000Y-127210000D02*
X148960000Y-126930000D01*
X149240000Y-126930000D01*
X149240000Y-127210000D01*
G36*
X149240000Y-127210000D02*
G01*
X148960000Y-126930000D01*
X149240000Y-126930000D01*
X149240000Y-127210000D01*
G37*
%TO.C,R20*%
X120977500Y-104012742D02*
X120977500Y-104487258D01*
X122022500Y-104012742D02*
X122022500Y-104487258D01*
%TO.C,TP2*%
X168950000Y-120000000D02*
G75*
G02*
X167550000Y-120000000I-700000J0D01*
G01*
X167550000Y-120000000D02*
G75*
G02*
X168950000Y-120000000I700000J0D01*
G01*
%TO.C,C21*%
X130240000Y-106390580D02*
X130240000Y-106109420D01*
X131260000Y-106390580D02*
X131260000Y-106109420D01*
%TO.C,C15*%
X160140580Y-59990000D02*
X159859420Y-59990000D01*
X160140580Y-61010000D02*
X159859420Y-61010000D01*
%TO.C,C11*%
X169859420Y-112740000D02*
X170140580Y-112740000D01*
X169859420Y-113760000D02*
X170140580Y-113760000D01*
%TO.C,R21*%
X119227500Y-104012742D02*
X119227500Y-104487258D01*
X120272500Y-104012742D02*
X120272500Y-104487258D01*
%TO.C,C9*%
X166890580Y-93240000D02*
X166609420Y-93240000D01*
X166890580Y-94260000D02*
X166609420Y-94260000D01*
%TO.C,C7*%
X165990000Y-87240000D02*
X167190000Y-87240000D01*
X165990000Y-90695563D02*
X165990000Y-87240000D01*
X166440000Y-92250000D02*
X166940000Y-92250000D01*
X166690000Y-92500000D02*
X166690000Y-92000000D01*
X167054437Y-91760000D02*
X165990000Y-90695563D01*
X167054437Y-91760000D02*
X167190000Y-91760000D01*
X169445563Y-91760000D02*
X169310000Y-91760000D01*
X169445563Y-91760000D02*
X170510000Y-90695563D01*
X170510000Y-87240000D02*
X169310000Y-87240000D01*
X170510000Y-90695563D02*
X170510000Y-87240000D01*
D10*
%TO.C,Y1*%
X117222183Y-112234924D02*
X117222183Y-112234924D01*
X117292893Y-112164214D02*
X117292893Y-112164214D01*
X117222183Y-112234924D02*
G75*
G02*
X117292893Y-112164214I35356J35354D01*
G01*
X117292893Y-112164214D02*
G75*
G02*
X117222183Y-112234924I-35355J-35355D01*
G01*
D13*
%TO.C,C3*%
X165490000Y-121890580D02*
X165490000Y-121609420D01*
X166510000Y-121890580D02*
X166510000Y-121609420D01*
%TO.C,C5*%
X180740000Y-89109420D02*
X180740000Y-89390580D01*
X181760000Y-89109420D02*
X181760000Y-89390580D01*
%TO.C,TP6*%
X175450000Y-103500000D02*
G75*
G02*
X174050000Y-103500000I-700000J0D01*
G01*
X174050000Y-103500000D02*
G75*
G02*
X175450000Y-103500000I700000J0D01*
G01*
D14*
%TO.C,PS2*%
X174250000Y-87500000D02*
X177750000Y-87500000D01*
X174250000Y-94000000D02*
X174250000Y-87500000D01*
X177750000Y-87500000D02*
X177750000Y-94000000D01*
X177750000Y-94000000D02*
X174250000Y-94000000D01*
X179900000Y-93850000D02*
X178100000Y-93850000D01*
D13*
%TO.C,C22*%
X131970000Y-106390580D02*
X131970000Y-106109420D01*
X132990000Y-106390580D02*
X132990000Y-106109420D01*
D12*
%TO.C,IC2*%
X128657000Y-48752000D02*
G75*
G02*
X128607000Y-48752000I-25000J0D01*
G01*
X128607000Y-48752000D02*
G75*
G02*
X128657000Y-48752000I25000J0D01*
G01*
D13*
%TO.C,J2*%
X175115000Y-44100000D02*
X175115000Y-44740000D01*
X175115000Y-44740000D02*
X174485000Y-44740000D01*
X175115000Y-46900000D02*
X175115000Y-46260000D01*
X177835000Y-44150000D02*
X177835000Y-46850000D01*
%TO.C,C20*%
X123859420Y-104490000D02*
X124140580Y-104490000D01*
X123859420Y-105510000D02*
X124140580Y-105510000D01*
%TO.C,C23*%
X128640580Y-118740000D02*
X128359420Y-118740000D01*
X128640580Y-119760000D02*
X128359420Y-119760000D01*
%TO.C,C18*%
X117510000Y-115109420D02*
X117510000Y-115390580D01*
X118530000Y-115109420D02*
X118530000Y-115390580D01*
%TO.C,C27*%
X115490000Y-107890580D02*
X115490000Y-107609420D01*
X116510000Y-107890580D02*
X116510000Y-107609420D01*
D15*
%TO.C,IC6*%
X159200000Y-122850000D02*
G75*
G02*
X158950000Y-122850000I-125000J0D01*
G01*
X158950000Y-122850000D02*
G75*
G02*
X159200000Y-122850000I125000J0D01*
G01*
D13*
%TO.C,C26*%
X115490000Y-114390580D02*
X115490000Y-114109420D01*
X116510000Y-114390580D02*
X116510000Y-114109420D01*
%TO.C,R23*%
X176987258Y-85727500D02*
X176512742Y-85727500D01*
X176987258Y-86772500D02*
X176512742Y-86772500D01*
%TO.C,C6*%
X163740000Y-121890580D02*
X163740000Y-121609420D01*
X164760000Y-121890580D02*
X164760000Y-121609420D01*
%TO.C,J6*%
X116120000Y-94060000D02*
X116120000Y-83790000D01*
X118880000Y-83790000D02*
X116120000Y-83790000D01*
X118880000Y-94060000D02*
X116120000Y-94060000D01*
X118880000Y-94060000D02*
X118880000Y-83790000D01*
X118880000Y-95330000D02*
X118880000Y-96710000D01*
X118880000Y-96710000D02*
X117500000Y-96710000D01*
%TO.C,J4*%
X171120000Y-122095000D02*
X172500000Y-122095000D01*
X171120000Y-123475000D02*
X171120000Y-122095000D01*
X171120000Y-124745000D02*
X171120000Y-127395000D01*
X171120000Y-124745000D02*
X173880000Y-124745000D01*
X171120000Y-127395000D02*
X173880000Y-127395000D01*
X173880000Y-124745000D02*
X173880000Y-127395000D01*
%TO.C,C25*%
X119240000Y-115109420D02*
X119240000Y-115390580D01*
X120260000Y-115109420D02*
X120260000Y-115390580D01*
%TO.C,R4*%
X160727500Y-128487258D02*
X160727500Y-128012742D01*
X161772500Y-128487258D02*
X161772500Y-128012742D01*
%TO.C,R8*%
X176977500Y-95762742D02*
X176977500Y-96237258D01*
X178022500Y-95762742D02*
X178022500Y-96237258D01*
%TO.C,C28*%
X170809420Y-79990000D02*
X171090580Y-79990000D01*
X170809420Y-81010000D02*
X171090580Y-81010000D01*
%TO.C,TP3*%
X173450000Y-103500000D02*
G75*
G02*
X172050000Y-103500000I-700000J0D01*
G01*
X172050000Y-103500000D02*
G75*
G02*
X173450000Y-103500000I700000J0D01*
G01*
D14*
%TO.C,IC4*%
X131676598Y-120494975D02*
X131676598Y-120494975D01*
X131676598Y-120494975D02*
X131676598Y-120494975D01*
X131747309Y-120424264D02*
X131747309Y-120424264D01*
X131676598Y-120494975D02*
G75*
G02*
X131747309Y-120424264I35354J35357D01*
G01*
X131747309Y-120424264D02*
G75*
G02*
X131676598Y-120494975I-35356J-35355D01*
G01*
X131747309Y-120424264D02*
G75*
G02*
X131676598Y-120494975I-35356J-35355D01*
G01*
%TO.C,IC1*%
X158900000Y-59250000D02*
X171100000Y-59250000D01*
X171100000Y-43250000D02*
X158900000Y-43250000D01*
X172576000Y-58238000D02*
G75*
G02*
X172452000Y-58238000I-62000J0D01*
G01*
X172452000Y-58238000D02*
G75*
G02*
X172576000Y-58238000I62000J0D01*
G01*
D13*
%TO.C,TP1*%
X157700000Y-132750000D02*
G75*
G02*
X156300000Y-132750000I-700000J0D01*
G01*
X156300000Y-132750000D02*
G75*
G02*
X157700000Y-132750000I700000J0D01*
G01*
%TO.C,R9*%
X176977500Y-115262742D02*
X176977500Y-115737258D01*
X178022500Y-115262742D02*
X178022500Y-115737258D01*
%TO.C,R22*%
X176987258Y-105227500D02*
X176512742Y-105227500D01*
X176987258Y-106272500D02*
X176512742Y-106272500D01*
%TO.C,D3*%
X162265000Y-130015000D02*
X162265000Y-132300000D01*
X163735000Y-130015000D02*
X162265000Y-130015000D01*
X163735000Y-132300000D02*
X163735000Y-130015000D01*
%TO.C,R5*%
X162477500Y-128012742D02*
X162477500Y-128487258D01*
X163522500Y-128012742D02*
X163522500Y-128487258D01*
%TO.C,C13*%
X129859420Y-51990000D02*
X130140580Y-51990000D01*
X129859420Y-53010000D02*
X130140580Y-53010000D01*
%TO.C,TP8*%
X170950000Y-120000000D02*
G75*
G02*
X169550000Y-120000000I-700000J0D01*
G01*
X169550000Y-120000000D02*
G75*
G02*
X170950000Y-120000000I700000J0D01*
G01*
%TO.C,D7*%
X172700000Y-86985000D02*
X174985000Y-86985000D01*
X174985000Y-85515000D02*
X172700000Y-85515000D01*
X174985000Y-86985000D02*
X174985000Y-85515000D01*
%TO.C,R16*%
X171187258Y-77477500D02*
X170712742Y-77477500D01*
X171187258Y-78522500D02*
X170712742Y-78522500D01*
%TO.C,R13*%
X167012742Y-59977500D02*
X167487258Y-59977500D01*
X167012742Y-61022500D02*
X167487258Y-61022500D01*
%TO.C,R10*%
X178727500Y-115262742D02*
X178727500Y-115737258D01*
X179772500Y-115262742D02*
X179772500Y-115737258D01*
%TO.C,C19*%
X123859420Y-102740000D02*
X124140580Y-102740000D01*
X123859420Y-103760000D02*
X124140580Y-103760000D01*
D14*
%TO.C,J3*%
X145530000Y-130850000D02*
X145530000Y-132100000D01*
X145530000Y-134820000D02*
X145530000Y-136100000D01*
X154470000Y-130850000D02*
X154470000Y-132100000D01*
X154470000Y-136100000D02*
X154470000Y-134820000D01*
X146850000Y-127500000D02*
G75*
G02*
X146650000Y-127500000I-100000J0D01*
G01*
X146650000Y-127500000D02*
G75*
G02*
X146850000Y-127500000I100000J0D01*
G01*
D13*
%TO.C,TP4*%
X173450000Y-84000000D02*
G75*
G02*
X172050000Y-84000000I-700000J0D01*
G01*
X172050000Y-84000000D02*
G75*
G02*
X173450000Y-84000000I700000J0D01*
G01*
%TO.C,C10*%
X165990000Y-106740000D02*
X167190000Y-106740000D01*
X165990000Y-110195563D02*
X165990000Y-106740000D01*
X166440000Y-111750000D02*
X166940000Y-111750000D01*
X166690000Y-112000000D02*
X166690000Y-111500000D01*
X167054437Y-111260000D02*
X165990000Y-110195563D01*
X167054437Y-111260000D02*
X167190000Y-111260000D01*
X169445563Y-111260000D02*
X169310000Y-111260000D01*
X169445563Y-111260000D02*
X170510000Y-110195563D01*
X170510000Y-106740000D02*
X169310000Y-106740000D01*
X170510000Y-110195563D02*
X170510000Y-106740000D01*
%TO.C,R7*%
X178727500Y-95762742D02*
X178727500Y-96237258D01*
X179772500Y-95762742D02*
X179772500Y-96237258D01*
%TO.C,C2*%
X156109420Y-120490000D02*
X156390580Y-120490000D01*
X156109420Y-121510000D02*
X156390580Y-121510000D01*
%TO.C,C14*%
X131990000Y-49109420D02*
X131990000Y-49390580D01*
X133010000Y-49109420D02*
X133010000Y-49390580D01*
%TO.C,R14*%
X138262742Y-123477500D02*
X138737258Y-123477500D01*
X138262742Y-124522500D02*
X138737258Y-124522500D01*
%TO.C,C4*%
X180740000Y-108609420D02*
X180740000Y-108890580D01*
X181760000Y-108609420D02*
X181760000Y-108890580D01*
%TO.C,J8*%
X143475000Y-60160000D02*
X143475000Y-59000000D01*
X144285000Y-60160000D02*
X143475000Y-60160000D01*
X145095000Y-57840000D02*
X156460000Y-57840000D01*
X145095000Y-58333292D02*
X145095000Y-57840000D01*
X145095000Y-60160000D02*
X145095000Y-59666708D01*
X145095000Y-60160000D02*
X156460000Y-60160000D01*
X156460000Y-58682077D02*
X156460000Y-57840000D01*
X156460000Y-60160000D02*
X156460000Y-59317923D01*
%TO.C,R3*%
X158977500Y-128012742D02*
X158977500Y-128487258D01*
X160022500Y-128012742D02*
X160022500Y-128487258D01*
%TO.C,R19*%
X159712742Y-76727500D02*
X160187258Y-76727500D01*
X159712742Y-77772500D02*
X160187258Y-77772500D01*
%TO.C,R1*%
X155977500Y-129262742D02*
X155977500Y-129737258D01*
X157022500Y-129262742D02*
X157022500Y-129737258D01*
%TO.C,TP7*%
X175450000Y-84000000D02*
G75*
G02*
X174050000Y-84000000I-700000J0D01*
G01*
X174050000Y-84000000D02*
G75*
G02*
X175450000Y-84000000I700000J0D01*
G01*
D14*
%TO.C,PS1*%
X174250000Y-107000000D02*
X177750000Y-107000000D01*
X174250000Y-113500000D02*
X174250000Y-107000000D01*
X177750000Y-107000000D02*
X177750000Y-113500000D01*
X177750000Y-113500000D02*
X174250000Y-113500000D01*
X179900000Y-113350000D02*
X178100000Y-113350000D01*
D13*
%TO.C,C12*%
X166890580Y-112740000D02*
X166609420Y-112740000D01*
X166890580Y-113760000D02*
X166609420Y-113760000D01*
%TO.C,R18*%
X159712742Y-78477500D02*
X160187258Y-78477500D01*
X159712742Y-79522500D02*
X160187258Y-79522500D01*
%TO.C,R11*%
X133987258Y-108227500D02*
X133512742Y-108227500D01*
X133987258Y-109272500D02*
X133512742Y-109272500D01*
%TO.C,J5*%
X164595000Y-127380000D02*
X164595000Y-126000000D01*
X165975000Y-127380000D02*
X164595000Y-127380000D01*
X167245000Y-124620000D02*
X169895000Y-124620000D01*
X167245000Y-127380000D02*
X167245000Y-124620000D01*
X167245000Y-127380000D02*
X169895000Y-127380000D01*
X169895000Y-127380000D02*
X169895000Y-124620000D01*
%TO.C,U3*%
X122390000Y-107640000D02*
X122390000Y-108090000D01*
X122390000Y-114860000D02*
X122390000Y-114410000D01*
X122840000Y-107640000D02*
X122390000Y-107640000D01*
X122840000Y-114860000D02*
X122390000Y-114860000D01*
X129160000Y-107640000D02*
X129610000Y-107640000D01*
X129160000Y-114860000D02*
X129610000Y-114860000D01*
X129610000Y-107640000D02*
X129610000Y-108090000D01*
X129610000Y-114860000D02*
X129610000Y-114410000D01*
X121800000Y-108090000D02*
X121460000Y-107620000D01*
X122140000Y-107620000D01*
X121800000Y-108090000D01*
G36*
X121800000Y-108090000D02*
G01*
X121460000Y-107620000D01*
X122140000Y-107620000D01*
X121800000Y-108090000D01*
G37*
%TO.C,D6*%
X172700000Y-106485000D02*
X174985000Y-106485000D01*
X174985000Y-105015000D02*
X172700000Y-105015000D01*
X174985000Y-106485000D02*
X174985000Y-105015000D01*
D15*
%TO.C,IC3*%
X168075000Y-75875000D02*
G75*
G02*
X167825000Y-75875000I-125000J0D01*
G01*
X167825000Y-75875000D02*
G75*
G02*
X168075000Y-75875000I125000J0D01*
G01*
D13*
%TO.C,C16*%
X167690000Y-82859420D02*
X167690000Y-83140580D01*
X168710000Y-82859420D02*
X168710000Y-83140580D01*
%TO.C,R17*%
X164177500Y-82762742D02*
X164177500Y-83237258D01*
X165222500Y-82762742D02*
X165222500Y-83237258D01*
%TO.C,R2*%
X142977500Y-129262742D02*
X142977500Y-129737258D01*
X144022500Y-129262742D02*
X144022500Y-129737258D01*
%TO.C,TP5*%
X121450000Y-87750000D02*
G75*
G02*
X120050000Y-87750000I-700000J0D01*
G01*
X120050000Y-87750000D02*
G75*
G02*
X121450000Y-87750000I700000J0D01*
G01*
%TO.C,C8*%
X169859420Y-93240000D02*
X170140580Y-93240000D01*
X169859420Y-94260000D02*
X170140580Y-94260000D01*
%TO.C,D5*%
X117265000Y-103450000D02*
X117265000Y-105735000D01*
X117265000Y-105735000D02*
X118735000Y-105735000D01*
X118735000Y-105735000D02*
X118735000Y-103450000D01*
%TD*%
M02*
