M48
; DRILL file {KiCad 9.0.4} date 2025-09-22T08:36:48+0200
; FORMAT={-:-/ absolute / metric / decimal}
; #@! TF.CreationDate,2025-09-22T08:36:48+02:00
; #@! TF.GenerationSoftware,Kicad,Pcbnew,9.0.4
; #@! TF.FileFunction,Plated,1,4,PTH
FMAT,2
METRIC
; #@! TA.AperFunction,Plated,PTH,ViaDrill
T1C0.300
; #@! TA.AperFunction,Plated,PTH,ComponentDrill
T2C0.500
; #@! TA.AperFunction,Plated,PTH,ComponentDrill
T3C0.600
; #@! TA.AperFunction,Plated,PTH,ComponentDrill
T4C0.650
; #@! TA.AperFunction,Plated,PTH,ComponentDrill
T5C1.000
%
G90
G05
T1
X116.25Y-116.75
X118.0Y-113.25
X119.0Y-108.75
X122.5Y-102.0
X122.5Y-117.25
X122.75Y-125.25
X123.25Y-117.75
X123.5Y-113.0
X123.5Y-114.0
X124.0Y-118.0
X124.5Y-110.25
X124.75Y-75.75
X125.75Y-90.25
X126.0Y-105.0
X126.0Y-117.75
X126.5Y-51.0
X126.75Y-103.75
X127.25Y-46.5
X128.0Y-114.0
X128.25Y-112.25
X129.25Y-121.0
X130.0Y-95.0
X131.5Y-113.55
X131.75Y-108.5
X131.75Y-109.95
X132.0Y-114.264
X132.85Y-111.05
X133.0Y-54.75
X133.25Y-51.5
X133.75Y-48.5
X133.875Y-107.375
X134.661Y-119.911
X135.25Y-105.0
X137.75Y-52.0
X140.75Y-74.25
X141.0Y-120.25
X141.5Y-132.75
X142.0Y-58.5
X142.0Y-93.5
X143.25Y-105.25
X144.5Y-61.5
X144.75Y-119.5
X145.0Y-65.5
X145.25Y-51.5
X146.25Y-47.5
X147.0Y-49.75
X147.75Y-56.75
X149.25Y-129.75
X150.0Y-50.75
X150.496Y-127.732
X150.5Y-75.75
X151.0Y-54.75
X155.0Y-65.5
X155.25Y-61.5
X155.442Y-52.75
X155.75Y-109.5
X156.0Y-47.5
X157.0Y-55.25
X157.5Y-51.65
X158.0Y-85.0
X159.75Y-95.25
X160.588Y-82.212
X161.0Y-122.0
X161.25Y-56.25
X162.25Y-126.5
X162.45Y-77.03
X163.0Y-76.5
X163.25Y-59.75
X163.25Y-61.25
X163.53Y-75.97
X164.75Y-75.0
X165.75Y-129.25
X167.5Y-114.5
X167.75Y-45.5
X168.25Y-80.5
X168.25Y-114.5
X168.5Y-52.0
X168.75Y-75.75
X169.0Y-114.5
X169.5Y-85.0
X169.75Y-89.5
X169.75Y-122.0
X170.0Y-76.0
X170.5Y-92.0
X170.5Y-111.5
X170.5Y-125.0
X171.0Y-109.0
X171.25Y-82.5
X171.338Y-79.337
X171.75Y-87.75
X173.75Y-50.5
X173.75Y-56.25
X174.25Y-107.75
X174.5Y-97.25
X174.5Y-116.5
X176.0Y-89.0
X176.0Y-92.75
X176.25Y-112.0
X176.25Y-120.5
X178.5Y-76.5
X180.75Y-99.25
X181.25Y-114.0
X181.75Y-120.5
X184.25Y-89.25
X184.5Y-106.25
T2
X120.75Y-87.75
X157.0Y-132.75
X168.25Y-120.0
X170.25Y-120.0
X172.75Y-84.0
X172.75Y-103.5
X174.75Y-84.0
X174.75Y-103.5
T4
X144.285Y-59.0
X144.285Y-68.0
X145.555Y-59.0
X145.555Y-68.0
X146.825Y-59.0
X146.825Y-68.0
X148.095Y-59.0
X148.095Y-68.0
X149.365Y-59.0
X149.365Y-68.0
X150.635Y-59.0
X150.635Y-68.0
X151.905Y-59.0
X151.905Y-68.0
X153.175Y-59.0
X153.175Y-68.0
X154.445Y-59.0
X154.445Y-68.0
X155.715Y-59.0
X155.715Y-68.0
T5
X117.5Y-85.17
X117.5Y-87.71
X117.5Y-90.25
X117.5Y-92.79
X117.5Y-95.33
X161.64Y-73.0
X164.18Y-73.0
X165.975Y-126.0
X166.72Y-73.0
X168.515Y-126.0
X169.26Y-73.0
X172.5Y-123.475
X172.5Y-126.015
T3
G00X145.68Y-128.77
M15
G01X145.68Y-129.87
M16
G05
G00X145.68Y-133.1
M15
G01X145.68Y-133.9
M16
G05
G00X154.32Y-128.77
M15
G01X154.32Y-129.87
M16
G05
G00X154.32Y-133.1
M15
G01X154.32Y-133.9
M16
G05
M30
