%TF.GenerationSoftware,KiCad,Pcbnew,9.0.4*%
%TF.CreationDate,2025-09-22T08:36:52+02:00*%
%TF.ProjectId,SparrowCompass,53706172-726f-4774-936f-6d706173732e,rev?*%
%TF.SameCoordinates,Original*%
%TF.FileFunction,Paste,Top*%
%TF.FilePolarity,Positive*%
%FSLAX46Y46*%
G04 Gerber Fmt 4.6, Leading zero omitted, Abs format (unit mm)*
G04 Created by KiCad (PCBNEW 9.0.4) date 2025-09-22 08:36:52*
%MOMM*%
%LPD*%
G01*
G04 APERTURE LIST*
G04 Aperture macros list*
%AMRoundRect*
0 Rectangle with rounded corners*
0 $1 Rounding radius*
0 $2 $3 $4 $5 $6 $7 $8 $9 X,Y pos of 4 corners*
0 Add a 4 corners polygon primitive as box body*
4,1,4,$2,$3,$4,$5,$6,$7,$8,$9,$2,$3,0*
0 Add four circle primitives for the rounded corners*
1,1,$1+$1,$2,$3*
1,1,$1+$1,$4,$5*
1,1,$1+$1,$6,$7*
1,1,$1+$1,$8,$9*
0 Add four rect primitives between the rounded corners*
20,1,$1+$1,$2,$3,$4,$5,0*
20,1,$1+$1,$4,$5,$6,$7,0*
20,1,$1+$1,$6,$7,$8,$9,0*
20,1,$1+$1,$8,$9,$2,$3,0*%
%AMRotRect*
0 Rectangle, with rotation*
0 The origin of the aperture is its center*
0 $1 length*
0 $2 width*
0 $3 Rotation angle, in degrees counterclockwise*
0 Add horizontal line*
21,1,$1,$2,0,0,$3*%
G04 Aperture macros list end*
%ADD10RoundRect,0.225000X-0.250000X0.225000X-0.250000X-0.225000X0.250000X-0.225000X0.250000X0.225000X0*%
%ADD11RoundRect,0.100000X0.100000X-0.175000X0.100000X0.175000X-0.100000X0.175000X-0.100000X-0.175000X0*%
%ADD12RoundRect,0.100000X0.175000X-0.100000X0.175000X0.100000X-0.175000X0.100000X-0.175000X-0.100000X0*%
%ADD13RoundRect,0.200000X-0.275000X0.200000X-0.275000X-0.200000X0.275000X-0.200000X0.275000X0.200000X0*%
%ADD14RoundRect,0.225000X0.250000X-0.225000X0.250000X0.225000X-0.250000X0.225000X-0.250000X-0.225000X0*%
%ADD15RoundRect,0.225000X0.225000X0.250000X-0.225000X0.250000X-0.225000X-0.250000X0.225000X-0.250000X0*%
%ADD16RoundRect,0.218750X0.256250X-0.218750X0.256250X0.218750X-0.256250X0.218750X-0.256250X-0.218750X0*%
%ADD17RoundRect,0.200000X-0.200000X-0.275000X0.200000X-0.275000X0.200000X0.275000X-0.200000X0.275000X0*%
%ADD18RoundRect,0.250000X-0.375000X-1.075000X0.375000X-1.075000X0.375000X1.075000X-0.375000X1.075000X0*%
%ADD19RoundRect,0.218750X-0.256250X0.218750X-0.256250X-0.218750X0.256250X-0.218750X0.256250X0.218750X0*%
%ADD20RoundRect,0.075000X-0.075000X-0.075000X0.075000X-0.075000X0.075000X0.075000X-0.075000X0.075000X0*%
%ADD21RoundRect,0.225000X-0.225000X-0.250000X0.225000X-0.250000X0.225000X0.250000X-0.225000X0.250000X0*%
%ADD22RoundRect,0.250000X0.550000X-1.050000X0.550000X1.050000X-0.550000X1.050000X-0.550000X-1.050000X0*%
%ADD23RotRect,0.700000X0.750000X135.000000*%
%ADD24R,1.800000X0.900000*%
%ADD25R,1.800000X3.200000*%
%ADD26R,0.400000X0.400000*%
%ADD27RoundRect,0.250000X-0.275000X-0.250000X0.275000X-0.250000X0.275000X0.250000X-0.275000X0.250000X0*%
%ADD28RoundRect,0.250000X-0.850000X-0.275000X0.850000X-0.275000X0.850000X0.275000X-0.850000X0.275000X0*%
%ADD29R,0.850000X0.300000*%
%ADD30R,1.700000X2.450000*%
%ADD31RoundRect,0.200000X0.200000X0.275000X-0.200000X0.275000X-0.200000X-0.275000X0.200000X-0.275000X0*%
%ADD32RoundRect,0.200000X0.275000X-0.200000X0.275000X0.200000X-0.275000X0.200000X-0.275000X-0.200000X0*%
%ADD33RotRect,0.720000X1.080000X135.000000*%
%ADD34R,1.800000X0.800000*%
%ADD35RoundRect,0.218750X0.218750X0.256250X-0.218750X0.256250X-0.218750X-0.256250X0.218750X-0.256250X0*%
%ADD36R,0.600000X1.150000*%
%ADD37R,0.300000X1.150000*%
%ADD38RoundRect,0.075000X-0.662500X-0.075000X0.662500X-0.075000X0.662500X0.075000X-0.662500X0.075000X0*%
%ADD39RoundRect,0.075000X-0.075000X-0.662500X0.075000X-0.662500X0.075000X0.662500X-0.075000X0.662500X0*%
%ADD40R,0.300000X0.850000*%
%ADD41R,2.550000X2.550000*%
G04 APERTURE END LIST*
D10*
%TO.C,C29*%
X146000000Y-52300000D03*
X146000000Y-50750000D03*
%TD*%
D11*
%TO.C,U1*%
X145775000Y-48725000D03*
X146425000Y-48725000D03*
X147075000Y-48725000D03*
X147725000Y-48725000D03*
D12*
X148450000Y-48000000D03*
X148450000Y-47350000D03*
X148450000Y-46700000D03*
X148450000Y-46050000D03*
D11*
X147725000Y-45325000D03*
X147075000Y-45325000D03*
X146425000Y-45325000D03*
X145775000Y-45325000D03*
D12*
X145050000Y-46050000D03*
X145050000Y-46700000D03*
X145050000Y-47350000D03*
X145050000Y-48000000D03*
%TD*%
D13*
%TO.C,R24*%
X150000000Y-47950000D03*
X150000000Y-49600000D03*
%TD*%
D10*
%TO.C,C31*%
X144250000Y-50750000D03*
X144250000Y-52300000D03*
%TD*%
D14*
%TO.C,C30*%
X143500000Y-46550000D03*
X143500000Y-45000000D03*
%TD*%
D15*
%TO.C,C1*%
X152525000Y-121000000D03*
X150975000Y-121000000D03*
%TD*%
%TO.C,C24*%
X129275000Y-117500000D03*
X127725000Y-117500000D03*
%TD*%
D16*
%TO.C,D4*%
X162950000Y-83787500D03*
X162950000Y-82212500D03*
%TD*%
D17*
%TO.C,R15*%
X159125000Y-80750000D03*
X160775000Y-80750000D03*
%TD*%
D18*
%TO.C,L1*%
X152600000Y-123500000D03*
X155400000Y-123500000D03*
%TD*%
D19*
%TO.C,D2*%
X161250000Y-130712500D03*
X161250000Y-132287500D03*
%TD*%
D17*
%TO.C,R12*%
X126175000Y-49500000D03*
X127825000Y-49500000D03*
%TD*%
D10*
%TO.C,C17*%
X166450000Y-82225000D03*
X166450000Y-83775000D03*
%TD*%
D19*
%TO.C,D1*%
X159500000Y-130712500D03*
X159500000Y-132287500D03*
%TD*%
D17*
%TO.C,R6*%
X160175000Y-121000000D03*
X161825000Y-121000000D03*
%TD*%
D20*
%TO.C,U2*%
X149650000Y-126925000D03*
X150350000Y-126925000D03*
X150000000Y-126075000D03*
%TD*%
D13*
%TO.C,R20*%
X121500000Y-103425000D03*
X121500000Y-105075000D03*
%TD*%
D14*
%TO.C,C21*%
X130750000Y-107025000D03*
X130750000Y-105475000D03*
%TD*%
D15*
%TO.C,C15*%
X160775000Y-60500000D03*
X159225000Y-60500000D03*
%TD*%
D21*
%TO.C,C11*%
X169225000Y-113250000D03*
X170775000Y-113250000D03*
%TD*%
D13*
%TO.C,R21*%
X119750000Y-103425000D03*
X119750000Y-105075000D03*
%TD*%
D15*
%TO.C,C9*%
X167525000Y-93750000D03*
X165975000Y-93750000D03*
%TD*%
D22*
%TO.C,C7*%
X168250000Y-91300000D03*
X168250000Y-87700000D03*
%TD*%
D23*
%TO.C,Y1*%
X117876256Y-111580850D03*
X118830850Y-110626256D03*
X118123744Y-109919150D03*
X117169150Y-110873744D03*
%TD*%
D14*
%TO.C,C3*%
X166000000Y-122525000D03*
X166000000Y-120975000D03*
%TD*%
D10*
%TO.C,C5*%
X181250000Y-88475000D03*
X181250000Y-90025000D03*
%TD*%
D24*
%TO.C,PS2*%
X179000000Y-93050000D03*
X179000000Y-90750000D03*
X179000000Y-88450000D03*
D25*
X173000000Y-90750000D03*
%TD*%
D14*
%TO.C,C22*%
X132480000Y-107025000D03*
X132480000Y-105475000D03*
%TD*%
D26*
%TO.C,IC2*%
X129200000Y-48750000D03*
X129200000Y-49250000D03*
X129200000Y-49750000D03*
X129200000Y-50250000D03*
X129750000Y-50250000D03*
X130250000Y-50250000D03*
X130800000Y-50250000D03*
X130800000Y-49750000D03*
X130800000Y-49250000D03*
X130800000Y-48750000D03*
X130250000Y-48750000D03*
X129750000Y-48750000D03*
%TD*%
D27*
%TO.C,J2*%
X174950000Y-45500000D03*
D28*
X176475000Y-44025000D03*
X176475000Y-46975000D03*
%TD*%
D21*
%TO.C,C20*%
X123225000Y-105000000D03*
X124775000Y-105000000D03*
%TD*%
D15*
%TO.C,C23*%
X129275000Y-119250000D03*
X127725000Y-119250000D03*
%TD*%
D10*
%TO.C,C18*%
X118020000Y-114475000D03*
X118020000Y-116025000D03*
%TD*%
D14*
%TO.C,C27*%
X116000000Y-108525000D03*
X116000000Y-106975000D03*
%TD*%
D29*
%TO.C,IC6*%
X159500000Y-123500000D03*
X159500000Y-124000000D03*
X159500000Y-124500000D03*
X159500000Y-125000000D03*
X159500000Y-125500000D03*
X162500000Y-125500000D03*
X162500000Y-125000000D03*
X162500000Y-124500000D03*
X162500000Y-124000000D03*
X162500000Y-123500000D03*
D30*
X161000000Y-124500000D03*
%TD*%
D14*
%TO.C,C26*%
X116000000Y-115025000D03*
X116000000Y-113475000D03*
%TD*%
D31*
%TO.C,R23*%
X177575000Y-86250000D03*
X175925000Y-86250000D03*
%TD*%
D14*
%TO.C,C6*%
X164250000Y-122525000D03*
X164250000Y-120975000D03*
%TD*%
D10*
%TO.C,C25*%
X119750000Y-114475000D03*
X119750000Y-116025000D03*
%TD*%
D32*
%TO.C,R4*%
X161250000Y-129075000D03*
X161250000Y-127425000D03*
%TD*%
D13*
%TO.C,R8*%
X177500000Y-95175000D03*
X177500000Y-96825000D03*
%TD*%
D21*
%TO.C,C28*%
X170175000Y-80500000D03*
X171725000Y-80500000D03*
%TD*%
D33*
%TO.C,IC4*%
X132567553Y-119660589D03*
X133953482Y-121046518D03*
X135339411Y-122432447D03*
X137432447Y-120339411D03*
X136046518Y-118953482D03*
X134660589Y-117567553D03*
%TD*%
D34*
%TO.C,IC1*%
X171000000Y-58250000D03*
X171000000Y-57150000D03*
X171000000Y-56050000D03*
X171000000Y-54950000D03*
X171000000Y-53850000D03*
X171000000Y-52750000D03*
X171000000Y-51650000D03*
X171000000Y-48650000D03*
X171000000Y-47550000D03*
X171000000Y-46450000D03*
X171000000Y-45350000D03*
X171000000Y-44250000D03*
X159000000Y-44250000D03*
X159000000Y-45350000D03*
X159000000Y-46450000D03*
X159000000Y-47550000D03*
X159000000Y-48650000D03*
X159000000Y-51650000D03*
X159000000Y-52750000D03*
X159000000Y-53850000D03*
X159000000Y-54950000D03*
X159000000Y-56050000D03*
X159000000Y-57150000D03*
X159000000Y-58250000D03*
%TD*%
D13*
%TO.C,R9*%
X177500000Y-114675000D03*
X177500000Y-116325000D03*
%TD*%
D31*
%TO.C,R22*%
X177575000Y-105750000D03*
X175925000Y-105750000D03*
%TD*%
D19*
%TO.C,D3*%
X163000000Y-130712500D03*
X163000000Y-132287500D03*
%TD*%
D13*
%TO.C,R5*%
X163000000Y-127425000D03*
X163000000Y-129075000D03*
%TD*%
D21*
%TO.C,C13*%
X129225000Y-52500000D03*
X130775000Y-52500000D03*
%TD*%
D35*
%TO.C,D7*%
X174287500Y-86250000D03*
X172712500Y-86250000D03*
%TD*%
D31*
%TO.C,R16*%
X171775000Y-78000000D03*
X170125000Y-78000000D03*
%TD*%
D17*
%TO.C,R13*%
X166425000Y-60500000D03*
X168075000Y-60500000D03*
%TD*%
D13*
%TO.C,R10*%
X179250000Y-114675000D03*
X179250000Y-116325000D03*
%TD*%
D21*
%TO.C,C19*%
X123225000Y-103250000D03*
X124775000Y-103250000D03*
%TD*%
D36*
%TO.C,J3*%
X146800000Y-128745000D03*
X147600000Y-128745000D03*
D37*
X148750000Y-128745000D03*
X149750000Y-128745000D03*
X150250000Y-128745000D03*
X151250000Y-128745000D03*
D36*
X153200000Y-128745000D03*
X152400000Y-128745000D03*
D37*
X151750000Y-128745000D03*
X150750000Y-128745000D03*
X149250000Y-128745000D03*
X148250000Y-128745000D03*
%TD*%
D22*
%TO.C,C10*%
X168250000Y-110800000D03*
X168250000Y-107200000D03*
%TD*%
D13*
%TO.C,R7*%
X179250000Y-95175000D03*
X179250000Y-96825000D03*
%TD*%
D21*
%TO.C,C2*%
X155475000Y-121000000D03*
X157025000Y-121000000D03*
%TD*%
D10*
%TO.C,C14*%
X132500000Y-48475000D03*
X132500000Y-50025000D03*
%TD*%
D17*
%TO.C,R14*%
X137675000Y-124000000D03*
X139325000Y-124000000D03*
%TD*%
D10*
%TO.C,C4*%
X181250000Y-107975000D03*
X181250000Y-109525000D03*
%TD*%
D13*
%TO.C,R3*%
X159500000Y-127425000D03*
X159500000Y-129075000D03*
%TD*%
D17*
%TO.C,R19*%
X159125000Y-77250000D03*
X160775000Y-77250000D03*
%TD*%
D13*
%TO.C,R1*%
X156500000Y-128675000D03*
X156500000Y-130325000D03*
%TD*%
D24*
%TO.C,PS1*%
X179000000Y-112550000D03*
X179000000Y-110250000D03*
X179000000Y-107950000D03*
D25*
X173000000Y-110250000D03*
%TD*%
D15*
%TO.C,C12*%
X167525000Y-113250000D03*
X165975000Y-113250000D03*
%TD*%
D17*
%TO.C,R18*%
X159125000Y-79000000D03*
X160775000Y-79000000D03*
%TD*%
D31*
%TO.C,R11*%
X134575000Y-108750000D03*
X132925000Y-108750000D03*
%TD*%
D38*
%TO.C,U3*%
X121837500Y-108500000D03*
X121837500Y-109000000D03*
X121837500Y-109500000D03*
X121837500Y-110000000D03*
X121837500Y-110500000D03*
X121837500Y-111000000D03*
X121837500Y-111500000D03*
X121837500Y-112000000D03*
X121837500Y-112500000D03*
X121837500Y-113000000D03*
X121837500Y-113500000D03*
X121837500Y-114000000D03*
D39*
X123250000Y-115412500D03*
X123750000Y-115412500D03*
X124250000Y-115412500D03*
X124750000Y-115412500D03*
X125250000Y-115412500D03*
X125750000Y-115412500D03*
X126250000Y-115412500D03*
X126750000Y-115412500D03*
X127250000Y-115412500D03*
X127750000Y-115412500D03*
X128250000Y-115412500D03*
X128750000Y-115412500D03*
D38*
X130162500Y-114000000D03*
X130162500Y-113500000D03*
X130162500Y-113000000D03*
X130162500Y-112500000D03*
X130162500Y-112000000D03*
X130162500Y-111500000D03*
X130162500Y-111000000D03*
X130162500Y-110500000D03*
X130162500Y-110000000D03*
X130162500Y-109500000D03*
X130162500Y-109000000D03*
X130162500Y-108500000D03*
D39*
X128750000Y-107087500D03*
X128250000Y-107087500D03*
X127750000Y-107087500D03*
X127250000Y-107087500D03*
X126750000Y-107087500D03*
X126250000Y-107087500D03*
X125750000Y-107087500D03*
X125250000Y-107087500D03*
X124750000Y-107087500D03*
X124250000Y-107087500D03*
X123750000Y-107087500D03*
X123250000Y-107087500D03*
%TD*%
D35*
%TO.C,D6*%
X174287500Y-105750000D03*
X172712500Y-105750000D03*
%TD*%
D40*
%TO.C,IC3*%
X167200000Y-76300000D03*
X166700000Y-76300000D03*
X166200000Y-76300000D03*
X165700000Y-76300000D03*
X165200000Y-76300000D03*
X164700000Y-76300000D03*
D29*
X164000000Y-77000000D03*
X164000000Y-77500000D03*
X164000000Y-78000000D03*
X164000000Y-78500000D03*
X164000000Y-79000000D03*
X164000000Y-79500000D03*
D40*
X164700000Y-80200000D03*
X165200000Y-80200000D03*
X165700000Y-80200000D03*
X166200000Y-80200000D03*
X166700000Y-80200000D03*
X167200000Y-80200000D03*
D29*
X167900000Y-79500000D03*
X167900000Y-79000000D03*
X167900000Y-78500000D03*
X167900000Y-78000000D03*
X167900000Y-77500000D03*
X167900000Y-77000000D03*
D41*
X165950000Y-78250000D03*
%TD*%
D10*
%TO.C,C16*%
X168200000Y-82225000D03*
X168200000Y-83775000D03*
%TD*%
D13*
%TO.C,R17*%
X164700000Y-82175000D03*
X164700000Y-83825000D03*
%TD*%
%TO.C,R2*%
X143500000Y-128675000D03*
X143500000Y-130325000D03*
%TD*%
D21*
%TO.C,C8*%
X169225000Y-93750000D03*
X170775000Y-93750000D03*
%TD*%
D16*
%TO.C,D5*%
X118000000Y-105037500D03*
X118000000Y-103462500D03*
%TD*%
M02*
